<svg width="123" height="163" viewBox="0 0 123 163" fill="none" xmlns="http://www.w3.org/2000/svg">
<path d="M82.75 25C84.8211 25 86.5288 23.3118 86.2193 21.264C85.9173 19.2663 85.3737 17.308 84.597 15.4329C83.3406 12.3998 81.4991 9.6438 79.1777 7.32233C76.8562 5.00087 74.1002 3.15938 71.0671 1.90301C68.0339 0.646644 64.783 -1.43507e-07 61.5 0C58.217 1.43507e-07 54.9661 0.646644 51.9329 1.90301C48.8998 3.15938 46.1438 5.00087 43.8223 7.32233C41.5009 9.6438 39.6594 12.3998 38.403 15.4329C37.6263 17.308 37.0827 19.2663 36.7807 21.264C36.4712 23.3118 38.1789 25 40.25 25C42.3211 25 43.9598 23.3023 44.4003 21.2786C44.6212 20.2634 44.9326 19.2675 45.3321 18.303C46.2116 16.1798 47.5006 14.2507 49.1256 12.6256C50.7507 11.0006 52.6798 9.71157 54.803 8.83211C56.9262 7.95265 59.2019 7.5 61.5 7.5C63.7981 7.5 66.0738 7.95265 68.197 8.83211C70.3202 9.71157 72.2493 11.0006 73.8744 12.6256C75.4994 14.2507 76.7884 16.1798 77.6679 18.303C78.0674 19.2675 78.3788 20.2634 78.5997 21.2786C79.0402 23.3023 80.6789 25 82.75 25Z" fill="url(#paint0_linear_1_1271)"/>
<circle cx="49.5" cy="96" r="5" fill="url(#paint1_linear_1_1271)"/>
<circle cx="74.5" cy="96" r="5" fill="url(#paint2_linear_1_1271)"/>
<path d="M100.061 28.5H20.4665C18.236 28.5 16.0855 29.3314 14.435 30.8318C12.5657 32.5312 11.5 34.9402 11.5 37.4665V37.9762C11.5 39.3122 11.7645 40.6349 12.2784 41.8681L12.7879 43.091C13.5882 45.0117 14.7571 46.7571 16.2284 48.2284C18.049 50.049 20.2837 51.4012 22.7412 52.1691L22.9247 52.2265C25.5986 53.0621 28.4397 53.2121 31.1867 52.6627L32.5173 52.3965C33.8363 52.1327 35.1284 51.7486 36.3773 51.2491L39.3866 50.0454C41.113 49.3548 42.9553 49 44.8147 49H47.2426C49.3377 49 51.3568 49.7854 52.9012 51.2011C55.1252 53.2398 56.0806 56.3172 55.4022 59.257L55 61L54.3285 65.0291C53.7875 68.2748 54.189 71.6076 55.4851 74.632C56.158 76.2019 57.0609 77.6628 58.1641 78.9667L59.9847 81.1183C61.3144 82.6897 62.9494 83.9747 64.7906 84.8953C66.9012 85.9506 69.2285 86.5 71.5883 86.5H95.9302C97.2866 86.5 98.6194 86.146 99.7971 85.4731C100.915 84.8343 101.857 83.9286 102.539 82.8368L102.875 82.2996C103.617 81.1123 104.11 79.7863 104.323 78.4025L107 61L110 42.5L110.459 39.0543C110.803 36.4801 110.008 33.884 108.283 31.943C107.437 30.992 106.398 30.2327 105.236 29.7159L104.729 29.4906C103.259 28.8375 101.669 28.5 100.061 28.5Z" fill="url(#paint3_linear_1_1271)"/>
<path d="M41.9599 56.3236L21.2356 62.7712C20.7562 62.9203 20.3324 63.2095 20.0188 63.6015C19.1718 64.6603 19.3165 66.1998 20.3459 67.0822L21.2023 67.8162C21.7237 68.2632 22.3597 68.5553 23.0385 68.6598L28.5 69.5L29.6256 69.7251C31.8784 70.1757 33.5 72.1537 33.5 74.4511C33.5 74.8159 33.5414 75.1794 33.6234 75.5348L34.7177 80.2767C34.9009 81.0704 35.3387 81.7823 35.9645 82.3037L36.5489 82.7908C37.4179 83.5149 38.6498 83.6101 39.6197 83.0282C40.1862 82.6883 40.6059 82.1497 40.7971 81.5173L46.8157 61.6096C46.9379 61.2054 47 60.7854 47 60.3631V60.0339C47 58.2509 45.7865 56.6966 44.0567 56.2642C43.3656 56.0914 42.6402 56.1119 41.9599 56.3236Z" fill="url(#paint4_linear_1_1271)"/>
<path d="M19.188 125.752C19.188 126.392 19.1453 126.968 19.06 127.48H6.1C6.20667 128.76 6.65467 129.763 7.444 130.488C8.23333 131.213 9.204 131.576 10.356 131.576C12.02 131.576 13.204 130.861 13.908 129.432H18.74C18.228 131.139 17.2467 132.547 15.796 133.656C14.3453 134.744 12.564 135.288 10.452 135.288C8.74533 135.288 7.20933 134.915 5.844 134.168C4.5 133.4 3.444 132.323 2.676 130.936C1.92933 129.549 1.556 127.949 1.556 126.136C1.556 124.301 1.92933 122.691 2.676 121.304C3.42267 119.917 4.468 118.851 5.812 118.104C7.156 117.357 8.70267 116.984 10.452 116.984C12.1373 116.984 13.6413 117.347 14.964 118.072C16.308 118.797 17.3427 119.832 18.068 121.176C18.8147 122.499 19.188 124.024 19.188 125.752ZM14.548 124.472C14.5267 123.32 14.1107 122.403 13.3 121.72C12.4893 121.016 11.4973 120.664 10.324 120.664C9.21467 120.664 8.276 121.005 7.508 121.688C6.76133 122.349 6.30267 123.277 6.132 124.472H14.548ZM36.09 121.688V125.464H22.522V121.688H36.09ZM48.8263 135.224C47.2689 135.224 45.8609 134.957 44.6023 134.424C43.3649 133.891 42.3836 133.123 41.6583 132.12C40.9329 131.117 40.5596 129.933 40.5383 128.568H45.3383C45.4023 129.485 45.7223 130.211 46.2983 130.744C46.8956 131.277 47.7063 131.544 48.7303 131.544C49.7756 131.544 50.5969 131.299 51.1943 130.808C51.7916 130.296 52.0903 129.635 52.0903 128.824C52.0903 128.163 51.8876 127.619 51.4823 127.192C51.0769 126.765 50.5649 126.435 49.9463 126.2C49.3489 125.944 48.5169 125.667 47.4503 125.368C45.9996 124.941 44.8156 124.525 43.8983 124.12C43.0023 123.693 42.2236 123.064 41.5623 122.232C40.9223 121.379 40.6023 120.248 40.6023 118.84C40.6023 117.517 40.9329 116.365 41.5943 115.384C42.2556 114.403 43.1836 113.656 44.3783 113.144C45.5729 112.611 46.9383 112.344 48.4743 112.344C50.7783 112.344 52.6449 112.909 54.0743 114.04C55.5249 115.149 56.3249 116.707 56.4743 118.712H51.5463C51.5036 117.944 51.1729 117.315 50.5543 116.824C49.9569 116.312 49.1569 116.056 48.1543 116.056C47.2796 116.056 46.5756 116.28 46.0423 116.728C45.5303 117.176 45.2743 117.827 45.2743 118.68C45.2743 119.277 45.4663 119.779 45.8503 120.184C46.2556 120.568 46.7463 120.888 47.3223 121.144C47.9196 121.379 48.7516 121.656 49.8183 121.976C51.2689 122.403 52.4529 122.829 53.3703 123.256C54.2876 123.683 55.0769 124.323 55.7383 125.176C56.3996 126.029 56.7303 127.149 56.7303 128.536C56.7303 129.731 56.4209 130.84 55.8022 131.864C55.1836 132.888 54.2769 133.709 53.0823 134.328C51.8876 134.925 50.4689 135.224 48.8263 135.224ZM70.5983 117.016C71.9423 117.016 73.1369 117.315 74.1823 117.912C75.2276 118.488 76.0383 119.352 76.6143 120.504C77.2116 121.635 77.5103 123 77.5103 124.6V135H73.0303V125.208C73.0303 123.8 72.6783 122.723 71.9743 121.976C71.2703 121.208 70.3103 120.824 69.0943 120.824C67.8569 120.824 66.8756 121.208 66.1503 121.976C65.4463 122.723 65.0943 123.8 65.0943 125.208V135H60.6143V111.32H65.0943V119.48C65.6703 118.712 66.4383 118.115 67.3983 117.688C68.3583 117.24 69.4249 117.016 70.5983 117.016Z" fill="#5D6061"/>
<path d="M99.6743 119.54C99.2991 118.682 98.8026 117.883 98.1999 117.166C97.3089 116.075 96.1971 115.185 94.9374 114.554C93.6778 113.924 92.299 113.568 90.8918 113.509C89.4846 113.45 88.0808 113.69 86.7729 114.212C85.4651 114.735 84.2827 115.529 83.3037 116.542C82.3247 117.555 81.5712 118.764 81.0929 120.089C80.6145 121.414 80.4222 122.825 80.5284 124.23C80.6347 125.635 81.0372 127.001 81.7094 128.239C82.3816 129.478 83.3084 130.559 84.4286 131.413C85.1474 131.972 85.9416 132.426 86.7877 132.763C87.9739 133.249 89.2434 133.499 90.5254 133.5C93.1716 133.494 95.7075 132.439 97.5773 130.566C99.447 128.693 100.498 126.155 100.5 123.508C100.502 122.142 100.221 120.792 99.6743 119.54ZM90.518 115.536C91.6693 115.536 92.8066 115.788 93.8503 116.274C93.5958 116.384 93.3282 116.46 93.0541 116.502C92.1521 116.633 91.3167 117.052 90.6722 117.696C90.0278 118.341 89.6091 119.177 89.4785 120.079C89.4213 120.585 89.1912 121.055 88.8272 121.411C88.4632 121.767 87.9877 121.987 87.4807 122.033C86.5788 122.164 85.7432 122.582 85.0988 123.227C84.4544 123.872 84.0357 124.707 83.9052 125.609C83.861 126.091 83.6557 126.543 83.3228 126.893C82.7482 125.678 82.4901 124.338 82.5725 122.997C82.6548 121.656 83.075 120.358 83.7938 119.223C84.5127 118.088 85.5068 117.154 86.6838 116.507C87.8608 115.859 89.1823 115.52 90.5254 115.521L90.518 115.536ZM84.4212 128.67C84.5097 128.589 84.5981 128.515 84.6866 128.426C85.3425 127.79 85.7635 126.951 85.8809 126.045C85.9285 125.535 86.1559 125.059 86.5223 124.702C86.8749 124.335 87.3494 124.11 87.8567 124.068C88.7586 123.938 89.5941 123.519 90.2385 122.874C90.8829 122.23 91.3016 121.394 91.4322 120.492C91.4641 119.959 91.6926 119.457 92.0736 119.083C92.4349 118.723 92.9139 118.506 93.4227 118.471C94.2512 118.357 95.024 117.989 95.6343 117.417C96.3293 117.993 96.9181 118.687 97.3742 119.467C97.3462 119.505 97.314 119.539 97.2783 119.57C96.9265 119.94 96.4525 120.171 95.944 120.219C95.0411 120.347 94.2043 120.765 93.5595 121.41C92.9147 122.055 92.4967 122.892 92.3684 123.795C92.3165 124.303 92.0907 124.777 91.7293 125.137C91.3678 125.498 90.893 125.722 90.3853 125.772C89.4808 125.901 88.6422 126.319 87.994 126.964C87.3459 127.608 86.9228 128.444 86.7877 129.348C86.748 129.709 86.6242 130.055 86.4264 130.359C85.6701 129.909 84.9926 129.339 84.4212 128.67ZM90.518 131.516C89.77 131.517 89.0254 131.413 88.3064 131.207C88.5524 130.748 88.7123 130.248 88.7782 129.732C88.8299 129.225 89.0546 128.752 89.4145 128.392C89.7745 128.032 90.2475 127.807 90.7539 127.755C91.6572 127.626 92.4944 127.208 93.1402 126.563C93.786 125.919 94.2059 125.082 94.3368 124.179C94.3885 123.672 94.6133 123.199 94.9732 122.839C95.3331 122.479 95.8062 122.254 96.3126 122.203C96.9923 122.114 97.6402 121.861 98.1999 121.465C98.5107 122.643 98.5475 123.877 98.3075 125.072C98.0675 126.267 97.5571 127.391 96.8154 128.358C96.0738 129.325 95.1206 130.109 94.029 130.65C92.9374 131.191 91.7364 131.475 90.518 131.479V131.516Z" fill="#5D6061"/>
<path d="M107.188 119.832C107.764 119.021 108.553 118.349 109.556 117.816C110.58 117.261 111.743 116.984 113.044 116.984C114.559 116.984 115.924 117.357 117.14 118.104C118.377 118.851 119.348 119.917 120.052 121.304C120.777 122.669 121.14 124.259 121.14 126.072C121.14 127.885 120.777 129.496 120.052 130.904C119.348 132.291 118.377 133.368 117.14 134.136C115.924 134.904 114.559 135.288 113.044 135.288C111.743 135.288 110.591 135.021 109.588 134.488C108.607 133.955 107.807 133.283 107.188 132.472V143.448H102.708V117.272H107.188V119.832ZM116.564 126.072C116.564 125.005 116.34 124.088 115.892 123.32C115.465 122.531 114.889 121.933 114.164 121.528C113.46 121.123 112.692 120.92 111.86 120.92C111.049 120.92 110.281 121.133 109.556 121.56C108.852 121.965 108.276 122.563 107.828 123.352C107.401 124.141 107.188 125.069 107.188 126.136C107.188 127.203 107.401 128.131 107.828 128.92C108.276 129.709 108.852 130.317 109.556 130.744C110.281 131.149 111.049 131.352 111.86 131.352C112.692 131.352 113.46 131.139 114.164 130.712C114.889 130.285 115.465 129.677 115.892 128.888C116.34 128.099 116.564 127.16 116.564 126.072Z" fill="#5D6061"/>
<path d="M33.6167 146.832V153.744C33.6167 154.501 33.814 155.083 34.2087 155.488C34.6034 155.883 35.158 156.08 35.8727 156.08C36.598 156.08 37.158 155.883 37.5527 155.488C37.9474 155.083 38.1447 154.501 38.1447 153.744V146.832H40.4007V153.728C40.4007 154.677 40.1927 155.483 39.7767 156.144C39.3714 156.795 38.822 157.285 38.1287 157.616C37.446 157.947 36.6834 158.112 35.8407 158.112C35.0087 158.112 34.2514 157.947 33.5687 157.616C32.8967 157.285 32.3634 156.795 31.9687 156.144C31.574 155.483 31.3767 154.677 31.3767 153.728V146.832H33.6167ZM50.7089 150.288C50.7089 150.885 50.5649 151.445 50.2769 151.968C49.9996 152.491 49.5569 152.912 48.9489 153.232C48.3516 153.552 47.5943 153.712 46.6769 153.712H44.8049V158H42.5649V146.832H46.6769C47.5409 146.832 48.2769 146.981 48.8849 147.28C49.4929 147.579 49.9463 147.989 50.2449 148.512C50.5543 149.035 50.7089 149.627 50.7089 150.288ZM46.5809 151.904C47.1996 151.904 47.6583 151.765 47.9569 151.488C48.2556 151.2 48.4049 150.8 48.4049 150.288C48.4049 149.2 47.7969 148.656 46.5809 148.656H44.8049V151.904H46.5809ZM61.8513 158H59.6113L54.5393 150.336V158H52.2993V146.816H54.5393L59.6113 154.496V146.816H61.8513V158ZM74.0969 146.832L70.0009 158H67.2809L63.1849 146.832H65.5849L68.6569 155.712L71.7129 146.832H74.0969ZM81.9519 146.832V154.672C81.9519 155.76 81.6373 156.608 81.0079 157.216C80.3786 157.813 79.5359 158.112 78.4799 158.112C77.4133 158.112 76.5493 157.803 75.8879 157.184C75.2373 156.565 74.9119 155.701 74.9119 154.592H77.1519C77.1626 155.072 77.2746 155.445 77.4879 155.712C77.7119 155.979 78.0319 156.112 78.4479 156.112C78.8533 156.112 79.1626 155.984 79.3759 155.728C79.5893 155.472 79.6959 155.12 79.6959 154.672V146.832H81.9519ZM92.1649 146.832V148.64H89.1889V158H86.9489V148.64H83.9729V146.832H92.1649Z" fill="#5D6061"/>
<defs>
<linearGradient id="paint0_linear_1_1271" x1="61.5" y1="0" x2="61.5" y2="50" gradientUnits="userSpaceOnUse">
<stop stop-color="#FFB733"/>
<stop offset="0.645069" stop-color="#FDEE00"/>
</linearGradient>
<linearGradient id="paint1_linear_1_1271" x1="49.5" y1="91" x2="49.5" y2="101" gradientUnits="userSpaceOnUse">
<stop stop-color="#FFB733"/>
<stop offset="0.645069" stop-color="#FDEE00"/>
</linearGradient>
<linearGradient id="paint2_linear_1_1271" x1="74.5" y1="91" x2="74.5" y2="101" gradientUnits="userSpaceOnUse">
<stop stop-color="#FFB733"/>
<stop offset="0.645069" stop-color="#FDEE00"/>
</linearGradient>
<linearGradient id="paint3_linear_1_1271" x1="195.641" y1="3.7392" x2="-26.75" y2="172.423" gradientUnits="userSpaceOnUse">
<stop stop-color="#58E0AA"/>
<stop offset="0.380503" stop-color="#8FEAC6"/>
<stop offset="0.715503" stop-color="#68ADFC"/>
<stop offset="1" stop-color="#1D84FB"/>
</linearGradient>
<linearGradient id="paint4_linear_1_1271" x1="32.75" y1="56" x2="32.75" y2="84" gradientUnits="userSpaceOnUse">
<stop stop-color="#FFB733"/>
<stop offset="0.645069" stop-color="#FDEE00"/>
</linearGradient>
</defs>
</svg>
