<svg width="122" height="163" viewBox="0 0 122 163" fill="none" xmlns="http://www.w3.org/2000/svg">
<path d="M82.25 25C84.3211 25 86.0288 23.3118 85.7193 21.264C85.4173 19.2663 84.8737 17.308 84.097 15.4329C82.8406 12.3998 80.9991 9.6438 78.6777 7.32233C76.3562 5.00087 73.6002 3.15938 70.5671 1.90301C67.5339 0.646644 64.283 -1.43507e-07 61 0C57.717 1.43507e-07 54.4661 0.646644 51.4329 1.90301C48.3998 3.15938 45.6438 5.00087 43.3223 7.32233C41.0009 9.6438 39.1594 12.3998 37.903 15.4329C37.1263 17.308 36.5827 19.2663 36.2807 21.264C35.9712 23.3118 37.6789 25 39.75 25C41.8211 25 43.4598 23.3023 43.9003 21.2786C44.1212 20.2634 44.4326 19.2675 44.8321 18.303C45.7116 16.1798 47.0006 14.2507 48.6256 12.6256C50.2507 11.0006 52.1798 9.71157 54.303 8.83211C56.4262 7.95265 58.7019 7.5 61 7.5C63.2981 7.5 65.5738 7.95265 67.697 8.83211C69.8202 9.71157 71.7493 11.0006 73.3744 12.6256C74.9994 14.2507 76.2884 16.1798 77.1679 18.303C77.5674 19.2675 77.8788 20.2634 78.0997 21.2786C78.5402 23.3023 80.1789 25 82.25 25Z" fill="url(#paint0_linear_1_1409)"/>
<circle cx="49" cy="96" r="5" fill="url(#paint1_linear_1_1409)"/>
<circle cx="74" cy="96" r="5" fill="url(#paint2_linear_1_1409)"/>
<path d="M99.5609 28.5H19.9665C17.736 28.5 15.5855 29.3314 13.935 30.8318C12.0657 32.5312 11 34.9402 11 37.4665V37.9762C11 39.3122 11.2645 40.6349 11.7784 41.8681L12.2879 43.091C13.0882 45.0117 14.2571 46.7571 15.7284 48.2284C17.549 50.049 19.7837 51.4012 22.2412 52.1691L22.4247 52.2265C25.0986 53.0621 27.9397 53.2121 30.6867 52.6627L32.0173 52.3965C33.3363 52.1327 34.6284 51.7486 35.8773 51.2491L38.8866 50.0454C40.613 49.3548 42.4553 49 44.3147 49H46.7426C48.8377 49 50.8568 49.7854 52.4012 51.2011C54.6252 53.2398 55.5806 56.3172 54.9022 59.257L54.5 61L53.8285 65.0291C53.2875 68.2748 53.689 71.6076 54.9851 74.632C55.658 76.2019 56.5609 77.6628 57.6641 78.9667L59.4847 81.1183C60.8144 82.6897 62.4494 83.9747 64.2906 84.8953C66.4012 85.9506 68.7285 86.5 71.0883 86.5H95.4302C96.7866 86.5 98.1194 86.146 99.2971 85.4731C100.415 84.8343 101.357 83.9286 102.039 82.8368L102.375 82.2996C103.117 81.1123 103.61 79.7863 103.823 78.4025L106.5 61L109.5 42.5L109.959 39.0543C110.303 36.4801 109.508 33.884 107.783 31.943C106.937 30.992 105.898 30.2327 104.736 29.7159L104.229 29.4906C102.759 28.8375 101.169 28.5 99.5609 28.5Z" fill="white"/>
<path d="M41.4599 56.3236L20.7356 62.7712C20.2562 62.9203 19.8324 63.2095 19.5188 63.6015C18.6718 64.6603 18.8165 66.1998 19.8459 67.0822L20.7023 67.8162C21.2237 68.2632 21.8597 68.5553 22.5385 68.6598L28 69.5L29.1256 69.7251C31.3784 70.1757 33 72.1537 33 74.4511C33 74.8159 33.0414 75.1794 33.1234 75.5348L34.2177 80.2767C34.4009 81.0704 34.8387 81.7823 35.4645 82.3037L36.0489 82.7908C36.9179 83.5149 38.1498 83.6101 39.1197 83.0282C39.6862 82.6883 40.1059 82.1497 40.2971 81.5173L46.3157 61.6096C46.4379 61.2054 46.5 60.7854 46.5 60.3631V60.0339C46.5 58.2509 45.2865 56.6966 43.5567 56.2642C42.8656 56.0914 42.1402 56.1119 41.4599 56.3236Z" fill="url(#paint3_linear_1_1409)"/>
<path d="M18.688 125.752C18.688 126.392 18.6453 126.968 18.56 127.48H5.6C5.70667 128.76 6.15467 129.763 6.944 130.488C7.73333 131.213 8.704 131.576 9.856 131.576C11.52 131.576 12.704 130.861 13.408 129.432H18.24C17.728 131.139 16.7467 132.547 15.296 133.656C13.8453 134.744 12.064 135.288 9.952 135.288C8.24533 135.288 6.70933 134.915 5.344 134.168C4 133.4 2.944 132.323 2.176 130.936C1.42933 129.549 1.056 127.949 1.056 126.136C1.056 124.301 1.42933 122.691 2.176 121.304C2.92267 119.917 3.968 118.851 5.312 118.104C6.656 117.357 8.20267 116.984 9.952 116.984C11.6373 116.984 13.1413 117.347 14.464 118.072C15.808 118.797 16.8427 119.832 17.568 121.176C18.3147 122.499 18.688 124.024 18.688 125.752ZM14.048 124.472C14.0267 123.32 13.6107 122.403 12.8 121.72C11.9893 121.016 10.9973 120.664 9.824 120.664C8.71467 120.664 7.776 121.005 7.008 121.688C6.26133 122.349 5.80267 123.277 5.632 124.472H14.048ZM35.59 121.688V125.464H22.022V121.688H35.59ZM48.3263 135.224C46.7689 135.224 45.3609 134.957 44.1023 134.424C42.8649 133.891 41.8836 133.123 41.1583 132.12C40.4329 131.117 40.0596 129.933 40.0383 128.568H44.8383C44.9023 129.485 45.2223 130.211 45.7983 130.744C46.3956 131.277 47.2063 131.544 48.2303 131.544C49.2756 131.544 50.0969 131.299 50.6943 130.808C51.2916 130.296 51.5903 129.635 51.5903 128.824C51.5903 128.163 51.3876 127.619 50.9823 127.192C50.5769 126.765 50.0649 126.435 49.4463 126.2C48.8489 125.944 48.0169 125.667 46.9503 125.368C45.4996 124.941 44.3156 124.525 43.3983 124.12C42.5023 123.693 41.7236 123.064 41.0623 122.232C40.4223 121.379 40.1023 120.248 40.1023 118.84C40.1023 117.517 40.4329 116.365 41.0943 115.384C41.7556 114.403 42.6836 113.656 43.8783 113.144C45.0729 112.611 46.4383 112.344 47.9743 112.344C50.2783 112.344 52.1449 112.909 53.5743 114.04C55.0249 115.149 55.8249 116.707 55.9743 118.712H51.0463C51.0036 117.944 50.6729 117.315 50.0543 116.824C49.4569 116.312 48.6569 116.056 47.6543 116.056C46.7796 116.056 46.0756 116.28 45.5423 116.728C45.0303 117.176 44.7743 117.827 44.7743 118.68C44.7743 119.277 44.9663 119.779 45.3503 120.184C45.7556 120.568 46.2463 120.888 46.8223 121.144C47.4196 121.379 48.2516 121.656 49.3183 121.976C50.7689 122.403 51.9529 122.829 52.8703 123.256C53.7876 123.683 54.5769 124.323 55.2383 125.176C55.8996 126.029 56.2303 127.149 56.2303 128.536C56.2303 129.731 55.9209 130.84 55.3022 131.864C54.6836 132.888 53.7769 133.709 52.5823 134.328C51.3876 134.925 49.9689 135.224 48.3263 135.224ZM70.0983 117.016C71.4423 117.016 72.6369 117.315 73.6823 117.912C74.7276 118.488 75.5383 119.352 76.1143 120.504C76.7116 121.635 77.0103 123 77.0103 124.6V135H72.5303V125.208C72.5303 123.8 72.1783 122.723 71.4743 121.976C70.7703 121.208 69.8103 120.824 68.5943 120.824C67.3569 120.824 66.3756 121.208 65.6503 121.976C64.9463 122.723 64.5943 123.8 64.5943 125.208V135H60.1143V111.32H64.5943V119.48C65.1703 118.712 65.9383 118.115 66.8983 117.688C67.8583 117.24 68.9249 117.016 70.0983 117.016Z" fill="white"/>
<path d="M99.1743 119.54C98.7991 118.682 98.3026 117.883 97.6999 117.166C96.8089 116.075 95.6971 115.185 94.4374 114.554C93.1778 113.924 91.799 113.568 90.3918 113.509C88.9846 113.45 87.5808 113.69 86.2729 114.212C84.9651 114.735 83.7827 115.529 82.8037 116.542C81.8247 117.555 81.0712 118.764 80.5929 120.089C80.1145 121.414 79.9222 122.825 80.0284 124.23C80.1347 125.635 80.5372 127.001 81.2094 128.239C81.8816 129.478 82.8084 130.559 83.9286 131.413C84.6474 131.972 85.4416 132.426 86.2877 132.763C87.4739 133.249 88.7434 133.499 90.0254 133.5C92.6716 133.494 95.2075 132.439 97.0773 130.566C98.947 128.693 99.9981 126.155 100 123.508C100.002 122.142 99.7208 120.792 99.1743 119.54ZM90.018 115.536C91.1693 115.536 92.3066 115.788 93.3503 116.274C93.0958 116.384 92.8282 116.46 92.5541 116.502C91.6521 116.633 90.8167 117.052 90.1722 117.696C89.5278 118.341 89.1091 119.177 88.9785 120.079C88.9213 120.585 88.6912 121.055 88.3272 121.411C87.9632 121.767 87.4877 121.987 86.9807 122.033C86.0788 122.164 85.2432 122.582 84.5988 123.227C83.9544 123.872 83.5357 124.707 83.4052 125.609C83.361 126.091 83.1557 126.543 82.8228 126.893C82.2482 125.678 81.9901 124.338 82.0725 122.997C82.1548 121.656 82.575 120.358 83.2938 119.223C84.0127 118.088 85.0068 117.154 86.1838 116.507C87.3608 115.859 88.6823 115.52 90.0254 115.521L90.018 115.536ZM83.9212 128.67C84.0097 128.589 84.0981 128.515 84.1866 128.426C84.8425 127.79 85.2635 126.951 85.3809 126.045C85.4285 125.535 85.6559 125.059 86.0223 124.702C86.3749 124.335 86.8494 124.11 87.3567 124.068C88.2586 123.938 89.0941 123.519 89.7385 122.874C90.3829 122.23 90.8016 121.394 90.9322 120.492C90.9641 119.959 91.1926 119.457 91.5736 119.083C91.9349 118.723 92.4139 118.506 92.9227 118.471C93.7512 118.357 94.524 117.989 95.1343 117.417C95.8293 117.993 96.4181 118.687 96.8742 119.467C96.8462 119.505 96.814 119.539 96.7783 119.57C96.4265 119.94 95.9525 120.171 95.444 120.219C94.5411 120.347 93.7043 120.765 93.0595 121.41C92.4147 122.055 91.9967 122.892 91.8684 123.795C91.8165 124.303 91.5907 124.777 91.2293 125.137C90.8678 125.498 90.393 125.722 89.8853 125.772C88.9808 125.901 88.1422 126.319 87.494 126.964C86.8459 127.608 86.4228 128.444 86.2877 129.348C86.248 129.709 86.1242 130.055 85.9264 130.359C85.1701 129.909 84.4926 129.339 83.9212 128.67ZM90.018 131.516C89.27 131.517 88.5254 131.413 87.8064 131.207C88.0524 130.748 88.2123 130.248 88.2782 129.732C88.3299 129.225 88.5546 128.752 88.9145 128.392C89.2745 128.032 89.7475 127.807 90.2539 127.755C91.1572 127.626 91.9944 127.208 92.6402 126.563C93.286 125.919 93.7059 125.082 93.8368 124.179C93.8885 123.672 94.1133 123.199 94.4732 122.839C94.8331 122.479 95.3062 122.254 95.8126 122.203C96.4923 122.114 97.1402 121.861 97.6999 121.465C98.0107 122.643 98.0475 123.877 97.8075 125.072C97.5675 126.267 97.0571 127.391 96.3154 128.358C95.5738 129.325 94.6206 130.109 93.529 130.65C92.4374 131.191 91.2364 131.475 90.018 131.479V131.516Z" fill="white"/>
<path d="M106.688 119.832C107.264 119.021 108.053 118.349 109.056 117.816C110.08 117.261 111.243 116.984 112.544 116.984C114.059 116.984 115.424 117.357 116.64 118.104C117.877 118.851 118.848 119.917 119.552 121.304C120.277 122.669 120.64 124.259 120.64 126.072C120.64 127.885 120.277 129.496 119.552 130.904C118.848 132.291 117.877 133.368 116.64 134.136C115.424 134.904 114.059 135.288 112.544 135.288C111.243 135.288 110.091 135.021 109.088 134.488C108.107 133.955 107.307 133.283 106.688 132.472V143.448H102.208V117.272H106.688V119.832ZM116.064 126.072C116.064 125.005 115.84 124.088 115.392 123.32C114.965 122.531 114.389 121.933 113.664 121.528C112.96 121.123 112.192 120.92 111.36 120.92C110.549 120.92 109.781 121.133 109.056 121.56C108.352 121.965 107.776 122.563 107.328 123.352C106.901 124.141 106.688 125.069 106.688 126.136C106.688 127.203 106.901 128.131 107.328 128.92C107.776 129.709 108.352 130.317 109.056 130.744C109.781 131.149 110.549 131.352 111.36 131.352C112.192 131.352 112.96 131.139 113.664 130.712C114.389 130.285 114.965 129.677 115.392 128.888C115.84 128.099 116.064 127.16 116.064 126.072Z" fill="white"/>
<path d="M33.1167 146.832V153.744C33.1167 154.501 33.314 155.083 33.7087 155.488C34.1034 155.883 34.658 156.08 35.3727 156.08C36.098 156.08 36.658 155.883 37.0527 155.488C37.4474 155.083 37.6447 154.501 37.6447 153.744V146.832H39.9007V153.728C39.9007 154.677 39.6927 155.483 39.2767 156.144C38.8714 156.795 38.322 157.285 37.6287 157.616C36.946 157.947 36.1834 158.112 35.3407 158.112C34.5087 158.112 33.7514 157.947 33.0687 157.616C32.3967 157.285 31.8634 156.795 31.4687 156.144C31.074 155.483 30.8767 154.677 30.8767 153.728V146.832H33.1167ZM50.2089 150.288C50.2089 150.885 50.0649 151.445 49.7769 151.968C49.4996 152.491 49.0569 152.912 48.4489 153.232C47.8516 153.552 47.0943 153.712 46.1769 153.712H44.3049V158H42.0649V146.832H46.1769C47.0409 146.832 47.7769 146.981 48.3849 147.28C48.9929 147.579 49.4463 147.989 49.7449 148.512C50.0543 149.035 50.2089 149.627 50.2089 150.288ZM46.0809 151.904C46.6996 151.904 47.1583 151.765 47.4569 151.488C47.7556 151.2 47.9049 150.8 47.9049 150.288C47.9049 149.2 47.2969 148.656 46.0809 148.656H44.3049V151.904H46.0809ZM61.3513 158H59.1113L54.0393 150.336V158H51.7993V146.816H54.0393L59.1113 154.496V146.816H61.3513V158ZM73.5969 146.832L69.5009 158H66.7809L62.6849 146.832H65.0849L68.1569 155.712L71.2129 146.832H73.5969ZM81.4519 146.832V154.672C81.4519 155.76 81.1373 156.608 80.5079 157.216C79.8786 157.813 79.0359 158.112 77.9799 158.112C76.9133 158.112 76.0493 157.803 75.3879 157.184C74.7373 156.565 74.4119 155.701 74.4119 154.592H76.6519C76.6626 155.072 76.7746 155.445 76.9879 155.712C77.2119 155.979 77.5319 156.112 77.9479 156.112C78.3533 156.112 78.6626 155.984 78.8759 155.728C79.0893 155.472 79.1959 155.12 79.1959 154.672V146.832H81.4519ZM91.6649 146.832V148.64H88.6889V158H86.4489V148.64H83.4729V146.832H91.6649Z" fill="white"/>
<defs>
<linearGradient id="paint0_linear_1_1409" x1="61" y1="0" x2="61" y2="50" gradientUnits="userSpaceOnUse">
<stop stop-color="#FFB733"/>
<stop offset="0.645069" stop-color="#FDEE00"/>
</linearGradient>
<linearGradient id="paint1_linear_1_1409" x1="49" y1="91" x2="49" y2="101" gradientUnits="userSpaceOnUse">
<stop stop-color="#FFB733"/>
<stop offset="0.645069" stop-color="#FDEE00"/>
</linearGradient>
<linearGradient id="paint2_linear_1_1409" x1="74" y1="91" x2="74" y2="101" gradientUnits="userSpaceOnUse">
<stop stop-color="#FFB733"/>
<stop offset="0.645069" stop-color="#FDEE00"/>
</linearGradient>
<linearGradient id="paint3_linear_1_1409" x1="32.25" y1="56" x2="32.25" y2="84" gradientUnits="userSpaceOnUse">
<stop stop-color="#FFB733"/>
<stop offset="0.645069" stop-color="#FDEE00"/>
</linearGradient>
</defs>
</svg>
