<svg width="375" height="276" viewBox="0 0 375 276" fill="none" xmlns="http://www.w3.org/2000/svg">
<path d="M152.209 -142.881C101.848 -157.446 31.1142 -188.196 5.79102 -137.264C-21.9122 -81.2865 27.1158 -28.6409 59.1031 12.7711C81.0943 44.1871 73.2879 71.0335 44.1566 101.688C-20.9602 169.946 8.36142 261.338 104.228 262.861C146.021 262.861 184.767 243.06 221.61 223.258C292.248 185.178 335.85 213.262 381.831 180.228C412.676 158.237 390.875 102.069 378.118 68.2727C367.237 40.0106 366.531 8.84407 376.119 -19.8825C385.639 -56.2489 391.732 -115.082 351.558 -133.266C333.279 -140.12 312.24 -132.218 293.2 -138.406C269.59 -146.308 257.786 -174.202 234.652 -183.436C189.622 -201.524 188.48 -133.361 152.209 -142.881Z" stroke="url(#paint0_linear_1_3026)" stroke-width="0.8" stroke-miterlimit="10"/>
<path d="M237.889 -172.488C259.88 -163.92 271.304 -137.74 293.771 -130.219C311.383 -124.317 331.851 -132.028 348.797 -124.983C386.877 -108.99 383.354 -51.6794 373.073 -17.5026C364.828 10.0359 365.595 39.4879 375.262 66.559C387.162 98.927 407.154 152.239 377.833 173.373C333.85 205.17 292.153 179.561 225.513 215.071C190.574 233.54 153.732 252.294 114.319 251.628C23.8793 250.295 -4.01431 163.663 56.152 99.3078C83.1888 70.2718 91.0904 44.3774 69.956 14.9606C41.3961 -25.1186 -5.44231 -74.4322 20.9281 -127.268C44.7281 -175.915 111.368 -147.641 159.063 -134.694C193.335 -125.364 194.954 -189.434 237.889 -172.488Z" stroke="url(#paint1_linear_1_3026)" stroke-width="0.784" stroke-miterlimit="10"/>
<path d="M240.65 -161.921C261.498 -153.829 272.732 -129.553 293.962 -122.413C310.622 -116.796 329.757 -123.841 346.036 -117.081C382.498 -101.374 378.88 -47.6809 370.026 -15.1225C362.65 10.9927 363.481 38.7435 372.406 64.3695C383.45 95.4047 401.728 145.765 373.93 166.138C332.327 196.602 292.629 173.564 228.94 206.408C195.906 223.639 161.158 240.87 124.22 240.013C39.0163 237.919 12.3603 156.999 67.8616 95.9759C92.804 68.5583 100.039 43.9967 80.3328 16.2935C53.3915 -21.7865 10.6467 -68.4346 35.5891 -118.224C58.4368 -163.634 121.269 -137.93 166.013 -126.221C198 -117.653 200.285 -177.153 240.65 -161.921Z" stroke="url(#paint2_linear_1_3026)" stroke-width="0.752" stroke-miterlimit="10"/>
<path d="M243.411 -150.592C263.212 -142.88 274.16 -120.604 294.152 -113.844C309.86 -108.608 327.948 -114.892 343.275 -108.418C377.547 -93.7568 375.263 -43.4912 366.98 -12.6464C360.423 12.0542 361.25 38.1352 369.36 62.3712C379.737 92.0736 396.111 139.578 369.931 159.094C330.709 188.321 292.819 167.662 232.558 198.031C201.332 213.834 168.679 229.638 133.74 228.59C54.248 226.401 29.02 150.526 79.6665 93.0256C102.515 67.3216 108.988 44.188 90.9001 18.008C66.0529 -18.0728 26.64 -62.0552 50.5352 -108.799C72.0505 -151.353 130.503 -127.839 172.963 -117.652C203.236 -110.036 205.521 -164.872 243.411 -150.592Z" stroke="url(#paint3_linear_1_3026)" stroke-width="0.736" stroke-miterlimit="10"/>
<path d="M246.171 -139.643C265.211 -132.789 275.398 -112.035 294.342 -105.752C309.194 -100.706 326.044 -106.228 340.419 -100.135C372.692 -86.236 371.169 -39.3976 363.934 -10.2664C358.234 13.1014 359.157 37.5945 366.599 60.4672C376.119 89.0272 390.78 133.295 366.123 152.05C329.186 179.943 293.105 161.57 236.366 190.13C207.044 204.6 176.294 218.69 143.641 217.642C69.6704 214.596 45.6797 144.148 91.5664 90.1696C112.32 66.084 118.222 44.3784 101.658 19.7216C78.7144 -14.36 43.2997 -55.6768 65.4816 -99.2784C85.7592 -139.072 140.118 -118.318 179.722 -108.798C208.186 -102.42 210.852 -152.4 246.171 -139.643Z" stroke="url(#paint4_linear_1_3026)" stroke-width="0.72" stroke-miterlimit="10"/>
<path d="M249.027 -128.696C266.639 -122.412 276.73 -103.562 294.533 -97.5648C308.432 -92.8048 324.235 -97.5648 337.658 -91.7576C367.837 -78.62 367.17 -35.304 360.887 -7.8864C355.962 14.1914 356.948 37.1775 363.743 58.7536C372.406 85.6952 385.258 127.298 362.125 145.29C327.662 171.28 293.2 155.762 240.078 180.8C212.566 193.938 183.91 206.79 153.542 205.457C84.9975 202.315 61.8639 137.198 103.466 86.9328C122.506 64.4656 127.266 44.188 112.32 21.1496C91.3759 -11.028 59.5791 -49.6792 80.4279 -90.1392C99.4679 -127.268 149.638 -109.18 186.766 -100.992C213.137 -94.7088 216.183 -140.5 249.027 -128.696Z" stroke="url(#paint5_linear_1_3026)" stroke-width="0.688" stroke-miterlimit="10"/>
<path d="M251.788 -117.747C268.257 -112.035 278.158 -94.9944 294.723 -89.1872C307.765 -84.808 322.426 -89.1872 334.897 -83.2848C362.886 -70.8136 363.457 -30.9248 357.841 -5.31599C353.751 15.4062 354.797 36.8148 360.887 57.04C368.693 82.5536 379.927 121.3 358.221 138.436C326.139 163.759 293.485 150.336 243.981 173.279C218.373 185.084 191.717 196.318 163.633 194.89C100.61 191.272 78.619 131.582 116.033 84.9336C132.502 63.9896 137.072 45.2352 123.553 23.72C104.513 -6.36319 76.6198 -42.444 95.9454 -79.8576C113.748 -114.13 159.92 -98.8976 194.382 -91.5672C218.087 -87.0928 221.514 -128.219 251.788 -117.747Z" stroke="url(#paint6_linear_1_3026)" stroke-width="0.672" stroke-miterlimit="10"/>
<path d="M254.549 -106.8C269.971 -101.659 279.491 -86.4273 294.913 -81.1913C307.004 -77.0977 320.522 -80.5249 332.137 -75.1937C358.031 -63.3889 359.078 -27.0226 354.794 -3.12736C351.581 16.1059 352.687 35.8113 358.031 54.5638C364.981 78.8398 374.31 114.54 354.318 130.724C324.616 154.714 293.771 143.766 247.409 164.234C223.609 174.706 199.047 184.512 173.248 182.798C116.128 178.895 94.8982 124.441 127.171 81.4102C141.641 62.3702 145.449 44.663 133.549 24.7662C116.699 -3.31776 92.2326 -36.733 110.225 -71.0049C126.79 -102.516 168.773 -90.045 200.665 -83.7618C223.037 -79.3826 226.56 -116.034 254.549 -106.8Z" stroke="url(#paint7_linear_1_3026)" stroke-width="0.64" stroke-miterlimit="10"/>
<path d="M257.405 -95.8502C271.685 -91.2806 280.824 -77.8574 295.485 -73.0022C306.718 -69.1942 319.094 -71.955 329.757 -66.9094C353.557 -55.8662 355.365 -22.927 352.129 -0.26943C349.706 17.552 350.871 35.6781 355.556 53.0426C361.649 75.8906 369.265 108.735 350.796 124.252C323.473 147.005 294.342 138.437 251.502 156.335C229.511 165.855 206.949 173.851 183.434 171.947C131.36 167.663 111.749 118.54 139.452 79.0322C151.733 61.4202 154.969 45.4266 144.593 27.1482C129.837 0.968162 108.893 -29.9718 125.553 -60.9118C140.785 -89.4718 178.769 -79.2854 207.901 -74.6206C227.988 -71.7646 232.081 -103.847 257.405 -95.8502Z" stroke="url(#paint8_linear_1_3026)" stroke-width="0.624" stroke-miterlimit="10"/>
<path d="M260.166 -84.9022C273.399 -80.9038 282.157 -69.2894 295.295 -64.9102C305.576 -61.3878 316.81 -63.2918 326.52 -58.627C348.226 -48.2502 350.891 -18.8334 348.702 1.72976C347.083 18.1222 348.273 34.6709 352.224 50.6626C357.555 72.1778 363.458 102.166 346.512 117.303C321.76 138.342 294.152 132.249 255.12 147.576C235.802 156.573 214.633 160.878 193.335 160.143C146.687 155.383 128.314 111.686 151.257 75.7954C156.551 69.1438 159.756 61.0727 160.468 52.6008C161.18 44.1299 159.365 35.6371 155.255 28.1954C142.499 4.01456 125.267 -23.9742 140.404 -52.1534C154.494 -78.0478 188.004 -70.2414 214.851 -66.8142C232.843 -64.0534 237.413 -91.6614 260.166 -84.9022Z" stroke="url(#paint9_linear_1_3026)" stroke-width="0.608" stroke-miterlimit="10"/>
<path d="M262.926 -73.9562C275.112 -70.6242 283.585 -60.8186 295.485 -56.725C305.005 -53.4882 314.525 -54.7258 324.045 -50.3466C343.656 -40.8266 347.083 -14.7418 345.941 4.10784C345.16 19.0904 346.409 34.1092 349.653 48.7566C354.128 68.8438 358.221 95.8807 342.799 109.78C320.332 129.962 295.199 126.345 258.737 139.197C241.164 146.652 222.097 149.911 203.045 148.717C161.919 143.576 144.688 105.305 163.061 72.5566C167.269 66.3163 169.742 59.0687 170.227 51.5584C170.713 44.0471 169.192 36.5425 165.822 29.8118C155.065 7.63025 141.451 -17.7882 155.255 -42.7306C168.107 -65.8642 197.809 -60.6282 221.895 -58.3434C237.793 -56.4394 242.744 -79.4778 262.926 -73.9562Z" stroke="url(#paint10_linear_1_3026)" stroke-width="0.576" stroke-miterlimit="10"/>
<path d="M265.687 -63.0072C276.826 -60.2464 284.727 -52.2496 295.675 -48.5368C304.263 -46.9974 312.727 -44.8345 320.999 -42.0632C338.42 -33.1144 342.704 -10.6472 342.609 6.4888C342.62 20.0062 343.927 33.4913 346.512 46.7584C350.13 65.7984 352.51 89.6936 338.611 102.641C318.523 121.681 294.628 120.443 262.451 131.201C246.674 137.169 229.734 139.417 212.947 137.77C205.349 137.162 198.015 134.702 191.588 130.605C185.161 126.507 179.836 120.897 176.078 114.266C172.321 107.634 170.246 100.182 170.034 92.5629C169.824 84.9431 171.482 77.388 174.867 70.5584C178.006 64.7445 179.767 58.2871 180.015 51.685C180.263 45.0829 178.99 38.5112 176.295 32.4784C167.631 12.2008 157.255 -10.4568 170.107 -32.3528C181.626 -52.7256 207.235 -50.06 228.464 -49.0128C242.744 -48.7272 248.075 -67.3864 265.687 -63.0072Z" stroke="url(#paint11_linear_1_3026)" stroke-width="0.56" stroke-miterlimit="10"/>
<path d="M268.543 -52.0592C277.895 -48.752 287.021 -44.8402 295.865 -40.3496C303.499 -38.8112 310.984 -36.613 318.237 -33.7808C333.565 -25.4984 338.61 -6.5536 339.562 8.8688C340.229 20.4832 341.847 33.1448 343.656 44.8544C346.417 62.276 346.988 83.4104 334.707 95.596C317 113.303 294.913 114.636 265.782 122.347C251.835 126.814 237.048 128.019 222.561 125.87C216.023 125.009 209.758 122.701 204.223 119.114C198.689 115.527 194.023 110.751 190.568 105.133C187.112 99.5163 184.952 93.1989 184.244 86.6415C183.537 80.0841 184.301 73.4515 186.481 67.2264C190.623 56.4402 190.623 44.5031 186.481 33.716C179.912 15.4376 173.533 -4.36402 184.577 -23.404C195.62 -42.444 216.278 -41.3016 234.937 -40.9208C247.694 -40.7304 253.406 -55.296 268.543 -52.0592Z" stroke="url(#paint12_linear_1_3026)" stroke-width="0.544" stroke-miterlimit="10"/>
<path d="M271.304 -41.1121C279.796 -38.8426 288.076 -35.8485 296.056 -32.1633C302.609 -30.5792 308.986 -28.3468 315.096 -25.4993C321.115 -21.301 326.124 -15.8185 329.763 -9.44577C333.401 -3.07403 335.578 4.02694 336.135 11.3431C337.563 21.3391 339.182 32.3822 340.419 42.8542C342.228 58.943 341.086 77.1263 330.899 88.5503C315.382 104.639 295.104 108.733 269.495 114.159C257.309 117.074 244.625 117.236 232.367 114.635C221.158 112.465 211.259 105.956 204.823 96.5252C198.387 87.0946 195.935 75.504 198 64.2742C199.958 54.8142 199.633 45.0229 197.048 35.7142C192.574 19.3398 189.718 2.10867 199.333 -13.5993C208.948 -29.3073 226.56 -30.9257 242.173 -32.4489C252.55 -33.4009 258.833 -43.2065 271.304 -41.1121Z" stroke="url(#paint13_linear_1_3026)" stroke-width="0.512" stroke-miterlimit="10"/>
<path d="M274.16 -30.1623C281.766 -29.0075 289.212 -26.9626 296.342 -24.0695C301.858 -22.3273 307.185 -20.0311 312.24 -17.2151C322.845 -9.90275 330.294 1.14997 333.089 13.7249C335.38 22.6185 336.878 31.6987 337.563 40.8569C339.267 55.3397 335.274 69.9168 326.425 81.5074C312.332 96.1339 293.123 104.732 272.827 105.498C262.458 106.993 251.886 106.147 241.887 103.023C232.905 100.251 225.004 94.7611 219.275 87.3098C213.546 79.8585 210.27 70.8126 209.9 61.4201C209.704 53.3205 208.972 45.2428 207.71 37.2393C204.461 23.0431 206.814 8.14147 214.279 -4.36305C218.41 -9.77232 223.593 -14.2896 229.515 -17.6435C235.437 -20.9974 241.978 -23.1184 248.742 -23.8791C257.5 -25.5927 264.64 -31.1143 274.16 -30.1623Z" stroke="url(#paint14_linear_1_3026)" stroke-width="0.496" stroke-miterlimit="10"/>
<path d="M276.921 97.1192C309.046 97.1192 335.088 71.0772 335.088 38.952C335.088 6.82676 309.046 -19.2152 276.921 -19.2152C244.795 -19.2152 218.753 6.82676 218.753 38.952C218.753 71.0772 244.795 97.1192 276.921 97.1192Z" stroke="url(#paint15_linear_1_3026)" stroke-width="0.464" stroke-miterlimit="10"/>
<defs>
<linearGradient id="paint0_linear_1_3026" x1="737.804" y1="-378.345" x2="-481.596" y2="101.517" gradientUnits="userSpaceOnUse">
<stop stop-color="#58E0AA"/>
<stop offset="0.380503" stop-color="#8FEAC6"/>
<stop offset="0.715503" stop-color="#68ADFC"/>
<stop offset="1" stop-color="#1D84FB"/>
</linearGradient>
<linearGradient id="paint1_linear_1_3026" x1="716.212" y1="-357.648" x2="-442.154" y2="98.0125" gradientUnits="userSpaceOnUse">
<stop stop-color="#58E0AA"/>
<stop offset="0.380503" stop-color="#8FEAC6"/>
<stop offset="0.715503" stop-color="#68ADFC"/>
<stop offset="1" stop-color="#1D84FB"/>
</linearGradient>
<linearGradient id="paint2_linear_1_3026" x1="695.286" y1="-337.101" x2="-403.485" y2="95.9367" gradientUnits="userSpaceOnUse">
<stop stop-color="#58E0AA"/>
<stop offset="0.380503" stop-color="#8FEAC6"/>
<stop offset="0.715503" stop-color="#68ADFC"/>
<stop offset="1" stop-color="#1D84FB"/>
</linearGradient>
<linearGradient id="paint3_linear_1_3026" x1="674.023" y1="-315.892" x2="-364.307" y2="94.2155" gradientUnits="userSpaceOnUse">
<stop stop-color="#58E0AA"/>
<stop offset="0.380503" stop-color="#8FEAC6"/>
<stop offset="0.715503" stop-color="#68ADFC"/>
<stop offset="1" stop-color="#1D84FB"/>
</linearGradient>
<linearGradient id="paint4_linear_1_3026" x1="652.948" y1="-295.183" x2="-325.347" y2="91.3865" gradientUnits="userSpaceOnUse">
<stop stop-color="#58E0AA"/>
<stop offset="0.380503" stop-color="#8FEAC6"/>
<stop offset="0.715503" stop-color="#68ADFC"/>
<stop offset="1" stop-color="#1D84FB"/>
</linearGradient>
<linearGradient id="paint5_linear_1_3026" x1="631.751" y1="-274.178" x2="-285.784" y2="89.7256" gradientUnits="userSpaceOnUse">
<stop stop-color="#58E0AA"/>
<stop offset="0.380503" stop-color="#8FEAC6"/>
<stop offset="0.715503" stop-color="#68ADFC"/>
<stop offset="1" stop-color="#1D84FB"/>
</linearGradient>
<linearGradient id="paint6_linear_1_3026" x1="610.243" y1="-253.713" x2="-246.521" y2="85.2889" gradientUnits="userSpaceOnUse">
<stop stop-color="#58E0AA"/>
<stop offset="0.380503" stop-color="#8FEAC6"/>
<stop offset="0.715503" stop-color="#68ADFC"/>
<stop offset="1" stop-color="#1D84FB"/>
</linearGradient>
<linearGradient id="paint7_linear_1_3026" x1="589.661" y1="-232.654" x2="-207.913" y2="85.0991" gradientUnits="userSpaceOnUse">
<stop stop-color="#58E0AA"/>
<stop offset="0.380503" stop-color="#8FEAC6"/>
<stop offset="0.715503" stop-color="#68ADFC"/>
<stop offset="1" stop-color="#1D84FB"/>
</linearGradient>
<linearGradient id="paint8_linear_1_3026" x1="569.131" y1="-212.129" x2="-169.037" y2="82.3043" gradientUnits="userSpaceOnUse">
<stop stop-color="#58E0AA"/>
<stop offset="0.380503" stop-color="#8FEAC6"/>
<stop offset="0.715503" stop-color="#68ADFC"/>
<stop offset="1" stop-color="#1D84FB"/>
</linearGradient>
<linearGradient id="paint9_linear_1_3026" x1="547.616" y1="-191.074" x2="-129.539" y2="80.3943" gradientUnits="userSpaceOnUse">
<stop stop-color="#58E0AA"/>
<stop offset="0.380503" stop-color="#8FEAC6"/>
<stop offset="0.715503" stop-color="#68ADFC"/>
<stop offset="1" stop-color="#1D84FB"/>
</linearGradient>
<linearGradient id="paint10_linear_1_3026" x1="527.522" y1="-170.343" x2="-91.0405" y2="79.3604" gradientUnits="userSpaceOnUse">
<stop stop-color="#58E0AA"/>
<stop offset="0.380503" stop-color="#8FEAC6"/>
<stop offset="0.715503" stop-color="#68ADFC"/>
<stop offset="1" stop-color="#1D84FB"/>
</linearGradient>
<linearGradient id="paint11_linear_1_3026" x1="506.87" y1="-149.895" x2="-53.2227" y2="77.2212" gradientUnits="userSpaceOnUse">
<stop stop-color="#58E0AA"/>
<stop offset="0.380503" stop-color="#8FEAC6"/>
<stop offset="0.715503" stop-color="#68ADFC"/>
<stop offset="1" stop-color="#1D84FB"/>
</linearGradient>
<linearGradient id="paint12_linear_1_3026" x1="487.109" y1="-129.131" x2="-15.1259" y2="77.1807" gradientUnits="userSpaceOnUse">
<stop stop-color="#58E0AA"/>
<stop offset="0.380503" stop-color="#8FEAC6"/>
<stop offset="0.715503" stop-color="#68ADFC"/>
<stop offset="1" stop-color="#1D84FB"/>
</linearGradient>
<linearGradient id="paint13_linear_1_3026" x1="467.216" y1="-108.804" x2="22.0352" y2="75.9921" gradientUnits="userSpaceOnUse">
<stop stop-color="#58E0AA"/>
<stop offset="0.380503" stop-color="#8FEAC6"/>
<stop offset="0.715503" stop-color="#68ADFC"/>
<stop offset="1" stop-color="#1D84FB"/>
</linearGradient>
<linearGradient id="paint14_linear_1_3026" x1="449.95" y1="-88.5399" x2="57.7171" y2="78.7522" gradientUnits="userSpaceOnUse">
<stop stop-color="#58E0AA"/>
<stop offset="0.380503" stop-color="#8FEAC6"/>
<stop offset="0.715503" stop-color="#68ADFC"/>
<stop offset="1" stop-color="#1D84FB"/>
</linearGradient>
<linearGradient id="paint15_linear_1_3026" x1="434.05" y1="-68.8796" x2="91.4185" y2="82.6114" gradientUnits="userSpaceOnUse">
<stop stop-color="#58E0AA"/>
<stop offset="0.380503" stop-color="#8FEAC6"/>
<stop offset="0.715503" stop-color="#68ADFC"/>
<stop offset="1" stop-color="#1D84FB"/>
</linearGradient>
</defs>
</svg>
