<svg width="46" height="45" viewBox="0 0 46 45" fill="none" xmlns="http://www.w3.org/2000/svg">
<rect x="0.5" width="45" height="45" rx="6" fill="#E1E6FF"/>
<g clip-path="url(#clip0_21_498)">
<path d="M19.7854 11.8489C19.8392 11.8487 19.8929 11.8485 19.9483 11.8482C20.0376 11.8483 20.0376 11.8483 20.1288 11.8483C20.2231 11.848 20.2231 11.848 20.3193 11.8477C20.4945 11.8472 20.6696 11.8471 20.8447 11.8469C21.0334 11.8467 21.2221 11.8463 21.4107 11.8458C21.8666 11.8449 22.3226 11.8444 22.7785 11.8439C22.993 11.8437 23.2076 11.8435 23.4222 11.8432C24.1353 11.8424 24.8483 11.8417 25.5614 11.8413C25.7465 11.8412 25.9317 11.8411 26.1168 11.841C26.1628 11.841 26.2088 11.841 26.2562 11.841C27.0018 11.8406 27.7474 11.8393 28.493 11.8377C29.2581 11.8361 30.0232 11.8352 30.7882 11.8351C31.218 11.835 31.6477 11.8346 32.0774 11.8333C32.4433 11.8323 32.8093 11.8319 33.1752 11.8323C33.362 11.8326 33.5487 11.8325 33.7354 11.8315C33.9378 11.8305 34.1402 11.831 34.3426 11.8316C34.4017 11.8311 34.4608 11.8306 34.5217 11.83C34.8299 11.8324 35.0236 11.8399 35.2559 12.0508C35.4158 12.2323 35.5052 12.3474 35.5094 12.5888C35.5102 12.6292 35.511 12.6696 35.5118 12.7113C35.514 12.896 35.516 13.0807 35.5171 13.2654C35.5179 13.3629 35.5193 13.4603 35.5211 13.5578C35.5238 13.6982 35.5249 13.8386 35.5256 13.9791C35.5267 14.0226 35.5278 14.0662 35.5289 14.111C35.5279 14.4119 35.5279 14.4119 35.3874 14.5702C35.2081 14.6635 35.1063 14.6432 34.9141 14.5898C34.4514 14.1272 34.7365 13.2908 34.7188 12.6367C29.7881 12.6367 24.8575 12.6367 19.7774 12.6367C19.7613 13.2812 19.7451 13.9258 19.7285 14.5898C20.0494 14.5876 20.3703 14.5853 20.7009 14.583C20.9043 14.582 21.1077 14.581 21.3111 14.5803C21.6338 14.5791 21.9566 14.5777 22.2794 14.5751C22.5396 14.573 22.7998 14.5718 23.0601 14.5713C23.1593 14.5709 23.2586 14.5702 23.3578 14.5692C23.4969 14.5678 23.636 14.5676 23.7751 14.5677C23.8365 14.5666 23.8365 14.5666 23.8992 14.5655C24.1601 14.5674 24.3062 14.613 24.5137 14.7851C24.694 14.9898 24.7642 15.1008 24.7626 15.3715C24.7625 15.4196 24.7623 15.4678 24.7621 15.5174C24.7617 15.5678 24.7613 15.6182 24.7609 15.6702C24.7607 15.7209 24.7605 15.7717 24.7602 15.8241C24.7597 15.9498 24.7588 16.0755 24.7578 16.2012C24.7996 16.2007 24.8414 16.2003 24.8844 16.1998C25.2781 16.1959 25.6718 16.193 26.0656 16.191C26.268 16.19 26.4704 16.1886 26.6728 16.1864C26.8681 16.1843 27.0635 16.1831 27.2588 16.1826C27.3333 16.1823 27.4079 16.1816 27.4824 16.1805C27.5868 16.1791 27.6911 16.1789 27.7955 16.179C27.855 16.1786 27.9144 16.1781 27.9756 16.1777C28.1572 16.2058 28.2144 16.25 28.3223 16.3965C28.3498 16.5643 28.3498 16.5643 28.3223 16.7383C28.1969 16.898 28.1247 16.9736 27.9227 17.0118C27.8643 17.0112 27.8059 17.0107 27.7456 17.0101C27.7132 17.0102 27.6808 17.0102 27.6474 17.0102C27.5409 17.0101 27.4345 17.0082 27.328 17.0063C27.2539 17.0058 27.1798 17.0054 27.1057 17.0052C26.9112 17.0043 26.7167 17.0019 26.5222 16.9992C26.3236 16.9967 26.1249 16.9956 25.9262 16.9943C25.5367 16.9917 25.1473 16.9874 24.7578 16.9824C24.7578 17.2241 24.7578 17.4658 24.7578 17.7148C24.8602 17.7137 24.8602 17.7137 24.9646 17.7125C25.2181 17.7099 25.4715 17.7082 25.7249 17.7068C25.8346 17.706 25.9442 17.705 26.0539 17.7038C26.2115 17.702 26.3692 17.7012 26.5269 17.7005C26.5758 17.6998 26.6248 17.699 26.6752 17.6982C27.1061 17.6981 27.1061 17.6981 27.2969 17.8613C27.3946 18.0078 27.3946 18.0078 27.3854 18.1787C27.3351 18.3954 27.3351 18.3954 27.1992 18.4961C27.0889 18.5137 27.0889 18.5137 26.9585 18.5127C26.8852 18.5127 26.8852 18.5127 26.8104 18.5127C26.7578 18.5119 26.7051 18.5112 26.6509 18.5104C26.5969 18.5102 26.5429 18.51 26.4873 18.5098C26.3147 18.5089 26.142 18.5071 25.9694 18.5052C25.8524 18.5045 25.7355 18.5038 25.6185 18.5032C25.3316 18.5016 25.0447 18.4991 24.7578 18.4961C24.7578 18.7539 24.7578 19.0117 24.7578 19.2773C24.8308 19.2763 24.9037 19.2753 24.9789 19.2742C25.2493 19.2707 25.5197 19.2685 25.7902 19.2666C25.9073 19.2656 26.0244 19.2643 26.1414 19.2626C26.3097 19.2602 26.4779 19.2591 26.6461 19.2583C26.7247 19.2567 26.7247 19.2567 26.8049 19.2552C26.8782 19.2552 26.8782 19.2552 26.953 19.2552C26.9959 19.2547 27.0388 19.2543 27.0831 19.2538C27.2393 19.2854 27.2972 19.3489 27.3946 19.4726C27.428 19.6772 27.4224 19.7735 27.305 19.9459C27.0767 20.1123 26.8787 20.0892 26.6032 20.0824C26.5241 20.0819 26.5241 20.0819 26.4433 20.0814C26.2751 20.08 26.107 20.0769 25.9389 20.0738C25.8247 20.0726 25.7106 20.0715 25.5964 20.0705C25.3168 20.068 25.0374 20.0632 24.7578 20.0586C24.7578 20.7192 24.7578 21.3799 24.7578 22.0605C24.9121 22.0595 25.0664 22.0585 25.2254 22.0574C25.7346 22.0542 26.2439 22.052 26.7531 22.0504C27.062 22.0494 27.3708 22.048 27.6796 22.0458C27.9775 22.0437 28.2754 22.0425 28.5733 22.042C28.6871 22.0416 28.8009 22.0409 28.9147 22.0399C29.0738 22.0385 29.2329 22.0383 29.392 22.0384C29.4392 22.0377 29.4865 22.037 29.5351 22.0362C29.8544 22.0382 29.8544 22.0382 30.0115 22.1535C30.0851 22.2632 30.1078 22.3201 30.1076 22.4512C30.1086 22.4834 30.1097 22.5156 30.1108 22.5488C30.0605 22.7089 29.978 22.7544 29.836 22.8418C29.6713 22.8698 29.5088 22.8665 29.3421 22.864C29.2925 22.864 29.243 22.864 29.1919 22.864C29.0283 22.8639 28.8648 22.8624 28.7013 22.8609C28.5878 22.8605 28.4743 22.8602 28.3608 22.86C28.0622 22.8593 27.7637 22.8574 27.4652 22.8552C27.1069 22.8528 26.7486 22.8519 26.3903 22.8508C25.8461 22.8489 25.302 22.8452 24.7578 22.8418C24.7578 23.9214 24.7578 25.001 24.7578 26.1133C25.0962 26.1133 25.4346 26.1133 25.7832 26.1133C26.2862 26.4007 26.3941 26.723 26.5746 27.2556C26.5927 27.3078 26.6108 27.36 26.6294 27.4138C26.6672 27.5234 26.7048 27.6331 26.7422 27.7428C26.7996 27.9113 26.8578 28.0794 26.9161 28.2475C26.9529 28.3543 26.9896 28.461 27.0263 28.5678C27.0523 28.6434 27.0523 28.6434 27.079 28.7204C27.0948 28.7671 27.1106 28.8137 27.1269 28.8617C27.1409 28.9027 27.1549 28.9437 27.1694 28.986C27.1993 29.0918 27.1992 29.0918 27.1992 29.2383C27.2315 29.2383 27.2637 29.2383 27.2969 29.2383C27.3094 29.1763 27.322 29.1144 27.3349 29.0506C27.3934 28.7882 27.4781 28.5385 27.5681 28.2855C27.5849 28.2381 27.6016 28.1906 27.6189 28.1418C27.6541 28.0421 27.6895 27.9425 27.725 27.843C27.779 27.6911 27.8324 27.539 27.8857 27.3869C27.9202 27.2897 27.9547 27.1925 27.9893 27.0954C28.0129 27.0276 28.0129 27.0276 28.0371 26.9585C28.1592 26.6191 28.2722 26.3356 28.6044 26.154C28.8288 26.0698 29.0662 26.0856 29.303 26.0866C29.3617 26.0861 29.4203 26.0856 29.4807 26.0851C29.6406 26.0839 29.8004 26.0836 29.9603 26.0836C30.1278 26.0835 30.2952 26.0822 30.4626 26.0811C30.7792 26.0791 31.0958 26.0781 31.4124 26.0775C31.7731 26.0767 32.1337 26.0748 32.4943 26.0728C33.2358 26.0688 33.9773 26.0662 34.7188 26.0644C34.7189 26.0036 34.7189 26.0036 34.719 25.9415C34.7208 24.9545 34.7237 23.9675 34.7278 22.9805C34.7297 22.5032 34.7313 22.0259 34.732 21.5486C34.7326 21.1326 34.734 20.7167 34.7361 20.3008C34.7372 20.0805 34.738 19.8602 34.7379 19.6399C34.7379 19.4326 34.7388 19.2253 34.7403 19.018C34.7407 18.9419 34.7408 18.8658 34.7405 18.7896C34.7402 18.6857 34.7411 18.5819 34.7423 18.4781C34.7424 18.4199 34.7426 18.3618 34.7428 18.3019C34.7728 18.1236 34.8189 18.0655 34.9629 17.959C35.1513 17.9321 35.2557 17.9229 35.4115 18.0375C35.5298 18.1936 35.5246 18.2905 35.5248 18.4854C35.5251 18.5186 35.5254 18.5519 35.5258 18.5862C35.5265 18.6976 35.5259 18.8089 35.5253 18.9203C35.5256 19.0002 35.5259 19.0801 35.5263 19.16C35.5272 19.377 35.5269 19.594 35.5263 19.811C35.5258 20.0381 35.5262 20.2652 35.5265 20.4923C35.5269 20.8738 35.5264 21.2553 35.5255 21.6368C35.5244 22.0777 35.5248 22.5186 35.5259 22.9595C35.5267 23.3381 35.5269 23.7166 35.5264 24.0952C35.526 24.3213 35.526 24.5473 35.5267 24.7734C35.5272 24.9861 35.5268 25.1987 35.5257 25.4114C35.5254 25.4894 35.5255 25.5674 35.5259 25.6453C35.5265 25.752 35.5258 25.8585 35.5248 25.9651C35.5247 26.0545 35.5247 26.0545 35.5246 26.1457C35.4877 26.3904 35.3667 26.5395 35.1949 26.7114C34.8589 26.9252 34.4814 26.9082 34.0967 26.9056C34.0123 26.9056 34.0123 26.9056 33.9262 26.9057C33.7413 26.9056 33.5564 26.9048 33.3714 26.9041C33.2428 26.9039 33.1142 26.9037 32.9856 26.9036C32.6823 26.9033 32.379 26.9025 32.0757 26.9016C31.7301 26.9005 31.3846 26.8999 31.0391 26.8994C30.3288 26.8984 29.6185 26.8967 28.9082 26.8945C28.8987 26.9302 28.8892 26.9658 28.8793 27.0025C28.7522 27.4735 28.7522 27.4735 28.6728 27.7022C28.657 27.748 28.6412 27.7938 28.6249 27.841C28.6082 27.8886 28.5916 27.9361 28.5744 27.9851C28.548 28.0614 28.548 28.0614 28.521 28.1392C28.4839 28.246 28.4467 28.3528 28.4095 28.4595C28.3531 28.621 28.2971 28.7826 28.241 28.9442C28.139 29.2379 28.0357 29.5312 27.9317 29.8242C27.9188 29.8608 27.906 29.8974 27.8927 29.9351C27.8609 30.0251 27.8282 30.1148 27.7955 30.2045C27.7789 30.2503 27.7623 30.2961 27.7452 30.3433C27.6789 30.4762 27.605 30.5583 27.4922 30.6543C27.3749 30.6837 27.3749 30.6837 27.2511 30.6848C27.2104 30.6864 27.1697 30.6881 27.1277 30.6898C26.9448 30.6373 26.8596 30.5156 26.7598 30.3613C26.6829 30.1928 26.6246 30.0194 26.5664 29.8437C26.5491 29.7933 26.5319 29.7429 26.5141 29.691C26.4591 29.5301 26.4049 29.369 26.3509 29.2078C26.3149 29.1021 26.279 28.9964 26.2429 28.8908C26.1722 28.6834 26.1019 28.476 26.0318 28.2685C25.9203 27.9396 25.8051 27.6119 25.688 27.2849C25.5879 27.0027 25.5879 27.0027 25.5879 26.8945C25.314 26.8945 25.0401 26.8945 24.7578 26.8945C24.7589 26.9581 24.7599 27.0216 24.7609 27.0871C24.7645 27.3235 24.7667 27.5599 24.7686 27.7963C24.7696 27.8985 24.7709 28.0007 24.7726 28.1029C24.775 28.2501 24.7761 28.3972 24.7769 28.5444C24.7779 28.5899 24.7789 28.6353 24.78 28.6822C24.7801 28.9588 24.7479 29.1167 24.5625 29.3359C24.257 29.6415 23.8605 29.6435 23.4531 29.6445C23.4073 29.645 23.3616 29.6454 23.3144 29.646C23.1643 29.6474 23.0143 29.6483 22.8642 29.6491C22.7597 29.65 22.6552 29.651 22.5506 29.652C22.2764 29.6545 22.0022 29.6564 21.728 29.6582C21.4478 29.6602 21.1676 29.6627 20.8875 29.6651C20.3384 29.6699 19.7893 29.674 19.2403 29.6777C19.1406 29.9565 19.0409 30.2352 18.9413 30.514C18.9075 30.6085 18.8737 30.703 18.8399 30.7975C18.6244 31.3998 18.4099 32.0023 18.2022 32.6073C18.0599 33.0176 18.0599 33.0176 17.8731 33.1445C17.7558 33.1739 17.7558 33.1739 17.632 33.175C17.5913 33.1767 17.5505 33.1783 17.5086 33.18C17.3256 33.1275 17.2403 33.0061 17.1407 32.8516C17.0631 32.6807 17.0043 32.505 16.9455 32.327C16.9282 32.2762 16.9108 32.2254 16.8929 32.173C16.8375 32.0108 16.7831 31.8483 16.7287 31.6858C16.6567 31.4732 16.5844 31.2608 16.5122 31.0483C16.4949 30.9973 16.4776 30.9463 16.4598 30.8937C16.321 30.485 16.1732 30.0803 16.0176 29.6777C15.957 29.6753 15.8964 29.6729 15.8339 29.6705C15.7538 29.6668 15.6736 29.6631 15.5934 29.6594C15.5535 29.6579 15.5137 29.6564 15.4726 29.6548C15.0805 29.6358 15.0805 29.6358 14.8946 29.5312C14.7735 29.3496 14.7743 29.2579 14.7969 29.043C14.8992 28.9079 14.9575 28.8542 15.1255 28.8224C15.1755 28.8222 15.2255 28.8219 15.277 28.8217C15.3321 28.8215 15.3872 28.8212 15.444 28.8209C15.5013 28.8217 15.5587 28.8225 15.6178 28.8232C15.6746 28.8225 15.7314 28.8217 15.79 28.8209C16.1187 28.8224 16.3432 28.8344 16.6035 29.043C16.7962 29.29 16.8884 29.5561 16.9888 29.8507C17.0059 29.8998 17.023 29.9489 17.0405 29.9995C17.0764 30.1028 17.112 30.2062 17.1474 30.3096C17.2017 30.4683 17.2568 30.6267 17.3119 30.785C17.3467 30.8856 17.3814 30.9861 17.4161 31.0867C17.4326 31.1341 17.449 31.1816 17.466 31.2305C17.481 31.2745 17.496 31.3185 17.5115 31.3639C17.5248 31.4025 17.5381 31.4412 17.5518 31.4811C17.5801 31.582 17.5801 31.582 17.5801 31.7285C17.6123 31.7285 17.6446 31.7285 17.6778 31.7285C17.6906 31.666 17.7033 31.6034 17.7165 31.539C17.7725 31.2879 17.8511 31.0485 17.9366 30.8061C17.9599 30.7396 17.9599 30.7396 17.9837 30.6718C18.0164 30.5789 18.0493 30.486 18.0823 30.3931C18.1325 30.2514 18.1817 30.1093 18.2308 29.9673C18.2629 29.8766 18.295 29.7859 18.3272 29.6953C18.3417 29.6531 18.3561 29.6108 18.371 29.5673C18.5011 29.2077 18.6632 29.0474 18.9961 28.8476C21.4615 28.8235 21.4615 28.8235 23.9766 28.7988C23.9766 24.3677 23.9766 19.9365 23.9766 15.3711C19.7871 15.3711 15.5977 15.3711 11.2813 15.3711C11.2813 19.8022 11.2813 24.2334 11.2813 28.7988C12.1192 28.8149 12.9571 28.831 13.8203 28.8476C14.0157 29.043 14.0157 29.043 14.0401 29.2139C14.0157 29.3848 14.0157 29.3848 13.9272 29.5007C13.7679 29.619 13.6408 29.6351 13.4483 29.636C13.3798 29.6365 13.3798 29.6365 13.3099 29.6369C13.236 29.637 13.236 29.637 13.1606 29.6371C13.0843 29.6373 13.0843 29.6373 13.0064 29.6376C12.8986 29.6378 12.7907 29.638 12.6829 29.6379C12.5187 29.6381 12.3546 29.6389 12.1904 29.6399C12.0855 29.64 11.9807 29.6401 11.8758 29.6401C11.827 29.6405 11.7782 29.6409 11.728 29.6412C11.3837 29.6401 11.0173 29.6374 10.7503 29.3909C10.7232 29.3668 10.6961 29.3428 10.6683 29.318C10.5247 29.1558 10.4878 29.0167 10.4875 28.8024C10.4872 28.7537 10.4868 28.705 10.4865 28.6549C10.4867 28.5748 10.4867 28.5748 10.487 28.4931C10.4868 28.4363 10.4865 28.3796 10.4863 28.3211C10.4858 28.1634 10.4857 28.0057 10.4858 27.8481C10.4859 27.6781 10.4853 27.508 10.4849 27.338C10.484 27.0049 10.4838 26.6718 10.4837 26.3387C10.4837 26.0679 10.4835 25.7972 10.4832 25.5265C10.4823 24.759 10.4819 23.9916 10.4819 23.2241C10.4819 23.1828 10.4819 23.1414 10.4819 23.0988C10.4819 23.0573 10.4819 23.0159 10.4819 22.9732C10.482 22.3017 10.4811 21.6301 10.4797 20.9586C10.4783 20.2692 10.4776 19.5798 10.4777 18.8904C10.4777 18.5033 10.4774 18.1162 10.4764 17.7291C10.4755 17.3996 10.4753 17.07 10.476 16.7404C10.4763 16.5723 10.4763 16.4041 10.4754 16.236C10.4747 16.0537 10.4751 15.8715 10.4759 15.6892C10.4754 15.636 10.4749 15.5828 10.4744 15.5281C10.4771 15.2318 10.4972 15.0592 10.6953 14.834C10.9279 14.6291 11.043 14.5837 11.351 14.584C11.3999 14.5839 11.3999 14.5839 11.4498 14.5838C11.5595 14.5838 11.6692 14.584 11.7788 14.5843C11.8573 14.5843 11.9357 14.5843 12.0141 14.5843C12.2275 14.5843 12.4408 14.5845 12.6542 14.5849C12.877 14.5852 13.0998 14.5852 13.3226 14.5853C13.7447 14.5854 14.1668 14.5858 14.589 14.5863C15.0694 14.5869 15.5499 14.5871 16.0304 14.5874C17.019 14.5879 18.0076 14.5887 18.9961 14.5898C18.9957 14.563 18.9953 14.5361 18.9948 14.5084C18.9905 14.228 18.9875 13.9476 18.9854 13.6672C18.9844 13.5626 18.9831 13.458 18.9814 13.3534C18.979 13.2029 18.9779 13.0524 18.9771 12.9018C18.9755 12.832 18.9755 12.832 18.974 12.7608C18.9739 12.4819 19.0026 12.3195 19.1914 12.0996C19.3991 11.9166 19.5109 11.8494 19.7854 11.8489Z" fill="#7289FF"/>
<path d="M15.2145 23.9947C15.2589 23.9942 15.3033 23.9938 15.349 23.9933C15.4214 23.9936 15.4214 23.9936 15.4953 23.9939C15.5465 23.9936 15.5976 23.9933 15.6503 23.9929C15.8195 23.992 15.9887 23.9922 16.1579 23.9925C16.2754 23.9923 16.3929 23.992 16.5104 23.9917C16.7567 23.9913 17.0029 23.9914 17.2492 23.9919C17.5651 23.9924 17.881 23.9915 18.197 23.99C18.4396 23.9891 18.6822 23.9891 18.9248 23.9894C19.0413 23.9894 19.1578 23.9891 19.2743 23.9885C19.437 23.9878 19.5997 23.9883 19.7624 23.9892C19.8107 23.9887 19.859 23.9882 19.9088 23.9877C20.235 23.9913 20.235 23.9913 20.393 24.1067C20.4658 24.2164 20.4886 24.2737 20.4884 24.4043C20.4894 24.4365 20.4905 24.4687 20.4916 24.5019C20.4412 24.6623 20.3591 24.7074 20.2168 24.7949C20.0502 24.8235 19.8857 24.8206 19.717 24.8186C19.6417 24.8189 19.6417 24.8189 19.5649 24.8192C19.3991 24.8196 19.2334 24.8185 19.0676 24.8174C18.9524 24.8173 18.8371 24.8173 18.7219 24.8173C18.4805 24.8171 18.2391 24.8163 17.9977 24.815C17.6881 24.8133 17.3785 24.813 17.0689 24.8131C16.831 24.813 16.5931 24.8125 16.3553 24.8118C16.2411 24.8115 16.1269 24.8113 16.0127 24.8112C15.8533 24.811 15.6938 24.8101 15.5344 24.8091C15.4871 24.8091 15.4398 24.8092 15.391 24.8092C15.3258 24.8086 15.3258 24.8086 15.2593 24.808C15.2217 24.8078 15.184 24.8076 15.1452 24.8075C15.0261 24.7931 14.9479 24.759 14.8457 24.6973C14.744 24.5666 14.7482 24.4962 14.7541 24.328C14.7968 24.1601 14.7968 24.1601 14.8833 24.0776C15.0061 24.0055 15.0732 23.9952 15.2145 23.9947Z" fill="#7289FF"/>
<path d="M15.2896 18.129C15.3241 18.1287 15.3586 18.1284 15.3941 18.128C15.5078 18.1271 15.6215 18.1277 15.7353 18.1284C15.8144 18.1282 15.8936 18.128 15.9728 18.1278C16.1386 18.1275 16.3044 18.1279 16.4702 18.1288C16.6827 18.13 16.8951 18.1293 17.1076 18.1281C17.2711 18.1274 17.4345 18.1277 17.598 18.1282C17.6763 18.1283 17.7546 18.1281 17.833 18.1277C17.9425 18.1272 18.052 18.1279 18.1615 18.129C18.2238 18.1292 18.2861 18.1293 18.3503 18.1295C18.5354 18.1587 18.5937 18.1997 18.7031 18.3496C18.7306 18.5175 18.7306 18.5175 18.7031 18.6914C18.5765 18.8533 18.5036 18.9269 18.2996 18.9666C18.2092 18.9669 18.2092 18.9669 18.1169 18.9671C18.0834 18.9676 18.05 18.968 18.0155 18.9684C17.9054 18.9695 17.7954 18.9688 17.6853 18.968C17.6085 18.9681 17.5317 18.9684 17.455 18.9687C17.2942 18.9691 17.1335 18.9685 16.9728 18.9674C16.767 18.966 16.5613 18.9668 16.3556 18.9683C16.1971 18.9691 16.0386 18.9689 15.8801 18.9682C15.8042 18.9681 15.7284 18.9683 15.6525 18.9688C15.5464 18.9695 15.4404 18.9685 15.3342 18.9671C15.2739 18.967 15.2136 18.9668 15.1515 18.9666C14.9475 18.9269 14.8746 18.8533 14.748 18.6914C14.7206 18.5175 14.7206 18.5175 14.748 18.3496C14.9038 18.1361 15.0335 18.1297 15.2896 18.129Z" fill="#7289FF"/>
<path d="M15.2488 21.2107C15.3255 21.2098 15.3255 21.2098 15.4038 21.2089C15.4588 21.209 15.5138 21.2092 15.5705 21.2093C15.6555 21.2089 15.6555 21.2089 15.7423 21.2085C15.8621 21.2082 15.982 21.2083 16.1018 21.2087C16.2854 21.2091 16.4689 21.2077 16.6525 21.2062C16.7689 21.2061 16.8853 21.2061 17.0017 21.2063C17.0567 21.2057 17.1117 21.2052 17.1684 21.2046C17.2195 21.205 17.2707 21.2055 17.3234 21.206C17.3908 21.206 17.3908 21.206 17.4596 21.206C17.6185 21.2383 17.6766 21.2995 17.7754 21.4258C17.8087 21.6297 17.8031 21.7265 17.6867 21.8988C17.455 22.0671 17.2489 22.0441 16.9695 22.039C16.915 22.0389 16.8606 22.0388 16.8045 22.0387C16.6895 22.0382 16.5745 22.0371 16.4596 22.0355C16.2835 22.0331 16.1075 22.0325 15.9314 22.0322C15.8197 22.0315 15.708 22.0308 15.5962 22.0298C15.5435 22.0296 15.4908 22.0293 15.4365 22.0291C15.3875 22.0283 15.3384 22.0275 15.2879 22.0267C15.2233 22.0259 15.2233 22.0259 15.1574 22.0251C15.032 22.0107 14.9527 21.9799 14.8457 21.9141C14.744 21.7834 14.7482 21.713 14.7541 21.5448C14.7968 21.377 14.7968 21.377 14.8811 21.2945C15.0141 21.2178 15.0959 21.2116 15.2488 21.2107Z" fill="#7289FF"/>
<path d="M15.3177 19.6601C15.3869 19.6594 15.3869 19.6594 15.4575 19.6587C15.5321 19.6584 15.5321 19.6584 15.6083 19.658C15.6595 19.6578 15.7107 19.6575 15.7635 19.6572C15.872 19.6567 15.9804 19.6564 16.0888 19.6562C16.2546 19.6558 16.4204 19.6542 16.5862 19.6527C16.6915 19.6524 16.7969 19.6521 16.9022 19.6519C16.9518 19.6513 17.0013 19.6507 17.0523 19.6501C17.4876 19.6515 17.4876 19.6515 17.6777 19.8144C17.7754 19.9609 17.7754 19.9609 17.7662 20.1318C17.7157 20.3495 17.7157 20.3495 17.5801 20.4492C17.4637 20.4681 17.4637 20.4681 17.3245 20.4689C17.2463 20.4699 17.2463 20.4699 17.1665 20.4708C17.1102 20.4707 17.0539 20.4705 16.9959 20.4704C16.938 20.4706 16.8801 20.4709 16.8205 20.4712C16.6981 20.4715 16.5757 20.4714 16.4532 20.471C16.2657 20.4706 16.0782 20.472 15.8906 20.4735C15.7718 20.4736 15.6529 20.4736 15.5341 20.4734C15.4498 20.4743 15.4498 20.4743 15.3637 20.4751C15.2853 20.4744 15.2853 20.4744 15.2053 20.4737C15.1363 20.4737 15.1363 20.4737 15.066 20.4737C14.9054 20.4416 14.8473 20.3819 14.748 20.2539C14.7236 20.083 14.7236 20.083 14.748 19.9121C14.9086 19.7017 15.0619 19.6622 15.3177 19.6601Z" fill="#7289FF"/>
<path d="M28.4522 17.6841C28.5127 17.6839 28.5127 17.6839 28.5745 17.6838C28.6596 17.6838 28.7447 17.6845 28.8297 17.6857C28.9599 17.6874 29.0898 17.6867 29.22 17.6857C29.3028 17.6861 29.3856 17.6866 29.4684 17.6872C29.5072 17.6869 29.546 17.6867 29.586 17.6864C29.7625 17.6902 29.864 17.6988 30.0058 17.8083C30.084 17.9155 30.1209 17.9732 30.1289 18.1055C30.0923 18.242 30.0531 18.3269 29.9549 18.4289C29.7847 18.525 29.6208 18.5189 29.4302 18.519C29.391 18.5193 29.3518 18.5197 29.3113 18.5201C29.2285 18.5206 29.1456 18.5208 29.0627 18.5205C28.9362 18.5205 28.8099 18.5225 28.6834 18.5247C28.6028 18.5249 28.5221 18.5251 28.4415 18.5251C28.4038 18.5259 28.3662 18.5267 28.3274 18.5275C28.1307 18.525 28.0399 18.5044 27.8834 18.3814C27.7852 18.2519 27.7852 18.2519 27.7546 18.1055C27.8353 17.7182 28.1139 17.6785 28.4522 17.6841Z" fill="#7289FF"/>
<path d="M18.833 19.6373C18.8936 19.6371 18.8936 19.6371 18.9554 19.6369C19.0404 19.6369 19.1255 19.6376 19.2106 19.6388C19.3407 19.6405 19.4707 19.6398 19.6008 19.6389C19.6836 19.6392 19.7664 19.6397 19.8493 19.6403C19.8881 19.6401 19.9269 19.6398 19.9669 19.6396C20.1435 19.6433 20.2453 19.6524 20.3876 19.7612C20.4666 19.8712 20.4887 19.9246 20.4884 20.0586C20.4895 20.0908 20.4905 20.123 20.4916 20.1562C20.4423 20.3131 20.3537 20.3617 20.2168 20.4492C20.0736 20.4689 19.9493 20.4778 19.8063 20.4769C19.7476 20.4773 19.7476 20.4773 19.6876 20.4778C19.6051 20.4781 19.5225 20.478 19.4399 20.4774C19.3138 20.4767 19.188 20.4783 19.0619 20.4802C18.9815 20.4803 18.901 20.4802 18.8206 20.4799C18.7831 20.4806 18.7456 20.4812 18.707 20.4819C18.5109 20.4785 18.4202 20.4571 18.2643 20.3344C18.166 20.2051 18.166 20.2051 18.1355 20.0586C18.2162 19.6713 18.4947 19.6316 18.833 19.6373Z" fill="#7289FF"/>
<path d="M35.3046 15.4199C35.4462 15.5258 35.4944 15.5842 35.526 15.7598C35.5277 15.9396 35.529 16.1191 35.5274 16.2988C35.5292 16.3929 35.5292 16.3929 35.531 16.4888C35.5309 16.549 35.5308 16.6092 35.5307 16.6711C35.5307 16.7262 35.5307 16.7812 35.5308 16.8379C35.5 16.9824 35.5 16.9824 35.387 17.0997C35.2558 17.1777 35.2558 17.1777 35.0788 17.1747C34.8624 17.1146 34.8624 17.1146 34.7675 16.9824C34.7356 16.757 34.7449 16.5293 34.7462 16.3019C34.7452 16.239 34.7442 16.1761 34.7432 16.1112C34.7433 16.0509 34.7433 15.9905 34.7433 15.9282C34.7432 15.8729 34.7431 15.8176 34.743 15.7606C34.7976 15.437 35.0034 15.3769 35.3046 15.4199Z" fill="#7289FF"/>
<path d="M19.8506 18.1329C19.8876 18.132 19.9247 18.131 19.9629 18.13C20.1407 18.1301 20.2436 18.1374 20.3865 18.2474C20.4647 18.3548 20.5017 18.4126 20.5097 18.5449C20.4727 18.6829 20.4339 18.7669 20.3333 18.8688C20.1692 18.9628 20.0384 18.9532 19.8506 18.9508C19.7866 18.9506 19.7227 18.9504 19.6568 18.9502C19.5013 18.937 19.4164 18.9236 19.289 18.8379C19.1874 18.7072 19.1916 18.6368 19.1975 18.4686C19.2402 18.3008 19.2402 18.3008 19.3146 18.2184C19.4893 18.1258 19.6577 18.1311 19.8506 18.1329Z" fill="#7289FF"/>
<path d="M29.4697 16.1798C29.5068 16.1788 29.5438 16.1779 29.582 16.1768C29.7599 16.177 29.8628 16.1843 30.0057 16.2942C30.0838 16.4017 30.1209 16.4594 30.1289 16.5918C30.0919 16.7298 30.0531 16.8138 29.9525 16.9157C29.7883 17.0097 29.6576 17.0001 29.4697 16.9977C29.4058 16.9975 29.3418 16.9973 29.2759 16.9971C29.1204 16.9839 29.0356 16.9705 28.9082 16.8848C28.8065 16.7541 28.8107 16.6837 28.8166 16.5155C28.8593 16.3477 28.8593 16.3477 28.9337 16.2653C29.1085 16.1727 29.2768 16.178 29.4697 16.1798Z" fill="#7289FF"/>
</g>
<defs>
<clipPath id="clip0_21_498">
<rect width="25" height="25" fill="white" transform="translate(10.5 10)"/>
</clipPath>
</defs>
</svg>
