<svg width="45" height="45" viewBox="0 0 45 45" fill="none" xmlns="http://www.w3.org/2000/svg">
<rect width="45" height="45" rx="6" fill="#E7E9FF"/>
<g clip-path="url(#clip0_21_424)">
<path d="M24.0949 23.965C24.6384 24.424 24.9511 25.0128 25.0329 25.7196C25.0721 26.4698 24.844 27.1116 24.3554 27.6758C24.3076 27.7337 24.2598 27.7917 24.212 27.8497C24.1788 27.889 24.1455 27.9283 24.1113 27.9688C24.154 27.9819 24.1967 27.9951 24.2406 28.0086C24.8892 28.2377 25.3466 28.7132 25.8203 29.1895C25.8557 29.1665 25.891 29.1435 25.9275 29.1198C26.5776 28.7012 26.5776 28.7012 26.748 28.7012C26.7273 28.6786 26.7066 28.6561 26.6853 28.6329C26.1312 28.0167 25.7976 27.4027 25.8102 26.5552C25.8584 25.8443 26.1492 25.2393 26.6694 24.7537C27.2746 24.2536 27.928 24.1156 28.7012 24.1602C29.359 24.2552 29.9566 24.5846 30.36 25.1175C30.7997 25.7794 30.9631 26.4832 30.8162 27.2682C30.6712 27.7744 30.4096 28.2436 30.0195 28.6035C29.9873 28.6035 29.9551 28.6035 29.9219 28.6035C29.9219 28.6358 29.9219 28.668 29.9219 28.7012C29.9565 28.7062 29.9911 28.7113 30.0268 28.7164C30.8198 28.9076 31.524 29.6832 31.9364 30.3522C32.3633 31.1332 32.3633 31.1332 32.3633 31.3867C32.4175 31.3845 32.4718 31.3822 32.5277 31.3799C33.4249 31.3531 33.4249 31.3531 33.7943 31.6826C34.1004 32.006 34.185 32.2823 34.1863 32.7263C34.1866 32.7651 34.187 32.804 34.1873 32.8441C34.1878 32.9259 34.188 33.0078 34.188 33.0897C34.1882 33.2142 34.19 33.3386 34.1918 33.4632C34.1921 33.543 34.1923 33.6229 34.1924 33.7028C34.1931 33.7397 34.1938 33.7765 34.1945 33.8144C34.1922 34.0843 34.1338 34.2431 33.9746 34.4629C33.7742 34.6184 33.5956 34.6302 33.3504 34.628C33.3123 34.6282 33.2742 34.6284 33.2349 34.6286C33.1067 34.6292 32.9786 34.6288 32.8504 34.6283C32.7577 34.6285 32.6651 34.6288 32.5724 34.6291C32.3174 34.6298 32.0625 34.6296 31.8075 34.6292C31.5327 34.629 31.2578 34.6296 30.983 34.6301C30.4444 34.631 29.9059 34.631 29.3673 34.6308C28.9297 34.6306 28.4921 34.6306 28.0544 34.6309C27.9922 34.6309 27.93 34.631 27.8659 34.631C27.7395 34.6311 27.6131 34.6311 27.4867 34.6312C26.6378 34.6317 25.7889 34.6319 24.94 34.6315C24.9067 34.6315 24.8735 34.6315 24.8393 34.6315C24.5697 34.6314 24.3 34.6312 24.0304 34.6311C22.9784 34.6306 21.9265 34.631 20.8746 34.6322C19.693 34.6334 18.5114 34.6341 17.3299 34.6337C16.7042 34.6335 16.0784 34.6337 15.4527 34.6345C14.92 34.6352 14.3874 34.6353 13.8547 34.6344C13.5828 34.634 13.311 34.6339 13.0391 34.6346C12.7903 34.6353 12.5416 34.6351 12.2928 34.6341C12.2027 34.634 12.1126 34.6341 12.0224 34.6346C11.9002 34.6352 11.7779 34.6347 11.6557 34.6338C11.6205 34.6343 11.5853 34.6348 11.549 34.6353C11.3041 34.6317 11.1651 34.5679 10.9765 34.4141C10.8235 34.1882 10.8078 33.9785 10.8089 33.7127C10.8086 33.6741 10.8084 33.6355 10.8081 33.5956C10.8078 33.5142 10.8079 33.4327 10.8083 33.3513C10.8087 33.2278 10.8073 33.1044 10.8057 32.981C10.8037 32.5154 10.8124 32.1389 11.1162 31.7625C11.6065 31.3552 12.0274 31.368 12.6367 31.3867C12.6458 31.3466 12.6458 31.3466 12.655 31.3057C12.9202 30.2862 13.6274 29.4551 14.522 28.9226C14.9034 28.7012 14.9034 28.7012 15.0781 28.7012C15.0781 28.669 15.0781 28.6367 15.0781 28.6035C15.0357 28.5861 15.0357 28.5861 14.9925 28.5682C14.5609 28.3228 14.3446 27.7673 14.1939 27.3197C14.0331 26.6507 14.1472 25.9565 14.4861 25.3626C14.8773 24.7602 15.3639 24.4211 16.0547 24.209C16.7719 24.0618 17.4235 24.1903 18.0543 24.5502C18.6644 24.953 18.9934 25.5634 19.1675 26.2598C19.2276 26.9819 19.0991 27.6033 18.6914 28.2129C18.5922 28.3267 18.491 28.4299 18.379 28.5309C18.2954 28.6 18.2954 28.6 18.2519 28.7012C18.294 28.7137 18.336 28.7262 18.3793 28.7391C18.5509 28.801 18.694 28.8789 18.8501 28.9728C19.0366 29.086 19.0366 29.086 19.2285 29.1895C19.2481 29.1658 19.2676 29.1421 19.2878 29.1177C19.6857 28.6485 20.2506 28.0806 20.8887 27.9688C20.8679 27.9468 20.8472 27.9248 20.8259 27.9022C20.3123 27.3389 19.9525 26.6979 19.9609 25.918C20.0061 25.2208 20.2177 24.6736 20.6933 24.1602C20.7188 24.1327 20.7442 24.1052 20.7704 24.0768C21.6855 23.201 23.1166 23.2292 24.0949 23.965ZM21.1938 24.8804C20.907 25.2236 20.7646 25.6499 20.8017 26.095C20.8486 26.4196 20.9525 26.6708 21.1328 26.9434C21.161 26.9867 21.1892 27.03 21.2182 27.0746C21.5697 27.4358 21.9927 27.6283 22.4939 27.6483C22.9901 27.6332 23.422 27.4462 23.7695 27.0899C24.0897 26.6562 24.2583 26.192 24.1784 25.6525C24.082 25.1932 23.8426 24.8425 23.4765 24.5508C22.6662 24.053 21.8377 24.2037 21.1938 24.8804ZM15.2654 25.6962C14.9831 26.0872 14.9257 26.5204 14.9805 26.9922C15.0809 27.4889 15.3758 27.8231 15.7617 28.1366C16.1868 28.358 16.6002 28.435 17.0749 28.3273C17.5332 28.1786 17.8905 27.915 18.1436 27.503C18.3929 26.9997 18.3916 26.5528 18.2187 26.0265C18.0341 25.5758 17.6987 25.2741 17.2536 25.0864C16.486 24.8265 15.7821 25.0894 15.2654 25.6962ZM27.0027 25.63C26.7332 26.0047 26.5934 26.4324 26.6504 26.8945C26.7462 27.3992 26.991 27.79 27.4082 28.0904C27.8302 28.347 28.2472 28.4233 28.7321 28.3363C29.194 28.2183 29.5563 27.9199 29.8242 27.5293C30.0664 27.0721 30.1004 26.5734 29.9493 26.0797C29.758 25.6183 29.4014 25.2813 28.9453 25.0879C28.2359 24.812 27.4857 25.0613 27.0027 25.63ZM20.4004 29.1895C20.3681 29.2142 20.3359 29.2389 20.3027 29.2644C20.0994 29.4288 19.9583 29.6062 19.8144 29.8242C19.8569 29.8819 19.8569 29.8819 19.9003 29.9408C20.23 30.3972 20.4653 30.8492 20.6445 31.3867C21.8691 31.3867 23.0937 31.3867 24.3554 31.3867C24.436 31.1611 24.5166 30.9356 24.5996 30.7031C24.702 30.5078 24.702 30.5078 24.798 30.3613C24.8297 30.312 24.8615 30.2626 24.8943 30.2118C24.9259 30.1645 24.9576 30.1171 24.9902 30.0684C25.0268 30.0134 25.0633 29.9585 25.0999 29.9036C25.1281 29.8613 25.1564 29.819 25.1855 29.7754C24.6264 29.0833 23.8925 28.6558 23.0249 28.4723C22.0488 28.391 21.1799 28.5818 20.4004 29.1895ZM14.0485 30.4239C13.857 30.6548 13.5156 31.0779 13.5156 31.3867C15.5781 31.3867 17.6406 31.3867 19.7656 31.3867C19.6338 30.9913 19.5234 30.7737 19.2773 30.459C19.2487 30.4217 19.22 30.3843 19.1905 30.3459C18.6348 29.6703 17.8365 29.3113 16.9824 29.1895C15.8035 29.0785 14.8268 29.5728 14.0485 30.4239ZM25.7173 30.4346C25.4939 30.73 25.3073 31.022 25.2344 31.3867C27.2969 31.3867 29.3594 31.3867 31.4844 31.3867C31.1048 30.4379 30.4687 29.7923 29.528 29.388C28.1422 28.8843 26.6664 29.3235 25.7173 30.4346ZM11.709 32.3633C11.4905 32.8003 11.6601 33.3396 11.6601 33.8281C18.8144 33.8281 25.9687 33.8281 33.3398 33.8281C33.3398 33.377 33.3398 32.9258 33.3398 32.4609C33.0929 32.214 33.0419 32.2107 32.7061 32.2104C32.6704 32.2103 32.6348 32.2102 32.5981 32.2101C32.4774 32.2098 32.3567 32.2099 32.236 32.2099C32.149 32.2098 32.0621 32.2097 31.9752 32.2095C31.7354 32.2091 31.4956 32.209 31.2558 32.209C30.9975 32.2089 30.7393 32.2085 30.481 32.2082C29.9158 32.2075 29.3507 32.2072 28.7856 32.207C28.4329 32.2069 28.0803 32.2067 27.7276 32.2065C26.752 32.2059 25.7763 32.2054 24.8006 32.2052C24.7069 32.2052 24.7069 32.2052 24.6113 32.2052C24.5487 32.2052 24.486 32.2052 24.4215 32.2051C24.2945 32.2051 24.1676 32.2051 24.0407 32.2051C23.9777 32.2051 23.9148 32.2051 23.8499 32.205C22.8292 32.2049 21.8086 32.204 20.7879 32.2029C19.741 32.2017 18.694 32.2011 17.647 32.201C17.0588 32.201 16.4706 32.2007 15.8824 32.1998C15.3816 32.1991 14.8808 32.1988 14.38 32.1992C14.1244 32.1994 13.8687 32.1994 13.613 32.1987C13.3792 32.1981 13.1453 32.1981 12.9114 32.1987C12.8266 32.1988 12.7419 32.1987 12.6571 32.1982C12.5421 32.1977 12.4272 32.1981 12.3123 32.1986C12.2164 32.1986 12.2164 32.1986 12.1186 32.1986C11.9418 32.2181 11.8494 32.2563 11.709 32.3633Z" fill="#828AE8"/>
<path d="M19.3118 10.3841C19.3581 10.3838 19.4044 10.3836 19.4521 10.3834C19.5281 10.3834 19.5281 10.3834 19.6057 10.3834C19.6597 10.3832 19.7137 10.3831 19.7693 10.3829C19.9509 10.3823 20.1325 10.3822 20.314 10.382C20.444 10.3817 20.5739 10.3813 20.7038 10.381C21.0942 10.38 21.4846 10.3795 21.875 10.3791C22.059 10.3789 22.243 10.3786 22.427 10.3784C23.0389 10.3775 23.6508 10.3768 24.2627 10.3765C24.4214 10.3764 24.5802 10.3763 24.7389 10.3762C24.7981 10.3762 24.7981 10.3762 24.8585 10.3761C25.4971 10.3757 26.1358 10.3745 26.7745 10.3729C27.4306 10.3713 28.0868 10.3704 28.743 10.3702C29.1112 10.3701 29.4794 10.3697 29.8476 10.3685C30.1613 10.3674 30.475 10.367 30.7887 10.3675C30.9486 10.3677 31.1085 10.3675 31.2684 10.3667C31.4422 10.3658 31.616 10.3662 31.7899 10.3668C31.8397 10.3663 31.8896 10.3657 31.9409 10.3652C32.5743 10.3708 33.0804 10.6019 33.5443 11.0252C33.9293 11.4226 34.1749 11.9383 34.1771 12.493C34.1776 12.584 34.1776 12.584 34.1781 12.6768C34.1783 12.7438 34.1784 12.8109 34.1785 12.878C34.1788 12.9487 34.1792 13.0195 34.1795 13.0903C34.1805 13.3226 34.181 13.5549 34.1815 13.7872C34.1817 13.8674 34.1819 13.9475 34.1821 14.0277C34.1831 14.4045 34.1837 14.7814 34.1842 15.1582C34.1846 15.5922 34.1859 16.0261 34.1879 16.4601C34.1894 16.7961 34.1901 17.1321 34.1902 17.4681C34.1904 17.6685 34.1908 17.8689 34.192 18.0693C34.1932 18.2581 34.1934 18.447 34.1929 18.6358C34.1928 18.7047 34.1931 18.7736 34.1938 18.8425C34.2 19.5132 34.0592 20.0238 33.6328 20.5469C33.6084 20.578 33.5839 20.609 33.5588 20.6411C33.1917 21.0583 32.5909 21.2974 32.0437 21.3371C31.9056 21.3408 31.7678 21.3414 31.6296 21.3408C31.577 21.341 31.5244 21.3412 31.4703 21.3414C31.2948 21.3419 31.1194 21.3417 30.944 21.3415C30.8179 21.3417 30.6918 21.342 30.5657 21.3423C30.2592 21.3429 29.9527 21.343 29.6461 21.3429C29.3969 21.3428 29.1476 21.3429 28.8983 21.3431C28.8627 21.3431 28.8272 21.3431 28.7905 21.3432C28.7183 21.3432 28.6461 21.3433 28.5739 21.3433C27.8972 21.3439 27.2206 21.3438 26.5439 21.3435C25.9258 21.3432 25.3076 21.3438 24.6895 21.3447C24.0539 21.3456 23.4182 21.3461 22.7826 21.3459C22.4261 21.3458 22.0696 21.3459 21.7131 21.3466C21.3778 21.3472 21.0425 21.3471 20.7071 21.3465C20.5843 21.3464 20.4615 21.3465 20.3387 21.3469C20.1705 21.3474 20.0024 21.347 19.8342 21.3464C19.786 21.3467 19.7379 21.3471 19.6883 21.3475C19.0037 21.3422 18.4042 21.1271 17.8949 20.6628C17.3275 20.054 17.2583 19.4244 17.2754 18.6426C17.2492 18.6559 17.2231 18.6692 17.1962 18.6829C17.0782 18.7429 16.9601 18.8026 16.842 18.8623C16.8009 18.8833 16.7598 18.9042 16.7175 18.9258C16.6781 18.9456 16.6388 18.9655 16.5982 18.9859C16.5438 19.0135 16.5438 19.0135 16.4882 19.0417C16.3964 19.082 16.3964 19.082 16.2988 19.082C16.2992 19.135 16.2997 19.1879 16.3001 19.2425C16.3041 19.7425 16.307 20.2425 16.3089 20.7425C16.3099 20.9995 16.3113 21.2566 16.3135 21.5136C16.3157 21.7618 16.3168 22.01 16.3173 22.2582C16.3177 22.3528 16.3184 22.4473 16.3194 22.5418C16.3209 22.6746 16.3211 22.8073 16.321 22.9401C16.3217 22.9789 16.3224 23.0177 16.3231 23.0576C16.3208 23.3677 16.2364 23.6348 16.0148 23.8594C15.9866 23.877 15.9585 23.8947 15.9295 23.913C15.9013 23.9315 15.873 23.9501 15.8439 23.9692C15.642 24.0783 15.4465 24.0707 15.2238 24.0719C15.1839 24.0723 15.144 24.0727 15.1029 24.0731C14.9709 24.0743 14.8388 24.0751 14.7067 24.0758C14.6616 24.0761 14.6164 24.0764 14.5699 24.0766C14.3307 24.0779 14.0915 24.0789 13.8524 24.0796C13.6547 24.0802 13.4571 24.0816 13.2595 24.0836C13.0206 24.086 12.7817 24.0872 12.5428 24.0876C12.452 24.0879 12.3611 24.0886 12.2703 24.0898C12.1428 24.0913 12.0153 24.0913 11.8878 24.091C11.8506 24.0918 11.8135 24.0926 11.7752 24.0934C11.4887 24.0901 11.2907 24.0068 11.0742 23.8183C10.7841 23.5175 10.7954 23.1823 10.7992 22.7839C10.7989 22.7201 10.7985 22.6562 10.7982 22.5905C10.7973 22.4164 10.7979 22.2422 10.7989 22.0681C10.7997 21.885 10.7992 21.7019 10.799 21.5188C10.7988 21.2112 10.7995 20.9036 10.8009 20.5959C10.8025 20.2417 10.8025 19.8876 10.8016 19.5334C10.8008 19.1912 10.8012 18.849 10.802 18.5068C10.8023 18.3619 10.8023 18.217 10.8019 18.0721C10.8015 17.8689 10.8027 17.6657 10.804 17.4625C10.8037 17.4033 10.8034 17.3442 10.803 17.2832C10.8115 16.5172 11.0787 15.8454 11.6174 15.2978C11.7715 15.1501 11.9315 15.0144 12.0996 14.8828C12.0718 14.859 12.0441 14.8352 12.0155 14.8107C11.5447 14.3784 11.2586 13.8229 11.2104 13.1839C11.1881 12.5223 11.3832 11.964 11.8009 11.4492C12.2644 10.9557 12.8314 10.721 13.499 10.6836C14.1569 10.6836 14.7524 10.9179 15.2328 11.3689C15.7165 11.8835 15.9008 12.4746 15.9082 13.1738C15.8596 13.7529 15.6468 14.2011 15.2734 14.6387C15.2256 14.6966 15.1778 14.7546 15.13 14.8126C15.0967 14.8519 15.0635 14.8912 15.0293 14.9316C15.0564 14.9512 15.0836 14.9708 15.1117 14.9909C15.5028 15.2823 15.8416 15.6107 16.0546 16.0547C16.0546 16.103 16.0546 16.1514 16.0546 16.2012C16.186 16.1403 16.3172 16.0792 16.4483 16.0181C16.4851 16.0011 16.5218 15.9841 16.5596 15.9666C16.596 15.9496 16.6323 15.9326 16.6698 15.9151C16.7028 15.8997 16.7357 15.8844 16.7697 15.8686C16.8267 15.8398 16.8267 15.8398 16.8847 15.8105C16.9448 15.7911 17.0049 15.7716 17.0667 15.7515C17.1603 15.7033 17.1603 15.7033 17.2265 15.6152C17.2777 15.3757 17.2683 15.1358 17.2637 14.8921C17.2637 14.8195 17.2638 14.7469 17.2641 14.6742C17.2646 14.4827 17.2632 14.2912 17.2612 14.0996C17.2582 13.7947 17.2573 13.4898 17.2578 13.1849C17.2576 13.0792 17.2561 12.9737 17.2545 12.8681C17.2496 12.1552 17.4319 11.552 17.9099 11.0132C18.2781 10.6565 18.7916 10.3852 19.3118 10.3841ZM18.3255 11.835C18.0842 12.222 18.0856 12.6212 18.0911 13.0657C18.0913 13.129 18.0915 13.1923 18.0918 13.2576C18.0923 13.4244 18.0937 13.5913 18.0954 13.7582C18.0969 13.9291 18.0975 14.0999 18.0983 14.2708C18.0998 14.605 18.1023 14.9392 18.1054 15.2734C18.1422 15.2763 18.179 15.2791 18.2169 15.2821C18.2653 15.2861 18.3136 15.2901 18.3634 15.2942C18.4352 15.3 18.4352 15.3 18.5085 15.3059C18.6711 15.3257 18.7989 15.3735 18.9447 15.4474C18.9897 15.4696 19.0347 15.4918 19.081 15.5147C19.1136 15.5318 19.1461 15.5488 19.1796 15.5664C19.4812 15.2435 19.7726 14.917 20.0498 14.5727C20.1897 14.4027 20.3379 14.241 20.4862 14.0783C20.5979 13.9526 20.7038 13.8236 20.8093 13.6926C20.8843 13.6008 20.9596 13.5093 21.0351 13.418C21.0569 13.3916 21.0787 13.3651 21.1012 13.3379C21.1698 13.2559 21.2396 13.1751 21.3098 13.0945C21.3308 13.069 21.3519 13.0436 21.3736 13.0173C21.4939 12.8817 21.5697 12.8326 21.7473 12.7881C21.8848 12.7841 21.9815 12.786 22.1093 12.832C22.1676 13.0458 22.2041 13.2339 22.0967 13.4357C21.9923 13.5657 21.8814 13.6868 21.7675 13.8086C21.692 13.8949 21.6174 13.982 21.5427 14.0691C21.4612 14.1639 21.3792 14.2582 21.297 14.3524C21.1426 14.5294 20.9895 14.7074 20.8368 14.8859C20.813 14.9136 20.7892 14.9414 20.7647 14.97C20.692 15.0549 20.6194 15.1397 20.5468 15.2246C20.4695 15.315 20.3921 15.4054 20.3147 15.4957C20.2645 15.5545 20.2144 15.6134 20.1646 15.6725C20.0634 15.792 19.9635 15.9057 19.8499 16.0139C19.5925 16.2607 19.5901 16.4696 19.5808 16.8191C19.5642 17.0765 19.4849 17.2591 19.3059 17.4446C19.0732 17.6491 18.8238 17.7896 18.5479 17.9285C18.5052 17.9504 18.4625 17.9724 18.4185 17.995C18.3144 18.0485 18.21 18.1016 18.1054 18.1543C18.0997 18.3394 18.0963 18.5245 18.0932 18.7097C18.0908 18.7874 18.0908 18.7874 18.0883 18.8667C18.0832 19.2819 18.1559 19.6412 18.4137 19.9762C18.8033 20.3658 19.2164 20.5129 19.768 20.5176C19.8156 20.5173 19.8633 20.517 19.9124 20.5166C19.9902 20.517 19.9902 20.517 20.0697 20.5173C20.2425 20.5179 20.4152 20.5175 20.588 20.517C20.7124 20.5172 20.8367 20.5174 20.9611 20.5178C21.2631 20.5184 21.5651 20.5183 21.8671 20.5179C22.1127 20.5175 22.3582 20.5175 22.6038 20.5176C22.6563 20.5177 22.6563 20.5177 22.7099 20.5177C22.7811 20.5178 22.8523 20.5178 22.9235 20.5178C23.5899 20.5183 24.2564 20.5178 24.9228 20.517C25.494 20.5163 26.0651 20.5165 26.6362 20.5171C27.3004 20.5179 27.9646 20.5182 28.6287 20.5178C28.6996 20.5177 28.7705 20.5177 28.8414 20.5176C28.8763 20.5176 28.9112 20.5176 28.9471 20.5176C29.1922 20.5174 29.4373 20.5177 29.6825 20.518C30.0127 20.5185 30.3429 20.5181 30.6732 20.5173C30.7942 20.5171 30.9153 20.5171 31.0363 20.5175C31.2019 20.5179 31.3674 20.5174 31.5329 20.5166C31.5805 20.517 31.6282 20.5173 31.6772 20.5176C32.1431 20.5137 32.5368 20.4134 32.8981 20.1124C33.2021 19.8002 33.3452 19.4711 33.347 19.0409C33.3473 18.9826 33.3477 18.9242 33.348 18.8642C33.3482 18.8003 33.3483 18.7365 33.3484 18.6708C33.3488 18.6027 33.3491 18.5347 33.3494 18.4667C33.3504 18.2434 33.351 18.0201 33.3514 17.7968C33.3516 17.7198 33.3518 17.6428 33.352 17.5658C33.353 17.2038 33.3537 16.8419 33.3541 16.4799C33.3546 16.0628 33.3558 15.6458 33.3578 15.2287C33.3593 14.9059 33.36 14.5831 33.3602 14.2602C33.3603 14.0677 33.3607 13.8751 33.3619 13.6825C33.3631 13.5011 33.3633 13.3197 33.3628 13.1383C33.3628 13.0407 33.3637 12.9431 33.3646 12.8454C33.3622 12.4152 33.2875 12.0885 33.0621 11.7212C32.5746 11.2469 32.0697 11.1643 31.4173 11.1653C31.367 11.1652 31.3166 11.1651 31.2647 11.165C31.0963 11.1647 30.9279 11.1647 30.7595 11.1648C30.6386 11.1646 30.5177 11.1645 30.3968 11.1643C30.1027 11.1639 29.8086 11.1637 29.5145 11.1637C29.2753 11.1637 29.0361 11.1636 28.7969 11.1634C28.1181 11.163 27.4392 11.1628 26.7603 11.1628C26.7238 11.1628 26.6872 11.1628 26.6495 11.1628C26.5946 11.1628 26.5946 11.1628 26.5386 11.1628C25.9455 11.1628 25.3524 11.1624 24.7594 11.1617C24.1497 11.161 23.5401 11.1606 22.9304 11.1607C22.5884 11.1607 22.2464 11.1606 21.9044 11.16C21.5827 11.1596 21.261 11.1596 20.9392 11.1599C20.8213 11.16 20.7034 11.1599 20.5856 11.1596C20.4242 11.1592 20.2629 11.1594 20.1016 11.1598C20.0321 11.1594 20.0321 11.1594 19.9613 11.159C19.2626 11.1626 18.8018 11.3139 18.3255 11.835ZM12.539 11.9043C12.2137 12.2474 12.0308 12.6373 12.0406 13.1135C12.0837 13.5787 12.2886 13.9404 12.6453 14.2395C12.9843 14.4813 13.3385 14.5913 13.7597 14.541C14.1867 14.4503 14.5578 14.2416 14.8065 13.8788C15.0348 13.5138 15.1259 13.1312 15.0476 12.7038C14.9378 12.2911 14.656 11.9185 14.2921 11.6949C13.6802 11.3949 13.0707 11.4938 12.539 11.9043ZM12.1389 15.9679C11.7337 16.4395 11.6304 16.9119 11.6372 17.5232C11.6371 17.5846 11.637 17.646 11.6368 17.7093C11.6366 17.8761 11.6375 18.0428 11.6387 18.2095C11.6398 18.3845 11.6397 18.5594 11.6398 18.7344C11.6401 19.0275 11.6412 19.3206 11.6427 19.6137C11.6447 19.9904 11.6455 20.367 11.646 20.7436C11.6464 21.0677 11.6472 21.3917 11.6482 21.7158C11.6484 21.7853 11.6486 21.8549 11.6487 21.9244C11.6493 22.1524 11.6503 22.3804 11.6515 22.6083C11.6516 22.6662 11.6517 22.7241 11.6519 22.7837C11.6522 22.836 11.6526 22.8883 11.6529 22.9422C11.6531 22.9879 11.6533 23.0336 11.6536 23.0807C11.6487 23.1829 11.6487 23.1829 11.7089 23.2324C11.8246 23.2373 11.9387 23.2391 12.0544 23.2387C12.0905 23.2388 12.1266 23.2389 12.1638 23.239C12.2838 23.2392 12.4038 23.2391 12.5238 23.2389C12.6068 23.2389 12.6898 23.239 12.7728 23.239C12.947 23.2391 13.1212 23.239 13.2954 23.2388C13.5192 23.2385 13.7431 23.2387 13.9669 23.239C14.1384 23.2391 14.3098 23.2391 14.4813 23.2389C14.5639 23.2389 14.6464 23.239 14.729 23.2391C14.8441 23.2392 14.9593 23.239 15.0745 23.2387C15.1089 23.2388 15.1434 23.2389 15.1788 23.239C15.3375 23.2519 15.3375 23.2519 15.4687 23.1836C15.4733 23.0713 15.4744 22.9588 15.4743 22.8464C15.4743 22.8111 15.4743 22.7759 15.4743 22.7395C15.4742 22.6225 15.4739 22.5055 15.4735 22.3884C15.4734 22.3075 15.4733 22.2265 15.4733 22.1456C15.4731 21.9321 15.4726 21.7187 15.4721 21.5052C15.4716 21.2876 15.4713 21.07 15.4711 20.8523C15.4706 20.425 15.4697 19.9976 15.4687 19.5703C15.2772 19.6323 15.1063 19.7022 14.9286 19.7961C14.585 19.9536 14.2416 19.9789 13.8763 19.8762C13.5203 19.7303 13.2721 19.53 13.1126 19.1751C13.004 18.8978 12.9859 18.5936 13.067 18.3069C13.125 18.2031 13.125 18.2031 13.2714 18.1055C13.4524 18.0958 13.5874 18.0968 13.7597 18.1543C13.7668 18.2117 13.7738 18.2691 13.7811 18.3282C13.7859 18.3639 13.7907 18.3995 13.7956 18.4362C13.807 18.5321 13.8128 18.6285 13.8177 18.725C13.8721 18.9467 13.9576 19.0131 14.1504 19.1308C14.4558 19.1674 14.6484 19.0744 14.9095 18.9344C14.9491 18.9139 14.9886 18.8934 15.0294 18.8722C15.1559 18.8065 15.2818 18.7398 15.4077 18.6731C15.49 18.6301 15.5723 18.5872 15.6547 18.5443C15.9024 18.4152 16.1495 18.2848 16.3964 18.1543C16.558 18.069 16.7196 17.9837 16.8813 17.8985C16.939 17.8681 16.939 17.8681 16.9979 17.837C17.2222 17.719 17.4472 17.6027 17.6732 17.488C17.7242 17.4621 17.7752 17.4361 17.8277 17.4094C17.9299 17.3574 18.0323 17.3058 18.1348 17.2545C18.5004 17.0695 18.5004 17.0695 18.789 16.7871C18.8232 16.5781 18.8029 16.4737 18.7097 16.2836C18.5695 16.125 18.5096 16.0886 18.3007 16.0547C18.1305 16.1033 17.9785 16.184 17.8216 16.2652C17.7507 16.3005 17.7507 16.3005 17.6784 16.3365C17.5423 16.4047 17.4067 16.4739 17.2714 16.5436C17.1703 16.5956 17.069 16.6474 16.9676 16.6991C16.4996 16.9382 16.0326 17.1793 15.5664 17.4219C15.5538 17.3651 15.5413 17.3083 15.5284 17.2498C15.5113 17.1745 15.4942 17.0991 15.4771 17.0238C15.4689 16.9865 15.4607 16.9492 15.4523 16.9107C15.3399 16.4203 15.0874 16.0232 14.6875 15.7129C13.8325 15.2085 12.8635 15.2343 12.1389 15.9679Z" fill="#828AE8"/>
<path d="M23.2746 14.3389C23.366 14.3384 23.366 14.3384 23.4594 14.338C23.5274 14.338 23.5953 14.3379 23.6633 14.3379C23.7346 14.3376 23.8059 14.3374 23.8772 14.3371C24.0712 14.3365 24.2652 14.3362 24.4592 14.3359C24.5804 14.3358 24.7016 14.3356 24.8227 14.3354C25.2017 14.3347 25.5807 14.3342 25.9597 14.3341C26.3974 14.3338 26.8351 14.333 27.2728 14.3316C27.611 14.3305 27.9491 14.33 28.2873 14.3299C28.4894 14.3299 28.6914 14.3296 28.8934 14.3287C29.0835 14.3279 29.2736 14.3278 29.4637 14.3283C29.5334 14.3283 29.6032 14.3281 29.6729 14.3276C29.7682 14.327 29.8635 14.3274 29.9587 14.3278C30.0387 14.3277 30.0387 14.3277 30.1203 14.3276C30.2838 14.3483 30.3758 14.3949 30.5078 14.4922C30.5842 14.645 30.5906 14.815 30.5566 14.9805C30.451 15.1157 30.3931 15.1701 30.222 15.2005C30.1678 15.2006 30.1136 15.2008 30.0577 15.2009C29.9953 15.2015 29.933 15.2022 29.8687 15.2028C29.7997 15.2025 29.7307 15.2022 29.6617 15.2018C29.5889 15.2022 29.5162 15.2026 29.4434 15.2031C29.2459 15.2042 29.0484 15.2041 28.8508 15.2036C28.6859 15.2034 28.521 15.2037 28.3561 15.2041C27.9671 15.2049 27.578 15.2048 27.189 15.2039C26.7877 15.2031 26.3863 15.2039 25.985 15.2055C25.6404 15.2068 25.2958 15.2071 24.9512 15.2067C24.7454 15.2065 24.5396 15.2066 24.3338 15.2076C24.1402 15.2085 23.9467 15.2082 23.7532 15.207C23.6822 15.2067 23.6112 15.2069 23.5402 15.2075C23.4432 15.2083 23.3462 15.2074 23.2492 15.2065C23.195 15.2064 23.1407 15.2064 23.0848 15.2064C22.891 15.1656 22.8172 15.0846 22.6953 14.9317C22.6678 14.7577 22.6678 14.7577 22.6953 14.5899C22.8717 14.3664 22.9987 14.3396 23.2746 14.3389Z" fill="#828AE8"/>
<path d="M24.7954 18.6178C24.8447 18.6172 24.894 18.6167 24.9448 18.6161C24.9985 18.6165 25.0523 18.6169 25.1077 18.6173C25.1646 18.617 25.2215 18.6166 25.28 18.6163C25.4683 18.6154 25.6565 18.616 25.8447 18.6166C25.9753 18.6165 26.106 18.6163 26.2366 18.6161C26.5105 18.6157 26.7843 18.6162 27.0582 18.6171C27.3747 18.6182 27.6912 18.6178 28.0078 18.6168C28.2796 18.6159 28.5515 18.6158 28.8234 18.6163C28.9857 18.6166 29.148 18.6165 29.3103 18.616C29.4913 18.6155 29.6722 18.6162 29.8532 18.6173C29.907 18.6169 29.9608 18.6165 30.0162 18.6161C30.0901 18.6169 30.0901 18.6169 30.1655 18.6178C30.2083 18.6179 30.2511 18.6179 30.2952 18.618C30.4482 18.6507 30.5075 18.7187 30.6055 18.8379C30.641 18.9717 30.6338 19.0934 30.6055 19.2285C30.5142 19.3472 30.4452 19.4063 30.3125 19.4727C30.2376 19.4775 30.1624 19.4793 30.0874 19.4795C30.0399 19.4798 29.9925 19.4801 29.9436 19.4804C29.8914 19.4804 29.8392 19.4805 29.7853 19.4805C29.703 19.4809 29.703 19.4809 29.6191 19.4813C29.4369 19.482 29.2547 19.4823 29.0725 19.4826C28.9463 19.4829 28.82 19.4831 28.6937 19.4834C28.4626 19.4839 28.2315 19.4842 28.0003 19.4843C27.6602 19.4846 27.3201 19.4854 26.98 19.4868C26.6854 19.488 26.3908 19.4884 26.0962 19.4885C25.9709 19.4886 25.8455 19.489 25.7202 19.4896C25.545 19.4905 25.3698 19.4904 25.1945 19.4901C25.1166 19.4907 25.1166 19.4907 25.0372 19.4914C24.5925 19.4889 24.5925 19.4889 24.4043 19.3262C24.3066 19.1797 24.3066 19.1797 24.3127 19.0119C24.3811 18.7333 24.5084 18.6183 24.7954 18.6178Z" fill="#828AE8"/>
<path d="M22.8699 16.4633C22.9167 16.463 22.9635 16.4626 23.0117 16.4623C23.1662 16.4614 23.3206 16.4624 23.475 16.4634C23.5825 16.4634 23.6899 16.4633 23.7974 16.4631C24.0225 16.4629 24.2476 16.4636 24.4727 16.465C24.7611 16.4666 25.0496 16.4664 25.3381 16.4654C25.56 16.4649 25.7818 16.4654 26.0036 16.4661C26.11 16.4663 26.2164 16.4663 26.3227 16.466C26.4714 16.4658 26.6201 16.4667 26.7687 16.4681C26.8127 16.4678 26.8566 16.4674 26.9019 16.4671C27.1012 16.4702 27.2102 16.4785 27.3844 16.5829C27.5187 16.7319 27.5328 16.8324 27.5293 17.0312C27.443 17.1681 27.3813 17.2517 27.2363 17.3242C27.0857 17.3301 26.9361 17.3329 26.7854 17.3336C26.7386 17.334 26.6918 17.3344 26.6436 17.3348C26.4884 17.3361 26.3332 17.3369 26.1779 17.3376C26.125 17.3378 26.0721 17.3381 26.0175 17.3383C25.7374 17.3397 25.4572 17.3406 25.1771 17.3413C24.8874 17.3421 24.5978 17.3443 24.3082 17.3468C24.0857 17.3484 23.8632 17.349 23.6407 17.3493C23.534 17.3496 23.4272 17.3503 23.3204 17.3515C23.171 17.3531 23.0217 17.3531 22.8723 17.3527C22.8281 17.3535 22.7839 17.3543 22.7384 17.3551C22.522 17.353 22.4304 17.3454 22.2528 17.211C22.1582 17.0801 22.1582 17.0801 22.1277 16.9092C22.204 16.4816 22.5019 16.4585 22.8699 16.4633Z" fill="#828AE8"/>
<path d="M23.517 12.2208C23.5552 12.2205 23.5935 12.2201 23.633 12.2198C23.7594 12.2189 23.8858 12.2195 24.0122 12.2202C24.1001 12.22 24.188 12.2198 24.276 12.2196C24.4602 12.2193 24.6444 12.2197 24.8286 12.2206C25.0647 12.2218 25.3008 12.2211 25.5369 12.2199C25.7185 12.2192 25.9 12.2195 26.0816 12.22C26.1686 12.2201 26.2557 12.2199 26.3427 12.2195C26.4644 12.219 26.5861 12.2197 26.7078 12.2208C26.7437 12.2204 26.7797 12.22 26.8168 12.2196C26.9859 12.2224 27.0744 12.2341 27.2098 12.3392C27.3141 12.4806 27.313 12.5688 27.3045 12.7392C27.2748 12.8824 27.2065 12.944 27.0899 13.0274C26.9164 13.0852 26.7777 13.0827 26.5945 13.0833C26.5591 13.0834 26.5238 13.0836 26.4874 13.0838C26.3704 13.0842 26.2535 13.0843 26.1366 13.0844C26.0553 13.0845 25.974 13.0847 25.8927 13.0849C25.7222 13.0852 25.5517 13.0853 25.3811 13.0852C25.1628 13.0852 24.9445 13.0859 24.7262 13.0867C24.5582 13.0873 24.3903 13.0874 24.2223 13.0874C24.1418 13.0874 24.0613 13.0876 23.9808 13.088C23.8682 13.0885 23.7555 13.0883 23.6429 13.088C23.5468 13.0881 23.5468 13.0881 23.4487 13.0883C23.2872 13.0766 23.1799 13.0531 23.0372 12.9785C22.9208 12.8389 22.89 12.7674 22.8937 12.5849C22.9994 12.2538 23.1967 12.2173 23.517 12.2208Z" fill="#828AE8"/>
<path d="M28.8965 12.2201C28.9391 12.22 28.9817 12.2198 29.0256 12.2196C29.1156 12.2194 29.2055 12.2198 29.2955 12.2206C29.4331 12.2217 29.5706 12.2206 29.7083 12.2194C29.7957 12.2195 29.8832 12.2198 29.9707 12.2201C30.0118 12.2197 30.0529 12.2194 30.0953 12.2189C30.3802 12.2235 30.3802 12.2235 30.5337 12.3393C30.6334 12.4811 30.6332 12.5707 30.6247 12.7391C30.595 12.8824 30.5268 12.944 30.4102 13.0273C30.2364 13.0852 30.0774 13.085 29.8965 13.0861C29.8606 13.0864 29.8246 13.0866 29.7876 13.0869C29.7115 13.0874 29.6355 13.0877 29.5594 13.0879C29.4437 13.0884 29.328 13.0899 29.2122 13.0914C29.1382 13.0917 29.0642 13.092 28.9901 13.0922C28.9386 13.0931 28.9386 13.0931 28.8861 13.094C28.6587 13.093 28.5033 13.0502 28.3105 12.9297C28.2341 12.7769 28.2277 12.6069 28.2617 12.4414C28.4322 12.1973 28.6233 12.2175 28.8965 12.2201Z" fill="#828AE8"/>
<path d="M21.7493 18.6101C21.7895 18.6099 21.8298 18.6097 21.8713 18.6094C21.9561 18.6093 22.041 18.6097 22.1259 18.6107C22.2555 18.612 22.3849 18.6107 22.5145 18.6092C22.5971 18.6093 22.6798 18.6097 22.7625 18.6101C22.8203 18.6094 22.8203 18.6094 22.8793 18.6086C23.0849 18.613 23.1626 18.6261 23.3303 18.7575C23.4277 18.8867 23.4277 18.8867 23.4552 19.0332C23.4217 19.2119 23.358 19.2945 23.2324 19.4238C23.0798 19.5001 22.9169 19.4827 22.7493 19.4843C22.711 19.4847 22.6727 19.4851 22.6332 19.4855C22.5521 19.4861 22.4709 19.4867 22.3898 19.4871C22.266 19.4879 22.1423 19.49 22.0185 19.4922C21.9396 19.4927 21.8608 19.4931 21.7819 19.4934C21.7266 19.4947 21.7266 19.4947 21.6701 19.496C21.4885 19.4953 21.3869 19.479 21.2326 19.3798C21.1144 19.2584 21.088 19.2101 21.0657 19.0423C21.084 18.8867 21.084 18.8867 21.1809 18.7569C21.3762 18.6052 21.5087 18.6071 21.7493 18.6101Z" fill="#828AE8"/>
<path d="M29.3276 16.4771C29.4081 16.4763 29.4887 16.4749 29.5692 16.4731C29.6856 16.4704 29.8018 16.4693 29.9182 16.4686C29.954 16.4675 29.9898 16.4664 30.0267 16.4652C30.2188 16.466 30.3041 16.4876 30.4572 16.6071C30.5566 16.7383 30.5566 16.7383 30.5871 16.9092C30.548 17.128 30.4863 17.1882 30.3124 17.3242C30.172 17.3469 30.0614 17.3553 29.9216 17.3515C29.8845 17.3514 29.8474 17.3513 29.8091 17.3512C29.7309 17.3507 29.6528 17.3496 29.5746 17.348C29.4551 17.3456 29.3357 17.345 29.2162 17.3447C29.1401 17.344 29.0639 17.3433 28.9878 17.3424C28.9522 17.3421 28.9166 17.3418 28.8799 17.3416C28.7001 17.3374 28.5591 17.3293 28.4081 17.2266C28.3058 17.0949 28.3107 17.0267 28.3196 16.8573C28.3581 16.6946 28.3738 16.638 28.5058 16.543C28.7339 16.4289 29.0741 16.4789 29.3276 16.4771Z" fill="#828AE8"/>
</g>
<defs>
<clipPath id="clip0_21_424">
<rect width="25" height="25" fill="white" transform="translate(10 10)"/>
</clipPath>
</defs>
</svg>
