<svg width="46" height="45" viewBox="0 0 46 45" fill="none" xmlns="http://www.w3.org/2000/svg">
<rect x="0.5" width="45" height="45" rx="6" fill="#E1E6FF"/>
<g clip-path="url(#clip0_21_443)">
<path d="M16.7105 9.97488C16.7663 9.97455 16.8221 9.97421 16.8796 9.97386C17.0672 9.97296 17.2546 9.97347 17.4421 9.97397C17.5764 9.97373 17.7106 9.9732 17.8449 9.97269C18.172 9.97164 18.499 9.97164 18.8261 9.97204C19.0919 9.97235 19.3578 9.97229 19.6236 9.97198C19.6614 9.97193 19.6992 9.97189 19.7382 9.97184C19.8151 9.97175 19.8919 9.97166 19.9687 9.97157C20.6895 9.97076 21.4102 9.97119 22.1309 9.97201C22.7903 9.97273 23.4496 9.97201 24.109 9.97061C24.786 9.96917 25.4631 9.96863 26.1401 9.9691C26.2167 9.96915 26.2932 9.9692 26.3698 9.96925C26.4075 9.96927 26.4452 9.96929 26.484 9.96932C26.7495 9.96942 27.0149 9.96894 27.2804 9.96823C27.604 9.96738 27.9276 9.96738 28.2511 9.96849C28.4162 9.96904 28.5813 9.96906 28.7464 9.96828C28.9254 9.96751 29.1043 9.96823 29.2833 9.96934C29.3615 9.96847 29.3615 9.96847 29.4414 9.96759C29.8335 9.97254 29.8335 9.97254 30.0108 10.1118C30.2022 10.3263 30.2388 10.4462 30.2383 10.7336C30.2385 10.824 30.2385 10.824 30.2387 10.9162C30.2383 10.9828 30.238 11.0494 30.2376 11.1161C30.2376 11.1863 30.2376 11.2566 30.2377 11.3268C30.2377 11.5175 30.2371 11.7081 30.2364 11.8988C30.2358 12.0981 30.2358 12.2974 30.2357 12.4966C30.2353 12.874 30.2345 13.2513 30.2336 13.6286C30.2325 14.0582 30.2319 14.4878 30.2314 14.9174C30.2304 15.8011 30.2287 16.6847 30.2265 17.5684C30.2681 17.5679 30.3096 17.5675 30.3525 17.5671C30.7447 17.5631 31.1369 17.5602 31.5292 17.5583C31.7308 17.5572 31.9325 17.5559 32.1341 17.5536C32.3288 17.5515 32.5235 17.5503 32.7182 17.5498C32.7924 17.5495 32.8666 17.5488 32.9407 17.5477C33.0449 17.5463 33.149 17.5461 33.2531 17.5462C33.3123 17.5458 33.3715 17.5453 33.4325 17.5449C33.6541 17.5768 33.8148 17.6712 33.9552 17.847C34.0045 18.0244 33.9982 18.2014 33.9958 18.384C33.9956 18.4453 33.9956 18.4453 33.9954 18.5079C33.9949 18.6383 33.9936 18.7686 33.9924 18.8989C33.9919 18.9874 33.9915 19.0759 33.9911 19.1644C33.99 19.3811 33.9883 19.5978 33.9863 19.8145C34.028 19.8133 34.028 19.8133 34.0705 19.8121C34.1981 19.8091 34.3256 19.8072 34.4532 19.8053C34.4969 19.8041 34.5406 19.8029 34.5857 19.8016C34.9168 19.798 35.1533 19.8271 35.4102 20.0543C35.5456 20.2817 35.5268 20.4918 35.5244 20.7518C35.5247 20.8077 35.525 20.8636 35.5253 20.9211C35.5259 21.1088 35.5252 21.2963 35.5245 21.484C35.5245 21.6183 35.5249 21.7526 35.5253 21.887C35.5259 22.2142 35.5256 22.5415 35.5248 22.8687C35.524 23.2498 35.5242 23.6308 35.5244 24.0118C35.5246 24.6917 35.524 25.3715 35.5227 26.0514C35.5216 26.7111 35.5212 27.3709 35.5217 28.0307C35.5223 28.7491 35.5224 29.4674 35.5217 30.1857C35.5216 30.2623 35.5215 30.3389 35.5215 30.4155C35.5214 30.4532 35.5214 30.4909 35.5214 30.5297C35.5211 30.7954 35.5212 31.061 35.5214 31.3266C35.5217 31.6503 35.5214 31.974 35.5204 32.2977C35.5199 32.4629 35.5198 32.6281 35.5201 32.7933C35.5204 32.9723 35.5197 33.1512 35.5189 33.3302C35.5193 33.4087 35.5193 33.4087 35.5198 33.4888C35.5159 33.9467 35.5159 33.9467 35.3535 34.1211C35.1128 34.2855 34.9004 34.2879 34.6198 34.2844C34.5759 34.2845 34.532 34.2845 34.4868 34.2846C34.3401 34.2846 34.1933 34.2835 34.0466 34.2825C33.9413 34.2823 33.8359 34.2822 33.7306 34.2821C33.5039 34.2819 33.2773 34.2812 33.0506 34.2802C32.6921 34.2787 32.3337 34.2786 31.9753 34.2787C30.956 34.2789 29.9368 34.2778 28.9176 34.2741C28.3546 34.2722 27.7916 34.2715 27.2286 34.2725C26.8722 34.273 26.516 34.2718 26.1597 34.2693C25.938 34.2682 25.7163 34.2687 25.4946 34.2697C25.3918 34.2699 25.2891 34.2693 25.1863 34.268C24.6636 34.2399 24.6636 34.2398 24.185 34.4024C24.0993 34.5002 24.04 34.5942 23.9765 34.707C23.5571 35.0323 23.1165 35.04 22.6093 35C22.2263 34.9095 21.8975 34.6403 21.6816 34.3164C21.539 34.3018 21.4067 34.2968 21.264 34.2979C21.1984 34.2976 21.1984 34.2976 21.1315 34.2973C20.984 34.2967 20.8365 34.2972 20.6891 34.2976C20.5837 34.2974 20.4783 34.2972 20.373 34.2968C20.1456 34.2963 19.9182 34.2961 19.6908 34.2964C19.3314 34.2967 18.972 34.2959 18.6125 34.295C17.8493 34.2931 17.086 34.2925 16.3227 34.292C15.4995 34.2915 14.6763 34.2907 13.853 34.2886C13.4956 34.2877 13.1383 34.2875 12.7809 34.2878C12.5585 34.2879 12.3361 34.2874 12.1138 34.2867C12.0106 34.2865 11.9074 34.2865 11.8042 34.2869C11.6634 34.2873 11.5226 34.2868 11.3818 34.2861C11.3409 34.2864 11.3001 34.2867 11.2579 34.2871C11.0196 34.2848 10.8494 34.2596 10.6465 34.1211C10.4405 33.8999 10.4793 33.615 10.4807 33.3305C10.4804 33.2747 10.4801 33.2189 10.4798 33.1614C10.479 32.9739 10.4792 32.7864 10.4795 32.5989C10.4792 32.4646 10.4787 32.3304 10.4782 32.1961C10.4772 31.869 10.477 31.542 10.4771 31.2149C10.4771 30.9491 10.4769 30.6832 10.4766 30.4174C10.4765 30.3408 10.4764 30.2643 10.4763 30.1877C10.4762 30.1496 10.4762 30.1115 10.4761 30.0723C10.4752 29.3515 10.4752 28.6308 10.4756 27.9101C10.4758 27.2507 10.4748 26.5914 10.4732 25.932C10.4716 25.255 10.4708 24.5779 10.471 23.9009C10.4712 23.5208 10.4709 23.1407 10.4697 22.7606C10.4687 22.437 10.4685 22.1134 10.4694 21.7899C10.4698 21.6248 10.4698 21.4597 10.4689 21.2946C10.468 21.1156 10.4686 20.9367 10.4696 20.7577C10.469 20.7055 10.4684 20.6534 10.4678 20.5996C10.4725 20.2076 10.4725 20.2076 10.6158 20.0282C10.8929 19.7775 11.1897 19.8018 11.5437 19.8084C11.5889 19.8088 11.6342 19.8092 11.6808 19.8097C11.7918 19.8108 11.9027 19.8124 12.0136 19.8145C12.0126 19.7598 12.0116 19.7051 12.0105 19.6488C12.007 19.4451 12.0048 19.2415 12.0029 19.0378C12.0019 18.9498 12.0006 18.8618 11.9989 18.7738C11.9965 18.6471 11.9954 18.5203 11.9946 18.3935C11.9936 18.3544 11.9926 18.3153 11.9915 18.2751C11.9914 18.0174 12.0341 17.8679 12.209 17.666C12.3806 17.5513 12.5328 17.5565 12.7357 17.5573C12.7686 17.5573 12.8015 17.5573 12.8354 17.5572C12.9437 17.5573 13.052 17.5581 13.1603 17.5588C13.2356 17.559 13.3109 17.5592 13.3861 17.5593C13.5839 17.5596 13.7817 17.5606 13.9795 17.5617C14.1814 17.5627 14.3834 17.5631 14.5853 17.5636C14.9814 17.5647 15.3774 17.5663 15.7734 17.5684C15.7729 17.5389 15.7723 17.5095 15.7718 17.4792C15.7664 17.1727 15.7627 16.8661 15.76 16.5596C15.7588 16.4452 15.7571 16.3308 15.755 16.2164C15.752 16.052 15.7506 15.8875 15.7496 15.723C15.7483 15.6719 15.747 15.6209 15.7457 15.5682C15.7456 15.2139 15.7456 15.2139 15.8861 15.0212C16.0585 14.9038 16.1548 14.8982 16.3593 14.9317C16.4661 15.0027 16.4661 15.0027 16.5547 15.127C16.5829 15.2778 16.5793 15.4264 16.5768 15.5794C16.5769 15.6252 16.5769 15.6709 16.5769 15.7181C16.5768 15.8692 16.5753 16.0203 16.5737 16.1714C16.5734 16.2762 16.5731 16.3811 16.5729 16.4859C16.5721 16.7617 16.5702 17.0375 16.5681 17.3133C16.5661 17.5948 16.5652 17.8763 16.5642 18.1577C16.5621 18.71 16.5588 19.2622 16.5547 19.8145C16.6306 19.8141 16.6306 19.8141 16.7081 19.8138C17.1858 19.8118 17.6635 19.8104 18.1413 19.8094C18.3869 19.8089 18.6325 19.8082 18.8781 19.8071C19.1152 19.806 19.3523 19.8055 19.5895 19.8052C19.6798 19.805 19.7701 19.8047 19.8605 19.8041C19.9873 19.8034 20.1141 19.8033 20.2409 19.8034C20.278 19.803 20.3152 19.8027 20.3534 19.8023C20.6311 19.8034 20.8835 19.8267 21.1133 19.998C21.1472 20.0325 21.1811 20.067 21.2161 20.1025C21.2552 20.1416 21.2943 20.1807 21.3345 20.221C21.3755 20.2632 21.4164 20.3054 21.4586 20.3489C21.5015 20.3921 21.5444 20.4353 21.5885 20.4799C21.7018 20.5942 21.8145 20.7091 21.9269 20.8242C22.042 20.9418 22.1578 21.0588 22.2736 21.1757C22.5001 21.4049 22.7259 21.6348 22.9511 21.8652C23.1101 21.7958 23.2131 21.7118 23.3335 21.5877C23.3696 21.5509 23.4056 21.5141 23.4427 21.4761C23.4812 21.4364 23.5197 21.3966 23.5594 21.3556C23.6417 21.2718 23.7241 21.188 23.8065 21.1042C23.936 20.972 24.0652 20.8396 24.1941 20.7069C24.3187 20.5787 24.4441 20.4514 24.5695 20.3241C24.6077 20.2843 24.6459 20.2446 24.6853 20.2036C24.7218 20.1668 24.7583 20.1299 24.7959 20.092C24.8275 20.0595 24.8591 20.0271 24.8917 19.9937C26.113 19.0904 27.9262 19.8145 29.4453 19.8145C29.4453 16.8174 29.4453 13.8203 29.4453 10.7324C25.1914 10.7324 20.9375 10.7324 16.5547 10.7324C16.5547 11.7315 16.5547 12.7305 16.5547 13.7598C16.4082 13.9551 16.4082 13.9551 16.2403 13.9978C15.9996 14.0063 15.9996 14.0063 15.8711 13.9063C15.7622 13.7381 15.7608 13.5952 15.76 13.3976C15.7595 13.334 15.7591 13.2705 15.7586 13.205C15.7586 13.1357 15.7586 13.0665 15.7587 12.9972C15.7585 12.926 15.7583 12.8547 15.7581 12.7834C15.7577 12.6341 15.7577 12.4848 15.758 12.3354C15.7583 12.1445 15.7575 11.9537 15.7563 11.7628C15.7556 11.6156 15.7556 11.4684 15.7557 11.3212C15.7557 11.2508 15.7554 11.1805 15.7549 11.1101C15.7543 11.0115 15.7548 10.9129 15.7552 10.8143C15.7552 10.7583 15.7552 10.7023 15.7551 10.6446C15.7821 10.4141 15.8595 10.2631 16.0133 10.0906C16.2404 9.95412 16.4501 9.97288 16.7105 9.97488ZM12.7949 18.3496C12.7949 21.8462 12.7949 25.3428 12.7949 28.9453C15.5463 28.9537 15.5463 28.9537 18.2977 28.9599C18.8311 28.9621 18.8311 28.9621 19.0811 28.9634C19.2549 28.9642 19.4288 28.9645 19.6026 28.9644C19.825 28.9644 20.0474 28.9653 20.2697 28.9669C20.3509 28.9673 20.4322 28.9674 20.5134 28.9671C21.2144 28.965 21.7739 29.092 22.3652 29.4824C22.4465 29.5315 22.5278 29.5803 22.6093 29.6289C22.6578 28.7542 22.6937 27.8798 22.7156 27.004C22.7261 26.597 22.7403 26.1909 22.7641 25.7844C22.9131 23.5118 22.9131 23.5118 21.9247 21.5354C21.0463 20.631 20.0791 20.4082 18.8681 20.3899C18.3695 20.3861 17.8723 20.4075 17.3745 20.4345C16.9384 20.4579 16.502 20.4674 16.0653 20.477C15.6196 20.487 15.1742 20.4981 14.7289 20.5183C14.6614 20.5212 14.5939 20.5241 14.5264 20.527C14.4015 20.5325 14.2767 20.5386 14.1519 20.5454C14.0971 20.5478 14.0424 20.5501 13.986 20.5526C13.9383 20.555 13.8907 20.5574 13.8417 20.5599C13.7226 20.5469 13.7226 20.5469 13.6339 20.484C13.5387 20.3462 13.5617 20.2204 13.5761 20.0586C13.6738 19.9121 13.6738 19.9121 13.7652 19.8792C13.8667 19.8637 13.9635 19.8556 14.0661 19.8533C14.1042 19.8523 14.1423 19.8513 14.1816 19.8503C14.2222 19.8495 14.2629 19.8487 14.3047 19.8478C14.3467 19.8468 14.3887 19.8458 14.432 19.8448C14.5658 19.8416 14.6996 19.8387 14.8335 19.8358C14.9243 19.8337 15.0152 19.8316 15.106 19.8294C15.3285 19.8242 15.5509 19.8193 15.7734 19.8145C15.7734 19.3311 15.7734 18.8477 15.7734 18.3496C14.7905 18.3496 13.8076 18.3496 12.7949 18.3496ZM30.2265 18.3496C30.2265 18.833 30.2265 19.3164 30.2265 19.8145C30.4285 19.8181 30.4285 19.8181 30.6345 19.8217C30.7653 19.8244 30.896 19.8272 31.0267 19.83C31.1174 19.8318 31.2081 19.8335 31.2988 19.8351C31.4294 19.8373 31.5599 19.8401 31.6904 19.8431C31.751 19.8439 31.751 19.8439 31.8128 19.8448C32.0188 19.85 32.19 19.8593 32.375 19.961C32.4494 20.1099 32.4353 20.2365 32.4238 20.4004C32.3663 20.4842 32.3663 20.4842 32.2773 20.5469C32.1583 20.5599 32.1583 20.5599 32.014 20.5526C31.9318 20.549 31.9318 20.549 31.8481 20.5454C31.7879 20.5421 31.7277 20.5388 31.6657 20.5355C31.5683 20.5312 31.471 20.5269 31.3736 20.5227C31.3043 20.5198 31.2351 20.5167 31.1658 20.5136C30.7163 20.4934 30.2664 20.4843 29.8166 20.4744C29.3802 20.4647 28.9445 20.4519 28.5087 20.4282C26.2758 20.2969 26.2758 20.2969 24.3348 21.2766C23.4474 22.1328 23.2144 23.0721 23.1915 24.2586C23.1859 24.808 23.2108 25.3557 23.2429 25.9041C23.2663 26.3112 23.2772 26.7184 23.2874 27.126C23.3086 27.9611 23.3444 28.7949 23.3906 29.6289C23.4267 29.6056 23.4628 29.5822 23.5 29.5581C23.5478 29.5274 23.5956 29.4967 23.6448 29.4651C23.7156 29.4195 23.7156 29.4195 23.7879 29.3729C24.207 29.1158 24.6325 28.9827 25.1254 28.9806C25.1777 28.9801 25.1777 28.9801 25.231 28.9797C25.3465 28.9789 25.462 28.9787 25.5776 28.9786C25.6608 28.9781 25.7441 28.9776 25.8274 28.9771C26.0526 28.9758 26.2779 28.975 26.5031 28.9744C26.7388 28.9736 26.9746 28.9723 27.2103 28.9711C27.6562 28.9688 28.1022 28.967 28.5482 28.9654C29.0561 28.9635 29.5639 28.9611 30.0718 28.9586C31.1162 28.9536 32.1606 28.9492 33.205 28.9453C33.2052 28.9179 33.2054 28.8904 33.2055 28.8621C33.2095 28.1938 33.214 27.5254 33.2191 26.8571C33.2215 26.5339 33.2238 26.2106 33.2256 25.8874C33.2274 25.5756 33.2297 25.2637 33.2323 24.9519C33.2332 24.8328 33.2339 24.7138 33.2345 24.5948C33.2353 24.4282 33.2367 24.2616 33.2383 24.095C33.2385 24.021 33.2385 24.021 33.2386 23.9455C33.2447 23.4369 33.2447 23.4369 33.4004 23.2813C33.4978 23.2713 33.4978 23.2713 33.617 23.2691C33.6562 23.2678 33.6955 23.2665 33.7359 23.2652C33.7702 23.2705 33.8045 23.2758 33.8398 23.2813C33.9565 23.4563 33.9514 23.5809 33.9505 23.7829C33.9508 23.8194 33.951 23.8558 33.9512 23.8934C33.9518 24.0158 33.9517 24.1383 33.9517 24.2608C33.9519 24.3484 33.9523 24.4361 33.9527 24.5237C33.9535 24.7621 33.9537 25.0005 33.9538 25.2389C33.9539 25.4378 33.9543 25.6367 33.9546 25.8356C33.9554 26.3047 33.9556 26.7739 33.9556 27.2431C33.9555 27.7273 33.9565 28.2116 33.9581 28.6958C33.9594 29.1113 33.9599 29.5268 33.9598 29.9423C33.9598 30.1906 33.9601 30.4389 33.9611 30.6871C33.962 30.9206 33.9621 31.1541 33.9613 31.3876C33.9612 31.4733 33.9615 31.5591 33.9621 31.6448C33.9628 31.7618 33.9624 31.8787 33.9616 31.9957C33.9624 32.0466 33.9624 32.0466 33.9631 32.0986C33.9608 32.2658 33.9399 32.3593 33.8505 32.5022C33.6581 32.6891 33.5157 32.7173 33.2496 32.7174C33.1576 32.7178 33.1576 32.7178 33.0637 32.7182C32.9956 32.7179 32.9274 32.7177 32.8592 32.7175C32.7869 32.7176 32.7145 32.7178 32.6422 32.718C32.4431 32.7184 32.2441 32.7182 32.0451 32.7179C31.8305 32.7176 31.616 32.718 31.4014 32.7182C30.981 32.7187 30.5606 32.7186 30.1401 32.7183C29.7985 32.7181 29.4569 32.7181 29.1153 32.7182C29.0668 32.7182 29.0182 32.7182 28.9682 32.7182C28.8695 32.7182 28.7709 32.7183 28.6722 32.7183C27.7465 32.7186 26.8208 32.7183 25.8951 32.7177C25.1004 32.7173 24.3056 32.7174 23.5109 32.7178C22.5886 32.7183 21.6663 32.7186 20.7439 32.7183C20.6456 32.7182 20.5473 32.7182 20.449 32.7182C20.4007 32.7181 20.3523 32.7181 20.3025 32.7181C19.9612 32.718 19.6199 32.7182 19.2786 32.7184C18.8628 32.7187 18.447 32.7186 18.0313 32.7181C17.819 32.7178 17.6068 32.7177 17.3945 32.718C17.2004 32.7183 17.0063 32.7182 16.8121 32.7177C16.7417 32.7176 16.6714 32.7176 16.601 32.7178C16.5056 32.7181 16.4102 32.7178 16.3148 32.7174C16.2617 32.7174 16.2087 32.7174 16.154 32.7173C16.0157 32.7049 15.935 32.6879 15.8222 32.6074C15.778 32.4369 15.7554 32.3182 15.8131 32.1497C15.8711 32.0703 15.8711 32.0703 15.9687 32.0215C16.0566 32.0164 16.1446 32.0143 16.2326 32.0138C16.2886 32.0133 16.3446 32.0128 16.4023 32.0123C16.464 32.012 16.5258 32.0118 16.5894 32.0115C16.6548 32.011 16.7203 32.0105 16.7857 32.01C16.9637 32.0087 17.1416 32.0077 17.3196 32.0067C17.5054 32.0056 17.6913 32.0043 17.8771 32.003C18.2292 32.0005 18.5813 31.9983 18.9334 31.9962C19.3341 31.9938 19.7349 31.9911 20.1357 31.9884C20.9602 31.9829 21.7848 31.9777 22.6093 31.9727C22.6114 31.8571 22.6129 31.7415 22.6141 31.6259C22.615 31.5615 22.6159 31.4972 22.6168 31.4309C22.5981 30.953 22.4098 30.5505 22.0722 30.2149C21.5272 29.752 21.0118 29.7051 20.3281 29.7099C20.2458 29.71 20.1635 29.71 20.0812 29.7099C19.8587 29.7098 19.6363 29.7107 19.4139 29.7117C19.1811 29.7126 18.9482 29.7127 18.7154 29.7129C18.275 29.7134 17.8345 29.7146 17.3941 29.716C16.8925 29.7177 16.3908 29.7185 15.8892 29.7192C14.8578 29.7207 13.8263 29.7234 12.7949 29.7266C12.7949 30.4678 12.7949 31.209 12.7949 31.9727C13.3829 31.9829 13.3829 31.9829 13.9708 31.9916C14.0446 31.9932 14.1183 31.9948 14.192 31.9965C14.2303 31.9968 14.2685 31.9971 14.308 31.9974C14.5758 32.0045 14.5758 32.0046 14.699 32.0858C14.7845 32.2291 14.7679 32.3482 14.748 32.5098C14.6783 32.6167 14.6783 32.6167 14.5527 32.7051C14.3968 32.7343 14.2429 32.7325 14.0846 32.731C14.039 32.7312 13.9934 32.7314 13.9464 32.7316C13.8499 32.7317 13.7535 32.7314 13.657 32.7306C13.5099 32.7295 13.3628 32.7305 13.2157 32.7318C13.1218 32.7317 13.028 32.7314 12.9341 32.731C12.8903 32.7314 12.8465 32.7318 12.8014 32.7322C12.5318 32.7282 12.3724 32.692 12.1601 32.5098C12.0603 32.36 12.0502 32.3301 12.0497 32.1615C12.0493 32.1202 12.049 32.0789 12.0486 32.0364C12.0487 31.991 12.0488 31.9457 12.0489 31.8989C12.0486 31.8508 12.0483 31.8026 12.048 31.7529C12.0472 31.5908 12.047 31.4286 12.0469 31.2664C12.0464 31.1505 12.046 31.0345 12.0454 30.9186C12.0442 30.6359 12.0435 30.3533 12.0429 30.0706C12.0422 29.7417 12.041 29.4129 12.0398 29.084C12.0375 28.4975 12.0358 27.9111 12.0342 27.3246C12.0328 26.7548 12.0311 26.1851 12.0291 25.6153C12.029 25.5802 12.0289 25.5451 12.0288 25.5089C12.0282 25.3328 12.0276 25.1566 12.027 24.9805C12.0219 23.5189 12.0175 22.0573 12.0136 20.5957C11.7558 20.5957 11.498 20.5957 11.2324 20.5957C11.2324 24.8496 11.2324 29.1035 11.2324 33.4863C14.7727 33.4947 14.7727 33.4947 18.3131 33.5009C18.997 33.5031 18.997 33.5031 19.3168 33.5044C19.5408 33.5052 19.7648 33.5055 19.9888 33.5055C20.2743 33.5054 20.5598 33.5063 20.8452 33.5079C20.9502 33.5083 21.0551 33.5084 21.16 33.5081C21.3015 33.5078 21.4429 33.5087 21.5844 33.5098C21.6256 33.5095 21.6669 33.5091 21.7094 33.5087C21.9023 33.5115 22 33.5205 22.167 33.6253C22.2675 33.7305 22.2675 33.7305 22.3622 33.877C22.4811 34.0499 22.5663 34.1275 22.7558 34.2188C22.9921 34.2565 23.1809 34.2473 23.3998 34.1486C23.5572 34.0051 23.6799 33.8501 23.8049 33.678C23.8789 33.584 23.8789 33.584 23.9765 33.5352C24.1174 33.5299 24.2571 33.5276 24.3979 33.5274C24.442 33.5272 24.486 33.527 24.5314 33.5267C24.6803 33.526 24.8293 33.5256 24.9782 33.5251C25.0863 33.5247 25.1943 33.5242 25.3024 33.5237C25.5926 33.5223 25.8828 33.5213 26.1731 33.5203C26.4451 33.5194 26.7171 33.5182 26.9891 33.517C27.7855 33.5136 28.5818 33.5107 29.3781 33.5077C31.1566 33.5007 32.9352 33.4936 34.7675 33.4863C34.7675 29.2324 34.7675 24.9785 34.7675 20.5957C34.5097 20.5957 34.2519 20.5957 33.9863 20.5957C33.9845 20.6998 33.9826 20.8038 33.9808 20.911C33.9785 21.0118 33.976 21.1127 33.9735 21.2135C33.9719 21.2836 33.9705 21.3536 33.9694 21.4237C33.9677 21.5244 33.9652 21.6251 33.9625 21.7258C33.9612 21.7864 33.9599 21.847 33.9586 21.9095C33.9375 22.0606 33.9375 22.0606 33.8687 22.1536C33.7197 22.256 33.5757 22.221 33.4004 22.207C33.2181 22.0248 33.2468 21.8129 33.2438 21.5647C33.2434 21.5299 33.2429 21.4951 33.2424 21.4593C33.2408 21.3446 33.2396 21.2299 33.2384 21.1153C33.2374 21.0356 33.2364 20.956 33.2354 20.8764C33.2327 20.667 33.2302 20.4577 33.2279 20.2483C33.225 19.997 33.2218 19.7457 33.2186 19.4944C33.2138 19.1128 33.2095 18.7312 33.205 18.3496C32.2221 18.3496 31.2392 18.3496 30.2265 18.3496ZM23.7808 30.3772C23.3858 30.9036 23.3906 31.2872 23.3906 31.9727C26.6294 31.9727 29.8681 31.9727 33.205 31.9727C33.205 31.2315 33.205 30.4902 33.205 29.7266C32.1257 29.7222 31.0463 29.7186 29.9669 29.7165C29.4657 29.7155 28.9645 29.7141 28.4633 29.7118C28.0263 29.7099 27.5893 29.7086 27.1523 29.7082C26.921 29.7079 26.6898 29.7074 26.4585 29.7059C26.2406 29.7046 26.0226 29.7042 25.8046 29.7045C25.7249 29.7044 25.6452 29.704 25.5655 29.7033C24.8522 29.6969 24.2676 29.8137 23.7808 30.3772Z" fill="#6B81E8"/>
<path d="M23.412 11.5961C23.6143 11.7786 23.7506 11.9703 23.8673 12.2158C23.8907 12.2648 23.9141 12.3138 23.9381 12.3643C23.9619 12.4149 23.9857 12.4655 24.0101 12.5177C24.0345 12.5685 24.0588 12.6194 24.0839 12.6717C24.2786 13.0825 24.2786 13.0825 24.3184 13.2715C24.3911 13.2811 24.3911 13.2811 24.4653 13.2908C24.6466 13.3148 24.8278 13.3398 25.0089 13.3651C25.087 13.3758 25.1652 13.3863 25.2434 13.3966C25.3564 13.4114 25.4692 13.4272 25.582 13.4432C25.6338 13.4497 25.6338 13.4497 25.6867 13.4563C26.0019 13.5025 26.2381 13.6055 26.4393 13.8635C26.5454 14.0789 26.5695 14.3079 26.5156 14.541C26.3697 14.8435 26.1567 15.0591 25.9083 15.2795C25.8144 15.3645 25.7207 15.4495 25.6284 15.5363C25.5391 15.6152 25.5391 15.6152 25.4469 15.6744C25.3448 15.7474 25.2979 15.7928 25.2461 15.9082C25.2489 16.1706 25.3023 16.4216 25.356 16.6773C25.5398 17.5873 25.5398 17.5873 25.3926 17.959C25.244 18.153 25.0835 18.263 24.8555 18.3496C24.5239 18.3896 24.295 18.2657 24.0071 18.1207C23.9634 18.0995 23.9197 18.0782 23.8747 18.0564C23.6256 17.9342 23.3856 17.8043 23.1506 17.6567C23.0134 17.6034 22.9445 17.6224 22.8047 17.666C22.708 17.7104 22.6129 17.758 22.519 17.8079C22.4385 17.8503 22.4385 17.8503 22.3565 17.8936C22.301 17.9232 22.2454 17.9529 22.1882 17.9834C22.0778 18.042 21.9673 18.1005 21.8567 18.1589C21.8079 18.1849 21.7591 18.2109 21.7088 18.2378C21.4705 18.3581 21.2567 18.3976 20.9952 18.3197C20.7649 18.2208 20.6362 18.0934 20.5006 17.8852C20.3816 17.5206 20.4882 17.122 20.5586 16.7566C20.6521 16.311 20.6521 16.311 20.6563 15.8594C20.5996 15.7719 20.5996 15.7719 20.5067 15.7129C20.2866 15.5383 20.0849 15.3507 19.8842 15.1544C19.852 15.1241 19.8199 15.0938 19.7868 15.0626C19.5616 14.8415 19.3971 14.6236 19.3822 14.2941C19.4003 14.0534 19.4775 13.8934 19.6309 13.7109C19.8523 13.5356 20.0076 13.4905 20.2878 13.4758C20.3578 13.4704 20.4279 13.4648 20.4979 13.4589C20.5518 13.4543 20.5518 13.4543 20.6068 13.4497C21.1621 13.4093 21.1621 13.4093 21.6526 13.18C21.8222 12.9645 21.9089 12.7207 21.9868 12.4601C22.0847 12.1493 22.2494 11.7599 22.5239 11.5717C22.8343 11.4734 23.1154 11.4504 23.412 11.5961ZM22.9512 12.2949C22.9382 12.3197 22.9252 12.3445 22.9118 12.37C22.8935 12.4048 22.8752 12.4397 22.8564 12.4756C22.8361 12.5142 22.8158 12.5528 22.7949 12.5927C22.7504 12.6774 22.7057 12.762 22.6609 12.8465C22.5601 13.0369 22.4599 13.2272 22.3647 13.4205C22.3227 13.5038 22.3227 13.5038 22.2798 13.5889C22.2559 13.6377 22.232 13.6866 22.2073 13.7369C22.0386 13.9728 21.8174 14.0109 21.5445 14.0592C21.4367 14.0759 21.3288 14.092 21.2208 14.1077C21.1398 14.12 21.1398 14.12 21.0571 14.1327C20.7935 14.1727 20.5296 14.2108 20.2656 14.2481C20.2508 14.3909 20.2508 14.3909 20.323 14.4693C20.3627 14.5083 20.3627 14.5083 20.4032 14.5481C20.4471 14.5917 20.4471 14.5917 20.4919 14.6361C20.523 14.6662 20.5541 14.6962 20.5861 14.7272C20.6158 14.7567 20.6456 14.7862 20.6762 14.8165C20.8238 14.9617 20.9737 15.0998 21.1337 15.2313C21.311 15.3822 21.4214 15.5131 21.4587 15.7491C21.4592 16.1921 21.3923 16.6101 21.3074 17.0443C21.2984 17.091 21.2894 17.1378 21.2802 17.1859C21.2717 17.2279 21.2633 17.2698 21.2546 17.313C21.2335 17.4301 21.2335 17.4301 21.291 17.5684C21.3398 17.5429 21.3398 17.5429 21.3895 17.5169C21.5377 17.4394 21.686 17.362 21.8342 17.2846C21.9109 17.2445 21.9109 17.2445 21.9891 17.2036C22.0881 17.1519 22.1873 17.1005 22.2867 17.0494C22.3808 16.9999 22.4728 16.9462 22.5632 16.8903C22.8566 16.7794 23.117 16.7862 23.4094 16.9006C23.5865 16.9879 23.7588 17.0808 23.9308 17.1777C24.0201 17.2268 24.1095 17.2755 24.1991 17.324C24.2793 17.3677 24.3591 17.4122 24.4389 17.4568C24.5539 17.5269 24.5539 17.5269 24.6602 17.5195C24.6364 17.1478 24.5818 16.7849 24.5145 16.4189C24.4436 16.0199 24.4235 15.7156 24.6602 15.3711C24.7983 15.2115 24.9473 15.0654 25.0996 14.9194C25.139 14.8809 25.1784 14.8424 25.219 14.8027C25.2922 14.7312 25.3656 14.6599 25.4393 14.5888C25.5387 14.4925 25.6368 14.395 25.7344 14.2969C25.3395 14.1872 24.9381 14.1379 24.5322 14.0857C23.9876 14.0085 23.9876 14.0085 23.7813 13.8086C23.6866 13.6681 23.6114 13.5212 23.5371 13.3691C23.5163 13.328 23.4954 13.2868 23.4739 13.2443C23.4129 13.1235 23.3529 13.0022 23.293 12.8809C23.2609 12.8171 23.2287 12.7533 23.1965 12.6896C23.1303 12.5583 23.0648 12.4268 23 12.2949C22.9839 12.2949 22.9678 12.2949 22.9512 12.2949Z" fill="#6B81E8"/>
<path d="M25.7335 22.0786C25.8039 22.0783 25.8742 22.0779 25.9446 22.0775C26.1354 22.0766 26.3261 22.0772 26.5169 22.0782C26.7166 22.079 26.9164 22.0786 27.1162 22.0783C27.4516 22.0781 27.787 22.0789 28.1225 22.0802C28.5101 22.0818 28.8978 22.0818 29.2855 22.0809C29.6586 22.0802 30.0317 22.0805 30.4048 22.0813C30.5635 22.0817 30.7222 22.0816 30.8809 22.0813C31.0678 22.0809 31.2547 22.0815 31.4417 22.0828C31.5102 22.0831 31.5788 22.0832 31.6473 22.0828C31.741 22.0824 31.8347 22.0833 31.9283 22.0842C31.9807 22.0844 32.0331 22.0845 32.0871 22.0847C32.2631 22.1154 32.3456 22.1814 32.4727 22.3047C32.5051 22.4023 32.5051 22.4023 32.5032 22.5C32.5038 22.5322 32.5044 22.5644 32.5051 22.5977C32.4545 22.7499 32.3597 22.8026 32.2285 22.8906C32.0871 22.9153 32.0871 22.9153 31.9283 22.9158C31.8679 22.9164 31.8076 22.917 31.7454 22.9176C31.6788 22.9173 31.6123 22.917 31.5458 22.9167C31.4754 22.917 31.4051 22.9174 31.3347 22.9179C31.1439 22.919 30.9532 22.9189 30.7624 22.9185C30.6031 22.9182 30.4438 22.9186 30.2844 22.9189C29.9086 22.9198 29.5327 22.9196 29.1569 22.9188C28.7692 22.9179 28.3815 22.9187 27.9938 22.9203C27.6609 22.9216 27.3279 22.9219 26.9949 22.9215C26.7961 22.9213 26.5972 22.9214 26.3984 22.9224C26.2115 22.9233 26.0246 22.923 25.8377 22.9218C25.7691 22.9216 25.7005 22.9217 25.632 22.9224C25.0493 22.9272 25.0493 22.9272 24.888 22.7758C24.7868 22.6149 24.7678 22.54 24.8066 22.3535C25.022 22.0111 25.3663 22.0752 25.7335 22.0786Z" fill="#6B81E8"/>
<path d="M14.0717 22.0843C14.1321 22.0836 14.1925 22.083 14.2547 22.0824C14.3212 22.0827 14.3877 22.083 14.4542 22.0833C14.5246 22.083 14.5949 22.0826 14.6653 22.0821C14.8561 22.081 15.0468 22.0811 15.2376 22.0815C15.3969 22.0818 15.5563 22.0814 15.7156 22.0811C16.0915 22.0802 16.4673 22.0804 16.8432 22.0812C17.2308 22.0821 17.6185 22.0813 18.0062 22.0797C18.3392 22.0784 18.6722 22.0781 19.0051 22.0785C19.204 22.0787 19.4028 22.0786 19.6016 22.0776C19.7885 22.0767 19.9754 22.077 20.1624 22.0782C20.2309 22.0784 20.2995 22.0783 20.368 22.0777C20.9508 22.0728 20.9508 22.0728 21.1121 22.2242C21.2133 22.3851 21.2322 22.46 21.1934 22.6465C21.1132 22.774 21.0784 22.821 20.9492 22.8906C20.7224 22.9281 20.4957 22.9235 20.2665 22.9214C20.1961 22.9217 20.1258 22.9221 20.0554 22.9225C19.8647 22.9234 19.6739 22.9228 19.4831 22.9218C19.2834 22.921 19.0836 22.9214 18.8839 22.9217C18.5484 22.9219 18.213 22.9211 17.8776 22.9198C17.4899 22.9182 17.1022 22.9182 16.7146 22.9191C16.3415 22.9198 15.9684 22.9195 15.5953 22.9187C15.4365 22.9183 15.2778 22.9184 15.1191 22.9187C14.9322 22.9191 14.7453 22.9185 14.5584 22.9172C14.4898 22.9169 14.4213 22.9168 14.3527 22.9172C14.259 22.9176 14.1654 22.9167 14.0717 22.9158C13.9931 22.9156 13.9931 22.9156 13.913 22.9153C13.7369 22.8846 13.6544 22.8186 13.5274 22.6953C13.4949 22.5977 13.4949 22.5977 13.4968 22.5C13.4962 22.4678 13.4956 22.4356 13.4949 22.4024C13.5831 22.1369 13.8207 22.0849 14.0717 22.0843Z" fill="#6B81E8"/>
<path d="M25.3003 24.3736C25.3615 24.373 25.4227 24.3724 25.4858 24.3718C25.5535 24.3723 25.6212 24.3729 25.6889 24.3735C25.7603 24.3732 25.8317 24.3729 25.9031 24.3724C26.0969 24.3715 26.2906 24.3722 26.4844 24.3731C26.6872 24.3739 26.89 24.3735 27.0928 24.3732C27.4333 24.373 27.7738 24.3738 28.1143 24.3752C28.5081 24.3767 28.9018 24.3767 29.2956 24.3759C29.6743 24.3751 30.053 24.3754 30.4317 24.3763C30.5929 24.3766 30.7541 24.3766 30.9153 24.3762C31.1051 24.3758 31.2949 24.3764 31.4847 24.3778C31.5544 24.3781 31.6241 24.3781 31.6938 24.3777C31.7888 24.3773 31.8839 24.3782 31.979 24.3792C32.0588 24.3794 32.0588 24.3794 32.1402 24.3796C32.3112 24.4104 32.3692 24.4621 32.4727 24.5996C32.4954 24.7813 32.4975 24.8942 32.4116 25.0574C32.2487 25.2087 32.0576 25.1917 31.8439 25.1921C31.7559 25.1924 31.7559 25.1924 31.6662 25.1927C31.5699 25.1927 31.5699 25.1927 31.4716 25.1927C31.4032 25.1928 31.3348 25.193 31.2663 25.1932C31.0806 25.1936 30.8949 25.1937 30.7091 25.1937C30.5931 25.1938 30.4771 25.1939 30.361 25.194C29.9561 25.1944 29.5512 25.1946 29.1463 25.1946C28.769 25.1946 28.3916 25.1951 28.0142 25.1959C27.6901 25.1965 27.366 25.1968 27.042 25.1967C26.8484 25.1967 26.6549 25.1969 26.4614 25.1974C26.2794 25.1979 26.0974 25.1979 25.9154 25.1975C25.8169 25.1974 25.7183 25.1978 25.6198 25.1983C25.561 25.198 25.5022 25.1978 25.4416 25.1976C25.3906 25.1977 25.3395 25.1977 25.287 25.1977C25.1392 25.1848 25.0357 25.1563 24.9043 25.0879C24.79 24.9164 24.7824 24.8504 24.8066 24.6485C24.9471 24.4212 25.0356 24.3738 25.3003 24.3736Z" fill="#6B81E8"/>
<path d="M14.021 24.3792C14.0822 24.3785 14.1434 24.3779 14.2065 24.3773C14.2742 24.3776 14.3419 24.3779 14.4096 24.3782C14.481 24.3779 14.5524 24.3775 14.6238 24.377C14.8176 24.3759 15.0113 24.376 15.2051 24.3764C15.3669 24.3767 15.5287 24.3763 15.6904 24.376C16.072 24.3751 16.4535 24.3753 16.835 24.3761C17.2288 24.377 17.6225 24.3762 18.0163 24.3746C18.3543 24.3733 18.6923 24.373 19.0303 24.3734C19.2322 24.3736 19.4341 24.3735 19.636 24.3725C19.8258 24.3716 20.0156 24.3719 20.2054 24.3731C20.2751 24.3733 20.3448 24.3732 20.4145 24.3726C20.5095 24.3718 20.6046 24.3727 20.6997 24.3736C20.7529 24.3736 20.8061 24.3737 20.8609 24.3737C20.998 24.4043 20.998 24.4043 21.1128 24.5189C21.2113 24.6773 21.2246 24.7581 21.1934 24.9414C21.0844 25.0804 21.02 25.1294 20.8516 25.1855C20.758 25.1902 20.6642 25.1919 20.5705 25.1921C20.5119 25.1923 20.4533 25.1925 20.3929 25.1927C20.3286 25.1927 20.2642 25.1927 20.1978 25.1926C20.1294 25.1928 20.061 25.1929 19.9926 25.1931C19.8067 25.1936 19.6207 25.1937 19.4348 25.1937C19.2796 25.1937 19.1244 25.1939 18.9692 25.1941C18.603 25.1945 18.2369 25.1946 17.8707 25.1946C17.493 25.1946 17.1152 25.1951 16.7375 25.1958C16.4132 25.1965 16.0889 25.1967 15.7647 25.1967C15.571 25.1967 15.3773 25.1968 15.1836 25.1974C15.0014 25.1978 14.8192 25.1978 14.637 25.1975C14.5383 25.1974 14.4397 25.1978 14.341 25.1982C14.2821 25.198 14.2233 25.1978 14.1626 25.1976C14.086 25.1976 14.086 25.1976 14.0078 25.1977C13.86 25.1847 13.7564 25.1564 13.625 25.0879C13.5039 24.9062 13.5047 24.8145 13.5273 24.5996C13.6741 24.4037 13.7815 24.3798 14.021 24.3792Z" fill="#6B81E8"/>
<path d="M26.4927 30.4282C26.5548 30.4278 26.6169 30.4275 26.6809 30.4271C26.8509 30.4262 27.0208 30.4268 27.1908 30.4278C27.3688 30.4286 27.5469 30.4282 27.7249 30.4279C28.0237 30.4277 28.3226 30.4285 28.6214 30.4298C28.9669 30.4314 29.3123 30.4314 29.6578 30.4306C29.9903 30.4298 30.3228 30.4301 30.6553 30.4309C30.7967 30.4313 30.9381 30.4312 31.0796 30.4309C31.277 30.4304 31.4744 30.4316 31.6719 30.4329C31.76 30.4325 31.76 30.4325 31.8498 30.432C31.9036 30.4326 31.9573 30.4332 32.0127 30.4339C32.0594 30.434 32.106 30.4341 32.1541 30.4343C32.3133 30.4662 32.3718 30.5299 32.4727 30.6543C32.5003 30.752 32.5003 30.752 32.5001 30.8496C32.5012 30.8818 32.5023 30.9141 32.5034 30.9473C32.4516 31.1118 32.3776 31.1523 32.2285 31.2402C32.0281 31.2698 31.8288 31.2664 31.6265 31.2647C31.5654 31.265 31.5043 31.2653 31.4414 31.2655C31.2742 31.266 31.1071 31.2657 30.9399 31.2649C30.7648 31.2642 30.5897 31.2645 30.4145 31.2647C30.1205 31.2648 29.8264 31.2641 29.5324 31.263C29.1926 31.2617 28.8529 31.2616 28.5132 31.2622C28.186 31.2627 27.8589 31.2624 27.5318 31.2617C27.3927 31.2615 27.2537 31.2615 27.1146 31.2617C26.9203 31.262 26.726 31.261 26.5318 31.26C26.4453 31.2603 26.4453 31.2603 26.3571 31.2606C26.3041 31.2601 26.2511 31.2597 26.1965 31.2592C26.1277 31.259 26.1277 31.259 26.0574 31.2588C25.9038 31.2365 25.8109 31.1839 25.6856 31.0937C25.6425 31.0026 25.6425 31.0026 25.6306 30.9045C25.6229 30.8564 25.6229 30.8564 25.615 30.8073C25.6418 30.6788 25.6953 30.6019 25.7898 30.5117C25.998 30.3911 26.2593 30.4259 26.4927 30.4282Z" fill="#6B81E8"/>
<path d="M13.9873 30.4339C14.0411 30.4332 14.0948 30.4326 14.1502 30.432C14.2089 30.4323 14.2676 30.4326 14.3281 30.433C14.3902 30.4325 14.4522 30.4321 14.5161 30.4317C14.6861 30.4306 14.8561 30.4307 15.026 30.4312C15.168 30.4314 15.31 30.431 15.452 30.4307C15.7869 30.4299 16.1219 30.43 16.4568 30.4309C16.8023 30.4317 17.1477 30.4309 17.4931 30.4293C17.7898 30.428 18.0865 30.4277 18.3832 30.4281C18.5604 30.4283 18.7375 30.4282 18.9147 30.4272C19.1123 30.4262 19.3098 30.4271 19.5073 30.4282C19.5953 30.4273 19.5953 30.4273 19.685 30.4265C20.1261 30.4315 20.1261 30.4315 20.2781 30.5765C20.3653 30.7061 20.3938 30.753 20.3694 30.9046C20.3655 30.9369 20.3616 30.9693 20.3576 31.0026C20.2932 31.1386 20.2028 31.1733 20.0703 31.2402C19.9426 31.2588 19.9426 31.2588 19.8035 31.2592C19.7505 31.2597 19.6975 31.2601 19.6429 31.2606C19.5853 31.2604 19.5276 31.2602 19.4683 31.26C19.4072 31.2603 19.3461 31.2606 19.2832 31.261C19.116 31.2617 18.9488 31.2618 18.7817 31.2615C18.642 31.2614 18.5023 31.2617 18.3627 31.262C18.0332 31.2627 17.7037 31.2626 17.3741 31.262C17.0344 31.2615 16.6947 31.2622 16.3549 31.2635C16.063 31.2645 15.7711 31.2649 15.4791 31.2646C15.3049 31.2644 15.1306 31.2645 14.9563 31.2654C14.7621 31.2663 14.5678 31.2656 14.3735 31.2647C14.2871 31.2655 14.2871 31.2655 14.1989 31.2662C13.8094 31.2626 13.8094 31.2626 13.6137 31.1472C13.5204 31.0368 13.4951 30.9923 13.4999 30.8496C13.4998 30.8174 13.4997 30.7852 13.4997 30.752C13.5707 30.5012 13.7458 30.4346 13.9873 30.4339Z" fill="#6B81E8"/>
<path d="M25.3288 26.6432C25.3758 26.6429 25.4229 26.6425 25.4715 26.6421C25.5231 26.642 25.5747 26.6419 25.6278 26.6417C25.6822 26.6414 25.7366 26.6411 25.7927 26.6408C25.973 26.6398 26.1533 26.6392 26.3337 26.6388C26.3952 26.6386 26.4567 26.6384 26.5201 26.6382C26.8119 26.6372 27.1038 26.6365 27.3957 26.6361C27.7324 26.6356 28.0691 26.6344 28.4059 26.6324C28.6977 26.6307 28.9895 26.6302 29.2813 26.63C29.4054 26.6297 29.5295 26.6292 29.6536 26.6282C29.8271 26.6271 30.0005 26.6271 30.174 26.6274C30.2254 26.6268 30.2768 26.6262 30.3297 26.6255C30.5492 26.6271 30.6779 26.6281 30.8688 26.7434C30.9661 26.8538 30.9913 26.896 30.9864 27.041C30.9865 27.0732 30.9866 27.1055 30.9866 27.1387C30.9433 27.2919 30.8951 27.3376 30.7637 27.4316C30.5814 27.4622 30.4001 27.4588 30.2157 27.4577C30.1598 27.4581 30.1039 27.4585 30.0463 27.459C29.8612 27.4601 29.6762 27.4597 29.4911 27.4593C29.3627 27.4596 29.2342 27.4599 29.1058 27.4602C28.8365 27.4608 28.5673 27.4605 28.298 27.4598C27.9868 27.459 27.6756 27.4597 27.3644 27.4613C27.0649 27.4628 26.7654 27.4629 26.4659 27.4624C26.3385 27.4624 26.2111 27.4627 26.0837 27.4634C25.9057 27.4643 25.7279 27.4636 25.5499 27.4625C25.4971 27.463 25.4442 27.4636 25.3897 27.4642C25.0338 27.4597 25.0338 27.4597 24.8714 27.317C24.7928 27.1599 24.7808 27.0681 24.8066 26.8945C24.9358 26.667 25.08 26.6445 25.3288 26.6432Z" fill="#6B81E8"/>
<path d="M15.8245 26.6259C15.8789 26.6256 15.9333 26.6254 15.9894 26.6251C16.1692 26.6245 16.3489 26.6253 16.5288 26.6262C16.6537 26.6262 16.7787 26.6261 16.9036 26.626C17.1655 26.6259 17.4274 26.6265 17.6893 26.6276C17.9917 26.6289 18.2942 26.629 18.5966 26.6284C18.888 26.6279 19.1793 26.6282 19.4707 26.6289C19.5945 26.6291 19.7183 26.6291 19.8421 26.6289C20.0151 26.6288 20.1881 26.6296 20.3611 26.6307C20.438 26.6303 20.438 26.6303 20.5164 26.63C20.9545 26.6345 20.9545 26.6345 21.1445 26.7969C21.2151 26.9379 21.2118 27.0311 21.1934 27.1875C21.0936 27.3333 21.0135 27.4189 20.8361 27.4541C20.6903 27.4632 20.5463 27.4641 20.4002 27.4625C20.3447 27.4628 20.2893 27.4632 20.2322 27.4635C20.0489 27.4644 19.8658 27.4634 19.6826 27.4624C19.5553 27.4624 19.428 27.4625 19.3008 27.4627C19.0341 27.4629 18.7674 27.4622 18.5007 27.4608C18.1925 27.4592 17.8844 27.4592 17.5762 27.4601C17.2795 27.4609 16.9828 27.4605 16.686 27.4597C16.5599 27.4594 16.4337 27.4595 16.3075 27.4598C16.1314 27.46 15.9552 27.459 15.7791 27.4577C15.7006 27.4582 15.7006 27.4582 15.6205 27.4587C15.2676 27.4541 15.2676 27.4541 15.1065 27.3385C15.0364 27.2291 15.0133 27.1701 15.0136 27.041C15.0125 27.0088 15.0114 26.9766 15.0103 26.9434C15.1255 26.5769 15.5139 26.623 15.8245 26.6259Z" fill="#6B81E8"/>
</g>
<defs>
<clipPath id="clip0_21_443">
<rect width="25" height="25" fill="white" transform="translate(10.5 10)"/>
</clipPath>
</defs>
</svg>
