<svg width="46" height="45" viewBox="0 0 46 45" fill="none" xmlns="http://www.w3.org/2000/svg">
<rect x="0.5" width="45" height="45" rx="6" fill="#DFE2FF"/>
<g clip-path="url(#clip0_21_477)">
<path d="M22.3551 27.9775C22.5737 28.1693 22.7792 28.3686 22.9512 28.6035C22.9512 28.6358 22.9512 28.668 22.9512 28.7012C22.9834 28.7012 23.0156 28.7012 23.0488 28.7012C23.0605 28.6658 23.0722 28.6304 23.0843 28.594C23.3077 28.1019 23.8675 27.7635 24.3544 27.5753C24.9205 27.3957 25.4702 27.4136 26.0523 27.4876C26.101 27.4936 26.1497 27.4995 26.2 27.5056C26.3594 27.5252 26.5189 27.5453 26.6783 27.5654C26.7898 27.5792 26.9013 27.5931 27.0127 27.607C27.2456 27.6361 27.4784 27.6654 27.7112 27.6948C28.0095 27.7325 28.3079 27.7694 28.6064 27.8061C28.8363 27.8345 29.0661 27.8634 29.2959 27.8924C29.4059 27.9063 29.516 27.9199 29.6261 27.9334C29.7797 27.9522 29.9332 27.9718 30.0867 27.9915C30.1548 27.9996 30.1548 27.9996 30.2242 28.0079C30.4509 28.0379 30.6281 28.0668 30.8125 28.2129C30.9101 28.3594 30.9101 28.3594 30.901 28.5303C30.8611 28.7021 30.8505 28.7467 30.7148 28.8477C30.1957 28.9404 29.5885 28.7878 29.0707 28.7195C28.9685 28.7063 28.8662 28.6932 28.764 28.6801C28.4963 28.6457 28.2287 28.6109 27.9611 28.576C27.5322 28.5201 27.1033 28.4646 26.6743 28.4095C26.525 28.3902 26.3759 28.3707 26.2267 28.3511C26.1348 28.3392 26.043 28.3274 25.9511 28.3155C25.91 28.31 25.869 28.3046 25.8267 28.2989C25.1748 28.2159 24.6105 28.2938 24.0742 28.7012C23.4208 29.2902 23.4361 29.9366 23.3906 30.8008C26.8872 30.8008 30.3838 30.8008 33.9863 30.8008C34.0854 29.635 34.0854 29.635 33.7422 29.3359C33.6256 29.294 33.6256 29.294 33.4977 29.2789C33.4503 29.2717 33.403 29.2645 33.3542 29.2571C33.0621 29.2203 32.7696 29.1874 32.4765 29.1606C32.2474 29.1346 32.115 29.1167 31.9277 28.9755C31.8083 28.8056 31.8046 28.7092 31.8379 28.5059C31.9081 28.3869 31.9081 28.3869 32.0332 28.3106C32.3961 28.2904 32.7506 28.3359 33.1102 28.3833C33.208 28.396 33.3059 28.4076 33.4039 28.4193C33.841 28.4762 34.2218 28.5364 34.5173 28.8934C34.5444 28.9251 34.5714 28.9568 34.5993 28.9894C34.7555 29.216 34.7794 29.4074 34.7771 29.6802C34.7769 29.7285 34.7769 29.7285 34.7767 29.7777C34.7761 29.8797 34.7749 29.9817 34.7737 30.0836C34.7732 30.1531 34.7727 30.2225 34.7723 30.292C34.7713 30.4616 34.7696 30.6312 34.7676 30.8008C34.8138 30.8076 34.8601 30.8143 34.9078 30.8213C35.0661 30.8506 35.1267 30.881 35.2436 30.9869C35.2716 31.0114 35.2995 31.0359 35.3283 31.0611C35.5341 31.2876 35.5205 31.5158 35.5152 31.8104C35.4799 32.1858 35.2931 32.5053 35.0117 32.7539C34.6877 32.9714 34.4361 33.0529 34.0461 33.0534C33.9961 33.0536 33.9961 33.0536 33.945 33.0538C33.8325 33.0541 33.7201 33.0541 33.6077 33.0541C33.5265 33.0542 33.4453 33.0544 33.3641 33.0546C33.1406 33.0551 32.9171 33.0553 32.6935 33.0554C32.4526 33.0556 32.2117 33.0561 31.9708 33.0565C31.3889 33.0575 30.807 33.058 30.2251 33.0584C29.9513 33.0586 29.6775 33.0589 29.4036 33.0591C28.4938 33.06 27.5839 33.0607 26.674 33.061C26.4379 33.0611 26.2018 33.0612 25.9657 33.0613C25.907 33.0613 25.8483 33.0613 25.7879 33.0614C24.8362 33.0618 23.8845 33.063 22.9328 33.0646C21.9564 33.0662 20.98 33.0671 20.0036 33.0672C19.4551 33.0674 18.9066 33.0678 18.3581 33.069C17.8912 33.0701 17.4244 33.0705 16.9575 33.07C16.7191 33.0698 16.4808 33.0699 16.2424 33.0708C16.0244 33.0717 15.8064 33.0716 15.5884 33.0709C15.5094 33.0708 15.4303 33.071 15.3513 33.0716C15.2442 33.0723 15.1371 33.0718 15.03 33.0711C14.9704 33.0711 14.9108 33.0711 14.8494 33.0712C14.6702 33.0422 14.6132 32.9935 14.5039 32.8516C14.4762 32.7539 14.4762 32.7539 14.4764 32.6563C14.4754 32.624 14.4743 32.5918 14.4732 32.5586C14.5217 32.4043 14.6151 32.3533 14.748 32.2656C14.9033 32.2413 14.9033 32.2413 15.0823 32.2414C15.1154 32.2411 15.1486 32.2409 15.1828 32.2406C15.2942 32.24 15.4055 32.2408 15.5169 32.2416C15.5975 32.2415 15.678 32.2412 15.7586 32.2409C15.9802 32.2403 16.2017 32.2409 16.4233 32.2417C16.6622 32.2423 16.9011 32.2419 17.14 32.2415C17.554 32.241 17.968 32.2412 18.382 32.2419C18.9809 32.2429 19.5798 32.2425 20.1787 32.2419C21.1508 32.2408 22.1229 32.2405 23.095 32.2408C23.1823 32.2408 23.1823 32.2408 23.2714 32.2408C23.7435 32.2409 24.2157 32.2411 24.6879 32.2413C25.1006 32.2414 25.5133 32.2416 25.9259 32.2417C25.9841 32.2417 26.0422 32.2417 26.102 32.2417C27.0704 32.242 28.0387 32.2414 29.0071 32.2404C29.6046 32.2398 30.2021 32.2398 30.7997 32.2408C31.209 32.2414 31.6183 32.2413 32.0275 32.2407C32.2638 32.2404 32.5001 32.2404 32.7364 32.2412C32.9526 32.242 33.1688 32.2419 33.3851 32.2411C33.4634 32.2409 33.5417 32.2411 33.62 32.2416C33.7263 32.2424 33.8326 32.2419 33.9389 32.2411C34.0275 32.2411 34.0275 32.2411 34.1179 32.2412C34.3231 32.2102 34.4191 32.1624 34.5723 32.0215C34.6448 31.804 34.6448 31.804 34.7187 31.582C26.9844 31.582 19.25 31.582 11.2812 31.582C11.3808 31.9976 11.3808 31.9976 11.5607 32.1452C11.7472 32.2287 11.8786 32.2404 12.0825 32.2397C12.1162 32.24 12.1499 32.2404 12.1846 32.2407C12.2914 32.2418 12.3982 32.2417 12.505 32.2412C12.646 32.2406 12.7869 32.2413 12.9278 32.2427C12.9902 32.2425 13.0525 32.2423 13.1167 32.2421C13.311 32.2696 13.3903 32.3232 13.5273 32.4609C13.5988 32.6306 13.5817 32.6915 13.5121 32.8638C13.4297 32.9981 13.4297 32.9981 13.332 33.0469C13.2095 33.0535 13.0884 33.0573 12.9658 33.0585C12.9108 33.0591 12.9108 33.0591 12.8548 33.0597C12.777 33.0604 12.6991 33.0609 12.6213 33.0613C12.5424 33.0619 12.4635 33.0628 12.3847 33.0643C11.7755 33.0755 11.2925 33.041 10.8267 32.6044C10.5407 32.2768 10.4825 31.9158 10.4863 31.4928C10.5096 31.2293 10.6291 31.1094 10.8113 30.932C10.9553 30.8394 11.0646 30.8241 11.2324 30.8008C11.2314 30.7585 11.2304 30.7161 11.2293 30.6725C11.226 30.5138 11.2235 30.3551 11.2217 30.1964C11.2207 30.128 11.2194 30.0596 11.2177 29.9913C11.2066 29.5345 11.2094 29.1945 11.5237 28.8358C11.5554 28.8095 11.5872 28.7832 11.62 28.7561C11.6516 28.729 11.6833 28.702 11.7159 28.6741C11.9183 28.5346 12.1204 28.4902 12.3617 28.4593C12.4222 28.4514 12.4826 28.4435 12.5449 28.4353C12.6118 28.4269 12.6788 28.4185 12.7457 28.4101C12.817 28.4009 12.8883 28.3917 12.9595 28.3825C13.1546 28.3573 13.3498 28.3325 13.5449 28.3078C13.7514 28.2816 13.9579 28.2551 14.1643 28.2287C14.5227 28.1828 14.8812 28.1372 15.2396 28.0917C15.6951 28.0339 16.1506 27.9755 16.606 27.9169C17.0302 27.8623 17.4543 27.808 17.8785 27.7538C18.1376 27.7208 18.3967 27.6876 18.6558 27.6542C18.9015 27.6226 19.1471 27.5913 19.3928 27.5602C19.4835 27.5487 19.5741 27.537 19.6647 27.5253C20.6233 27.4012 21.543 27.3438 22.3551 27.9775ZM20.157 28.2508C20.1238 28.2549 20.0906 28.259 20.0563 28.2632C19.9462 28.2768 19.8361 28.2908 19.726 28.3047C19.6466 28.3146 19.5671 28.3245 19.4877 28.3343C19.2728 28.361 19.0579 28.388 18.8431 28.4151C18.7087 28.4321 18.5744 28.4489 18.44 28.4658C17.9711 28.5246 17.5022 28.5836 17.0333 28.6429C16.5966 28.6982 16.1598 28.7528 15.723 28.8072C15.3475 28.854 14.972 28.9011 14.5966 28.9486C14.3726 28.977 14.1485 29.0052 13.9244 29.0329C13.7138 29.059 13.5032 29.0856 13.2927 29.1126C13.2155 29.1224 13.1383 29.1321 13.0611 29.1415C12.9555 29.1544 12.8501 29.168 12.7446 29.1817C12.6856 29.1892 12.6266 29.1966 12.5658 29.2043C12.3186 29.2563 12.1555 29.3185 12.0137 29.5313C12.0137 29.9502 12.0137 30.3692 12.0137 30.8008C15.5102 30.8008 19.0068 30.8008 22.6094 30.8008C22.6182 29.6455 22.6182 29.6455 22.0291 28.755C21.481 28.2455 20.8817 28.1604 20.157 28.2508Z" fill="#828AE8"/>
<path d="M25.8787 12.8378C25.9959 12.9309 26.1096 13.0269 26.2226 13.125C26.272 13.1623 26.3213 13.1995 26.3722 13.2379C26.9914 13.8044 27.416 14.5367 27.6875 15.3223C27.703 15.3661 27.7184 15.41 27.7344 15.4552C28.1432 16.7647 27.8955 18.13 27.2722 19.3199C27.0422 19.7217 26.7562 20.0701 26.421 20.3882C26.0243 20.7775 25.6454 21.3108 25.539 21.8652C25.5464 21.9006 25.5537 21.936 25.5613 21.9724C25.6127 22.2374 25.6008 22.51 25.6023 22.7793C25.6028 22.8514 25.6038 22.9235 25.6053 22.9956C25.6074 23.1004 25.6081 23.2052 25.6086 23.3101C25.6097 23.4036 25.6097 23.4036 25.6108 23.4991C25.5777 23.7485 25.4584 23.893 25.2918 24.0747C25.1993 24.2061 25.1722 24.2854 25.1331 24.4379C25.0139 24.8659 24.7673 25.1775 24.3965 25.4173C23.9725 25.6216 23.582 25.6494 23.1171 25.6468C23.0066 25.6464 22.8962 25.6478 22.7858 25.6493C22.2158 25.6521 21.7389 25.5633 21.2912 25.1876C21.018 24.9091 20.8924 24.596 20.7955 24.2252C20.7368 24.0647 20.6422 23.9584 20.5246 23.8367C20.379 23.6832 20.4058 23.533 20.4056 23.3291C20.4055 23.2952 20.4055 23.2612 20.4055 23.2262C20.4054 23.1543 20.4055 23.0823 20.4057 23.0103C20.406 22.9007 20.4057 22.7911 20.4054 22.6815C20.4054 22.6115 20.4055 22.5416 20.4056 22.4716C20.4056 22.408 20.4057 22.3445 20.4058 22.279C20.4112 22.1337 20.4322 22.0069 20.4609 21.8652C20.3036 21.2001 19.881 20.6827 19.4019 20.2198C18.5268 19.3682 18.0934 18.0971 18.068 16.8962C18.0722 15.5081 18.6038 14.3016 19.5667 13.3112C19.8823 12.9976 20.217 12.7512 20.6074 12.5391C20.6367 12.5232 20.6659 12.5072 20.6961 12.4909C21.1539 12.2481 21.6136 12.1056 22.1211 12.002C22.1654 11.9925 22.2097 11.9831 22.2553 11.9733C23.5277 11.8112 24.8295 12.0865 25.8787 12.8378ZM20.0215 14.0039C19.9852 14.0396 19.9489 14.0753 19.9116 14.1121C19.1975 14.861 18.8462 15.9117 18.8496 16.9336C18.8915 18.0733 19.3554 19.0687 20.171 19.8633C20.6186 20.3047 20.8758 20.8172 21.1445 21.377C21.1928 21.4736 21.1928 21.4736 21.2422 21.5723C22.4023 21.5723 23.5625 21.5723 24.7578 21.5723C24.8706 21.3306 24.9834 21.0889 25.0996 20.8398C25.3528 20.4037 25.648 20.0498 26.0019 19.692C26.79 18.8734 27.1423 17.831 27.1519 16.7062C27.1183 15.9601 26.8741 15.3297 26.5156 14.6875C26.4931 14.6464 26.4707 14.6053 26.4475 14.563C25.9015 13.6606 24.9028 13.045 23.9002 12.7893C22.4446 12.5142 21.0612 12.9656 20.0215 14.0039ZM21.1933 22.3535C21.1933 22.708 21.1933 23.0625 21.1933 23.4277C22.3857 23.4277 23.5781 23.4277 24.8066 23.4277C24.8066 23.0732 24.8066 22.7188 24.8066 22.3535C23.6142 22.3535 22.4218 22.3535 21.1933 22.3535ZM21.6328 24.209C21.8113 24.5933 21.8113 24.5933 22.1211 24.7949C22.3688 24.8775 22.6289 24.8548 22.8884 24.8555C22.99 24.856 23.0915 24.8575 23.1931 24.859C23.2582 24.8593 23.3234 24.8596 23.3885 24.8598C23.4474 24.8602 23.5063 24.8607 23.567 24.8612C23.8744 24.8288 24.0716 24.684 24.2695 24.4531C24.3017 24.3726 24.334 24.292 24.3672 24.209C23.4648 24.209 22.5625 24.209 21.6328 24.209Z" fill="#828AE8"/>
<path d="M23.5218 15.78C23.6009 15.8852 23.6414 15.9761 23.6853 16.1014C23.7508 16.2757 23.806 16.401 23.9277 16.543C24.1302 16.6292 24.3455 16.6445 24.5627 16.6637C24.7411 16.6812 24.8582 16.7229 25.0019 16.8359C25.1482 17.0165 25.2148 17.2144 25.2064 17.4463C25.1518 17.7728 24.902 17.9734 24.6632 18.1818C24.5467 18.2968 24.5467 18.2968 24.5441 18.4717C24.5587 18.6342 24.5587 18.6342 24.5869 18.7585C24.6368 19.0208 24.6562 19.2719 24.5319 19.5154C24.3623 19.7385 24.2244 19.7963 23.9521 19.845C23.7083 19.8393 23.5024 19.7078 23.2978 19.5857C23.1457 19.4997 23.07 19.4684 22.8962 19.5032C22.7675 19.5647 22.6422 19.6287 22.5178 19.6985C22.2823 19.8175 22.1391 19.8531 21.8769 19.8144C21.6867 19.7461 21.5602 19.6539 21.4405 19.4879C21.348 19.1996 21.3759 18.9351 21.4375 18.6426C21.4614 18.4784 21.4614 18.4784 21.4375 18.3008C21.3511 18.1931 21.2776 18.1144 21.175 18.0261C20.8623 17.7483 20.8623 17.7483 20.8027 17.5195C20.7936 17.2671 20.8348 17.0341 20.998 16.8359C21.1761 16.7008 21.3184 16.6767 21.539 16.6617C21.8716 16.6387 21.8716 16.6387 22.1449 16.4679C22.2463 16.315 22.3153 16.1547 22.3827 15.9847C22.4821 15.7686 22.5955 15.6586 22.8169 15.5725C23.0904 15.5601 23.3135 15.5959 23.5218 15.78ZM22.9511 16.543C22.9322 16.5836 22.9134 16.6242 22.8939 16.666C22.8685 16.719 22.8431 16.7721 22.8169 16.8268C22.7919 16.8795 22.767 16.9321 22.7413 16.9864C22.6559 17.1328 22.6108 17.1964 22.4629 17.2754C22.3355 17.3083 22.2135 17.3355 22.0844 17.3578C22.0504 17.3641 22.0163 17.3704 21.9812 17.377C21.8977 17.3924 21.8141 17.4072 21.7304 17.4219C21.7588 17.4546 21.7588 17.4546 21.7876 17.4881C21.8405 17.5495 21.8931 17.6111 21.9454 17.6731C22.0066 17.7441 22.0709 17.8125 22.1363 17.8796C22.3373 18.1923 22.2664 18.5838 22.2187 18.9355C22.2614 18.9091 22.2614 18.9091 22.3049 18.8821C22.6348 18.6954 22.9156 18.6272 23.2929 18.6914C23.4664 18.7573 23.6236 18.8379 23.7812 18.9355C23.776 18.8825 23.7708 18.8295 23.7654 18.7749C23.7594 18.7044 23.7535 18.6338 23.7476 18.5632C23.7441 18.5284 23.7405 18.4936 23.7369 18.4577C23.7181 18.2174 23.7437 18.0698 23.8789 17.8613C23.9786 17.749 23.9786 17.749 24.0833 17.6508C24.146 17.5914 24.2083 17.5316 24.2695 17.4707C24.2695 17.4546 24.2695 17.4385 24.2695 17.4219C24.2195 17.4141 24.1694 17.4064 24.1179 17.3984C24.0514 17.387 23.985 17.3754 23.9185 17.3639C23.8857 17.3589 23.8528 17.354 23.8189 17.3489C23.5711 17.3042 23.4497 17.226 23.2929 17.0312C23.2157 16.9006 23.2157 16.9006 23.1556 16.7718C23.1351 16.7287 23.1147 16.6856 23.0936 16.6412C23.0788 16.6088 23.064 16.5764 23.0488 16.543C23.0166 16.543 22.9843 16.543 22.9511 16.543Z" fill="#828AE8"/>
<path d="M32.4727 22.1094C32.8013 22.3148 32.9786 22.6231 33.0885 22.9908C33.1717 23.4099 33.0729 23.8025 32.8494 24.164C32.6373 24.4356 32.3249 24.6337 31.9844 24.6973C31.4895 24.7378 31.1328 24.6714 30.7484 24.3494C30.4157 24.0265 30.3158 23.7717 30.2968 23.3087C30.3097 22.8765 30.4386 22.5825 30.724 22.262C31.2179 21.8117 31.9027 21.7927 32.4727 22.1094ZM31.1879 22.9456C31.0731 23.1411 31.0598 23.3039 31.1055 23.5254C31.2061 23.7131 31.3474 23.8376 31.5449 23.916C31.7787 23.9323 31.9429 23.8999 32.1278 23.7543C32.3043 23.5246 32.3043 23.5246 32.3201 23.2355C32.2895 23.0426 32.224 22.9309 32.082 22.793C31.7633 22.5622 31.4449 22.7094 31.1879 22.9456Z" fill="#828AE8"/>
<path d="M15.1553 12.8114C15.4676 13.0697 15.6494 13.3541 15.6909 13.7613C15.7072 14.1998 15.6432 14.5235 15.3828 14.8828C15.1239 15.1464 14.8589 15.3036 14.486 15.337C13.9369 15.3388 13.6377 15.271 13.2336 14.892C12.9674 14.5985 12.8733 14.2615 12.8829 13.8687C12.9248 13.3992 13.1283 13.0937 13.4785 12.7832C14.003 12.4289 14.6348 12.4604 15.1553 12.8114ZM13.8051 13.5767C13.7027 13.7435 13.6773 13.8571 13.6738 14.0527C13.7538 14.2793 13.8543 14.4222 14.0645 14.541C14.2744 14.575 14.4475 14.5643 14.6443 14.483C14.8327 14.3223 14.8884 14.2059 14.9159 13.9581C14.9068 13.7486 14.8394 13.6254 14.6992 13.4668C14.357 13.2529 14.0931 13.2965 13.8051 13.5767Z" fill="#828AE8"/>
<path d="M16.1152 21.084C16.2683 21.1709 16.3027 21.2072 16.3593 21.377C16.3656 21.5075 16.3615 21.6368 16.3593 21.7676C16.4485 21.7631 16.4485 21.7631 16.5394 21.7584C16.7296 21.7581 16.8416 21.7939 16.9941 21.9141C17.0696 22.065 17.0573 22.1872 17.0429 22.3535C16.9758 22.4725 16.9758 22.4725 16.8476 22.5488C16.6835 22.5645 16.5236 22.5601 16.3593 22.5488C16.3605 22.5783 16.3616 22.6078 16.3628 22.6381C16.3641 22.6966 16.3641 22.6966 16.3654 22.7564C16.3666 22.7949 16.3677 22.8334 16.3689 22.8731C16.3583 23.0001 16.3281 23.0756 16.2617 23.1836C16.131 23.2852 16.0606 23.2811 15.8924 23.2752C15.7246 23.2324 15.7246 23.2324 15.6414 23.1481C15.5652 23.0145 15.5629 22.9334 15.5689 22.7808C15.5702 22.7372 15.5716 22.6937 15.5729 22.6488C15.5746 22.6158 15.5763 22.5828 15.5781 22.5488C15.5286 22.5514 15.5286 22.5514 15.4781 22.554C15.4346 22.5553 15.391 22.5566 15.3461 22.558C15.2816 22.5605 15.2816 22.5605 15.2157 22.5631C15.0653 22.5461 15.0026 22.5066 14.8945 22.4024C14.8377 22.2281 14.8306 22.1443 14.9036 21.9751C14.9997 21.8558 15.0415 21.811 15.1875 21.7676C15.3189 21.7603 15.4462 21.7632 15.5781 21.7676C15.5752 21.7346 15.5724 21.7016 15.5695 21.6676C15.5515 21.3121 15.5515 21.3121 15.6818 21.1511C15.8447 21.0732 15.9368 21.0574 16.1152 21.084Z" fill="#828AE8"/>
<path d="M31.9356 14.6387C32.0416 14.7462 32.0792 14.8089 32.0964 14.9599C32.0947 15.0029 32.093 15.046 32.0912 15.0903C32.0899 15.1339 32.0886 15.1775 32.0872 15.2223C32.0855 15.2553 32.0838 15.2883 32.0821 15.3223C32.115 15.3206 32.148 15.3189 32.182 15.3171C32.2473 15.3151 32.2473 15.3151 32.314 15.3131C32.357 15.3114 32.4001 15.3097 32.4445 15.308C32.5948 15.3251 32.6575 15.3645 32.7656 15.4688C32.8225 15.643 32.8296 15.7268 32.7565 15.896C32.6604 16.0153 32.6186 16.0601 32.4727 16.1035C32.3413 16.1108 32.2139 16.1079 32.0821 16.1035C32.0849 16.1365 32.0877 16.1695 32.0906 16.2035C32.1086 16.559 32.1086 16.559 31.9783 16.72C31.8154 16.7979 31.7233 16.8137 31.5449 16.7871C31.3918 16.7002 31.3574 16.6639 31.3008 16.4942C31.2946 16.3636 31.2987 16.2343 31.3008 16.1035C31.2117 16.1081 31.2117 16.1081 31.1208 16.1127C30.9306 16.113 30.8185 16.0772 30.666 15.957C30.5906 15.8061 30.6029 15.6839 30.6172 15.5176C30.6843 15.3986 30.6843 15.3986 30.8125 15.3223C30.9766 15.3066 31.1365 15.311 31.3008 15.3223C31.2997 15.2928 31.2985 15.2634 31.2974 15.233C31.296 15.1745 31.296 15.1745 31.2947 15.1148C31.2936 15.0762 31.2924 15.0377 31.2913 14.998C31.3018 14.871 31.3321 14.7955 31.3985 14.6875C31.5723 14.5523 31.7308 14.5865 31.9356 14.6387Z" fill="#828AE8"/>
<path d="M25.3437 14.541C25.4841 14.6143 25.4841 14.6143 25.5878 14.7363C25.6348 14.9117 25.6446 14.9609 25.5878 15.1269C25.2276 15.6489 25.2276 15.6489 25.0019 15.7617C24.8164 15.7789 24.7019 15.7874 24.5411 15.6885C24.4584 15.5562 24.4199 15.452 24.4259 15.2946C24.5159 15.0198 24.7539 14.7939 24.9531 14.5898C25.0924 14.5202 25.1891 14.5259 25.3437 14.541Z" fill="#828AE8"/>
<path d="M20.9492 14.541C21.0682 14.6387 21.0682 14.6387 21.1934 14.7852C21.2385 14.8294 21.2385 14.8294 21.2845 14.8746C21.4402 15.0331 21.5576 15.1542 21.5687 15.3833C21.5352 15.5664 21.5352 15.5664 21.4589 15.6885C21.2914 15.7915 21.1913 15.7922 20.998 15.7617C20.876 15.6641 20.876 15.6641 20.7539 15.5176C20.7239 15.4881 20.6939 15.4585 20.6629 15.4281C20.5076 15.2703 20.3895 15.1474 20.3755 14.9194C20.4121 14.7363 20.4121 14.7363 20.5159 14.6143C20.6823 14.5274 20.7644 14.5064 20.9492 14.541Z" fill="#828AE8"/>
<path d="M22.9725 13.5339C23.1951 13.573 23.2542 13.6298 23.3906 13.8086C23.4233 13.9573 23.4204 14.0995 23.415 14.2511C23.4152 14.3099 23.4152 14.3099 23.4154 14.3698C23.4125 14.5399 23.4063 14.6577 23.3261 14.8096C23.1934 14.9281 23.0763 14.9286 22.9023 14.9316C22.7584 14.8659 22.6805 14.8298 22.6093 14.6875C22.6006 14.5434 22.5958 14.4014 22.5941 14.2572C22.5926 14.2178 22.5912 14.1783 22.5898 14.1377C22.5877 13.9399 22.5942 13.834 22.6974 13.6604C22.8046 13.5645 22.8046 13.5645 22.9725 13.5339Z" fill="#828AE8"/>
</g>
<defs>
<clipPath id="clip0_21_477">
<rect width="25" height="25" fill="white" transform="translate(10.5 10)"/>
</clipPath>
</defs>
</svg>
