<svg width="45" height="45" viewBox="0 0 45 45" fill="none" xmlns="http://www.w3.org/2000/svg">
<rect width="45" height="45" rx="6" fill="#FFF1ED"/>
<g clip-path="url(#clip0_21_457)">
<path d="M11.8686 14.4247C11.9395 14.4246 12.0104 14.4243 12.0813 14.4241C12.2756 14.4234 12.4698 14.4237 12.6641 14.4242C12.8738 14.4245 13.0835 14.424 13.2932 14.4236C13.7038 14.423 14.1143 14.4231 14.5248 14.4235C14.8583 14.4239 15.1918 14.4239 15.5253 14.4237C15.5966 14.4237 15.5966 14.4237 15.6692 14.4237C15.7656 14.4236 15.8621 14.4236 15.9585 14.4235C16.8624 14.4231 17.7664 14.4236 18.6703 14.4244C19.4464 14.425 20.2225 14.4249 20.9986 14.4242C21.8997 14.4235 22.8007 14.4232 23.7018 14.4236C23.7978 14.4237 23.8938 14.4237 23.9898 14.4237C24.0371 14.4238 24.0843 14.4238 24.133 14.4238C24.4663 14.4239 24.7997 14.4237 25.133 14.4234C25.5389 14.423 25.9448 14.4231 26.3507 14.4239C26.5579 14.4242 26.7651 14.4244 26.9723 14.4239C27.1617 14.4235 27.3512 14.4237 27.5407 14.4245C27.6094 14.4247 27.6781 14.4246 27.7469 14.4242C27.8399 14.4238 27.933 14.4243 28.026 14.4249C28.1037 14.4249 28.1037 14.4249 28.183 14.425C28.3106 14.4433 28.3106 14.4433 28.399 14.509C28.4879 14.6328 28.4999 14.7316 28.5059 14.8828C28.4503 14.9964 28.4 15.0863 28.3106 15.1758C28.2402 15.1804 28.1695 15.1817 28.099 15.1816C28.0305 15.1817 28.0305 15.1817 27.9606 15.1818C27.9101 15.1817 27.8596 15.1815 27.8075 15.1813C27.7546 15.1813 27.7018 15.1813 27.6473 15.1813C27.4716 15.1813 27.2959 15.1809 27.1202 15.1805C26.9988 15.1804 26.8773 15.1804 26.7559 15.1803C26.4683 15.1802 26.1807 15.1798 25.8931 15.1793C25.5337 15.1787 25.1743 15.1784 24.8149 15.1782C24.1735 15.1776 23.5321 15.1768 22.8907 15.1758C22.8909 15.235 22.891 15.2942 22.8912 15.3552C22.8954 16.7601 22.8987 18.165 22.9006 19.5698C22.9009 19.7427 22.9011 19.9155 22.9014 20.0884C22.9015 20.1228 22.9015 20.1572 22.9016 20.1927C22.9024 20.7501 22.9039 21.3076 22.9057 21.8651C22.9076 22.4369 22.9087 23.0088 22.909 23.5806C22.9093 23.9019 22.9099 24.2232 22.9113 24.5445C22.9126 24.8466 22.9131 25.1488 22.9128 25.451C22.9128 25.5621 22.9132 25.6732 22.914 25.7843C22.9149 25.9356 22.9147 26.0869 22.9142 26.2382C22.9147 26.2825 22.9153 26.3268 22.9159 26.3724C22.913 26.6692 22.913 26.6692 22.7977 26.8241C22.6871 26.9002 22.633 26.921 22.5 26.9189C22.4517 26.9197 22.4517 26.9197 22.4024 26.9205C22.2523 26.8806 22.2027 26.8244 22.1094 26.6992C22.0802 26.5458 22.0839 26.394 22.0859 26.2382C22.0858 26.191 22.0856 26.1438 22.0854 26.0951C22.0851 25.9365 22.0862 25.7779 22.0872 25.6192C22.0873 25.5057 22.0873 25.3921 22.0872 25.2785C22.0871 24.9699 22.0883 24.6612 22.0896 24.3525C22.0907 24.0627 22.0909 23.7729 22.0911 23.4831C22.0915 22.9091 22.0928 22.3351 22.0947 21.7611C22.0965 21.2035 22.0979 20.646 22.0987 20.0884C22.0987 20.054 22.0988 20.0196 22.0988 19.9842C22.0991 19.8118 22.0994 19.6394 22.0996 19.467C22.1016 18.0366 22.1051 16.6062 22.1094 15.1758C20.7419 15.1787 19.3743 15.1825 18.0068 15.1873C17.3718 15.1895 16.7368 15.1914 16.1018 15.1927C15.5483 15.1938 14.9948 15.1954 14.4414 15.1977C14.1483 15.1988 13.8553 15.1998 13.5622 15.2001C13.2863 15.2004 13.0104 15.2013 12.7345 15.2028C12.6333 15.2033 12.5322 15.2034 12.431 15.2034C12.2926 15.2033 12.1542 15.2041 12.0158 15.2051C11.976 15.2049 11.9363 15.2047 11.8953 15.2044C11.5508 15.2086 11.2389 15.2652 10.9797 15.5023C10.7564 15.8609 10.7673 16.234 10.7689 16.644C10.7687 16.7027 10.7686 16.7614 10.7684 16.8218C10.7681 16.9839 10.7682 17.1459 10.7685 17.3079C10.7688 17.483 10.7684 17.6581 10.7681 17.8332C10.7677 18.1758 10.7678 18.5185 10.7681 18.8611C10.7683 19.1397 10.7683 19.4182 10.7682 19.6967C10.7682 19.7364 10.7682 19.7761 10.7682 19.8169C10.7682 19.8976 10.7681 19.9782 10.7681 20.0588C10.7678 20.8142 10.7681 21.5697 10.7687 22.3251C10.7691 22.973 10.769 23.6209 10.7686 24.2688C10.768 25.0216 10.7678 25.7744 10.7681 26.5272C10.7682 26.6075 10.7682 26.6878 10.7682 26.7681C10.7683 26.8274 10.7683 26.8274 10.7683 26.8878C10.7684 27.166 10.7682 27.4441 10.768 27.7222C10.7677 28.0613 10.7678 28.4003 10.7683 28.7393C10.7686 28.9123 10.7687 29.0852 10.7683 29.2581C10.768 29.4457 10.7684 29.6332 10.7689 29.8208C10.7687 29.8753 10.7685 29.9297 10.7682 29.9858C10.77 30.3274 10.7792 30.6405 10.9644 30.9381C11.2222 31.1887 11.4692 31.2128 11.8103 31.2109C11.8544 31.2112 11.8985 31.2115 11.944 31.2118C12.0915 31.2128 12.239 31.2126 12.3866 31.2125C12.4925 31.2129 12.5983 31.2135 12.7042 31.214C12.9915 31.2154 13.2788 31.2158 13.5661 31.2161C13.8664 31.2166 14.1667 31.2178 14.467 31.219C15.0356 31.2212 15.6041 31.2226 16.1727 31.2237C16.8201 31.225 17.4674 31.2272 18.1147 31.2294C19.4463 31.2339 20.7779 31.2374 22.1094 31.2402C22.109 31.2009 22.1086 31.1616 22.1081 31.121C22.1042 30.7503 22.1012 30.3796 22.0993 30.0089C22.0983 29.8183 22.0969 29.6277 22.0947 29.4371C22.0926 29.2532 22.0914 29.0693 22.0909 28.8853C22.0905 28.8151 22.0898 28.745 22.0888 28.6748C22.0874 28.5765 22.0873 28.4782 22.0872 28.3799C22.0868 28.324 22.0864 28.268 22.0859 28.2104C22.1145 28.0352 22.1666 27.9787 22.3047 27.8711C22.4024 27.8434 22.4024 27.8434 22.5 27.8436C22.5484 27.842 22.5484 27.842 22.5977 27.8404C22.7514 27.8887 22.8029 27.9832 22.8907 28.1152C22.9142 28.2632 22.9142 28.2632 22.9128 28.4298C22.9128 28.5236 22.9128 28.5236 22.9128 28.6193C22.9118 28.6871 22.9108 28.7549 22.9097 28.8227C22.9094 28.8924 22.9091 28.9621 22.9089 29.0318C22.9082 29.2148 22.9062 29.3977 22.9041 29.5806C22.9021 29.7675 22.9012 29.9544 22.9002 30.1413C22.8981 30.5076 22.8948 30.8739 22.8907 31.2402C24.2854 31.2384 25.6801 31.2355 27.0748 31.2312C27.7224 31.2293 28.3699 31.2277 29.0175 31.227C29.5819 31.2264 30.1463 31.225 30.7107 31.2229C31.0096 31.2218 31.3084 31.221 31.6073 31.2211C31.8886 31.2211 32.1699 31.2203 32.4512 31.2187C32.5545 31.2183 32.6577 31.2182 32.7609 31.2185C32.902 31.2188 33.0429 31.2179 33.1839 31.2167C33.2247 31.2171 33.2655 31.2175 33.3076 31.2179C33.5848 31.2138 33.7464 31.1555 33.9747 30.9961C34.2636 30.6463 34.2259 30.2641 34.2253 29.8326C34.2254 29.774 34.2255 29.7154 34.2257 29.655C34.2259 29.4927 34.226 29.3305 34.2259 29.1682C34.2259 28.9931 34.2262 28.8179 34.2264 28.6428C34.2268 28.2998 34.2269 27.9568 34.227 27.6138C34.227 27.335 34.2271 27.0562 34.2272 26.7774C34.2277 25.9867 34.2279 25.196 34.2278 24.4053C34.2278 24.3627 34.2278 24.3201 34.2278 24.2762C34.2278 24.2335 34.2278 24.1909 34.2278 24.1469C34.2278 23.4554 34.2283 22.7639 34.229 22.0723C34.2297 21.3621 34.23 20.6518 34.23 19.9416C34.23 19.5429 34.2301 19.1443 34.2306 18.7456C34.2311 18.4062 34.2312 18.0668 34.2308 17.7274C34.2307 17.5543 34.2307 17.3812 34.2311 17.2081C34.2316 17.0203 34.2312 16.8325 34.2309 16.6447C34.2312 16.5629 34.2312 16.5629 34.2316 16.4795C34.23 16.1209 34.2145 15.8141 34.0204 15.5023C33.6484 15.162 33.1649 15.2042 32.6917 15.206C32.5663 15.2065 32.4409 15.206 32.3155 15.2052C31.9592 15.2033 31.603 15.2032 31.2468 15.2033C31.0281 15.2033 30.8095 15.2024 30.5908 15.2009C30.4674 15.2004 30.3439 15.201 30.2205 15.2016C30.1449 15.2011 30.0693 15.2007 29.9938 15.2001C29.9595 15.2006 29.9253 15.2011 29.8901 15.2015C29.7278 15.1991 29.6417 15.1853 29.51 15.0873C29.3983 14.931 29.4069 14.8259 29.4336 14.6387C29.5078 14.5319 29.5078 14.5319 29.629 14.4433C29.7688 14.4241 29.8898 14.4166 30.0296 14.4181C30.0699 14.4177 30.1102 14.4174 30.1517 14.417C30.2849 14.4162 30.418 14.4167 30.5512 14.4174C30.644 14.4173 30.7368 14.4171 30.8296 14.4168C31.0243 14.4166 31.219 14.417 31.4136 14.4179C31.6623 14.419 31.911 14.4184 32.1597 14.4172C32.3515 14.4165 32.5433 14.4167 32.7351 14.4172C32.8267 14.4173 32.9184 14.4172 33.01 14.4167C33.6378 14.4143 34.0917 14.4414 34.5709 14.8862C34.8306 15.1664 35.012 15.4944 35.0126 15.8811C35.0129 15.9341 35.0132 15.9872 35.0136 16.0419C35.0134 16.1 35.0133 16.158 35.0131 16.2178C35.0133 16.2797 35.0135 16.3415 35.0138 16.4053C35.0144 16.5769 35.0144 16.7486 35.0142 16.9202C35.0142 17.1054 35.0148 17.2906 35.0152 17.4757C35.016 17.8385 35.0163 18.2013 35.0164 18.5641C35.0164 18.859 35.0166 19.1539 35.0169 19.4489C35.0178 20.2853 35.0182 21.1217 35.0182 21.9581C35.0181 22.0258 35.0181 22.0258 35.0181 22.0948C35.0181 22.1399 35.0181 22.1851 35.0181 22.2316C35.0181 22.963 35.019 23.6944 35.0204 24.4258C35.0218 25.177 35.0225 25.9282 35.0224 26.6793C35.0224 27.101 35.0226 27.5227 35.0237 27.9443C35.0246 28.3034 35.0248 28.6625 35.0241 29.0215C35.0238 29.2047 35.0238 29.3878 35.0246 29.5709C35.0256 29.7697 35.0249 29.9684 35.0242 30.1672C35.0247 30.2247 35.0252 30.2822 35.0257 30.3414C35.0214 30.8617 34.8848 31.2515 34.5261 31.6318C34.2026 31.9111 33.8428 32.0291 33.4225 32.0273C33.3859 32.0274 33.3493 32.0274 33.3115 32.0275C33.1885 32.0276 33.0655 32.0273 32.9425 32.027C32.8544 32.027 32.7663 32.027 32.6783 32.027C32.4389 32.0271 32.1995 32.0268 31.9601 32.0264C31.7101 32.0261 31.4601 32.0261 31.21 32.026C30.7364 32.0259 30.2627 32.0255 29.7891 32.025C29.2499 32.0244 28.7107 32.0242 28.1716 32.0239C27.0623 32.0234 25.953 32.0226 24.8438 32.0215C24.8448 32.054 24.8458 32.0864 24.8469 32.1199C24.851 32.2682 24.8535 32.4164 24.856 32.5647C24.8585 32.6414 24.8585 32.6414 24.861 32.7196C24.8648 33.0247 24.8545 33.2061 24.6485 33.4375C24.5651 33.5088 24.5651 33.5088 24.4785 33.5588C24.4446 33.5785 24.4106 33.5981 24.3757 33.6184C24.1382 33.7458 23.8982 33.8674 23.6567 33.9868C23.6038 34.0132 23.5509 34.0397 23.4964 34.0669C22.9163 34.3553 22.9163 34.3553 22.5489 34.3164C22.3237 34.2243 22.2249 34.0878 22.1094 33.8769C22.0841 33.7314 22.0865 33.5898 22.0903 33.4424C22.0906 33.4017 22.0909 33.3609 22.0912 33.3189C22.0923 33.1895 22.0947 33.0602 22.0972 32.9309C22.0982 32.8428 22.0991 32.7548 22.0999 32.6667C22.102 32.4516 22.1054 32.2366 22.1094 32.0215C22.0259 32.0217 22.0259 32.0217 21.9407 32.022C20.5857 32.0264 19.2306 32.0296 17.8756 32.0316C17.7451 32.0318 17.6146 32.032 17.4841 32.0322C17.4517 32.0323 17.4192 32.0323 17.3858 32.0324C16.8938 32.0332 16.4018 32.0345 15.9097 32.0362C15.3385 32.0382 14.7673 32.0394 14.1961 32.0399C13.8937 32.0401 13.5913 32.0407 13.2889 32.0421C13.0041 32.0435 12.7193 32.0439 12.4345 32.0436C12.3302 32.0436 12.2258 32.044 12.1215 32.0448C11.9786 32.0457 11.8357 32.0455 11.6928 32.045C11.6519 32.0455 11.611 32.0461 11.5688 32.0467C11.1003 32.042 10.7267 31.8631 10.3897 31.5441C10.1238 31.2456 9.99425 30.9381 9.99349 30.5408C9.99328 30.4878 9.99306 30.4348 9.99283 30.3802C9.99284 30.3219 9.99285 30.2637 9.99286 30.2037C9.99268 30.1419 9.9925 30.08 9.99232 30.0163C9.99183 29.8444 9.99165 29.6726 9.99152 29.5007C9.99133 29.3154 9.99086 29.1301 9.99043 28.9448C9.98947 28.4973 9.98898 28.0497 9.98854 27.6022C9.98833 27.3914 9.98807 27.1806 9.98781 26.9698C9.98698 26.2691 9.98627 25.5684 9.98592 24.8676C9.98583 24.6858 9.98573 24.504 9.98564 24.3222C9.98561 24.277 9.98559 24.2318 9.98556 24.1853C9.98516 23.4532 9.98392 22.7211 9.98234 21.9891C9.98072 21.2374 9.97984 20.4857 9.97969 19.734C9.97958 19.312 9.97915 18.89 9.97791 18.468C9.97685 18.1086 9.97645 17.7493 9.97693 17.3899C9.97715 17.2066 9.97706 17.0233 9.97611 16.84C9.97509 16.6411 9.97559 16.4422 9.97623 16.2433C9.9757 16.1856 9.97516 16.1279 9.97461 16.0685C9.9789 15.5188 10.1522 15.1701 10.5372 14.7851C10.9275 14.4148 11.3597 14.4221 11.8686 14.4247ZM22.8907 32.0215C22.8907 32.4888 22.8907 32.956 22.8907 33.4375C23.1127 33.3333 23.1127 33.3333 23.3393 33.2269C23.3855 33.2053 23.4317 33.1837 23.4793 33.1614C23.557 33.1248 23.6343 33.0875 23.7113 33.0497C23.7959 33.0089 23.8824 32.9722 23.9695 32.937C24.0816 32.834 24.0787 32.8033 24.0864 32.6557C24.085 32.5795 24.0818 32.5034 24.0778 32.4274C24.0728 32.2934 24.0677 32.1595 24.0625 32.0215C23.6758 32.0215 23.2891 32.0215 22.8907 32.0215Z" fill="#FEC377"/>
<path d="M14.9397 10.6672C15.018 10.6667 15.018 10.6667 15.0979 10.6662C15.208 10.6657 15.3181 10.6655 15.4281 10.6655C15.5967 10.6653 15.7652 10.6635 15.9338 10.6616C16.0408 10.6614 16.1479 10.6612 16.255 10.6611C16.3054 10.6604 16.3558 10.6597 16.4077 10.6589C16.7544 10.6612 16.7544 10.6612 16.9163 10.7722C17.0156 10.9324 17.0116 11.0362 16.9824 11.2207C16.8833 11.3608 16.8051 11.4507 16.6326 11.4872C16.5014 11.4962 16.3722 11.4973 16.2407 11.4959C16.1927 11.4964 16.1447 11.4969 16.0953 11.4975C15.9424 11.4989 15.7895 11.4987 15.6366 11.4984C15.4835 11.4988 15.3304 11.4996 15.1774 11.5009C15.0822 11.5016 14.987 11.5018 14.8919 11.5014C14.8271 11.5017 14.8271 11.5017 14.761 11.502C14.7232 11.5019 14.6853 11.5018 14.6463 11.5017C14.5246 11.5155 14.4489 11.5457 14.3457 11.6113C14.2154 11.8067 14.2131 11.9675 14.248 12.1973C14.3397 12.3194 14.4062 12.374 14.541 12.4414C14.6163 12.4462 14.6918 12.4479 14.7673 12.4482C14.8393 12.4486 14.8393 12.4486 14.9127 12.449C14.9658 12.449 15.0189 12.4491 15.0737 12.4491C15.1578 12.4495 15.1578 12.4495 15.2437 12.4498C15.3999 12.4505 15.5561 12.4509 15.7123 12.4512C15.8806 12.4516 16.0489 12.4522 16.2172 12.4529C16.5089 12.4539 16.8006 12.4548 17.0924 12.4556C17.5141 12.4567 17.9359 12.4581 18.3577 12.4595C19.042 12.4618 19.7262 12.464 20.4105 12.4659C21.0753 12.4679 21.7401 12.4699 22.405 12.472C22.4459 12.4722 22.4869 12.4723 22.5291 12.4724C22.7345 12.4731 22.94 12.4738 23.1455 12.4745C24.8509 12.48 26.5563 12.4852 28.2617 12.4902C28.2617 12.1518 28.2617 11.8135 28.2617 11.4648C28.1361 11.465 28.0106 11.4653 27.8812 11.4655C26.6999 11.4675 25.5187 11.4689 24.3374 11.4699C23.7301 11.4704 23.1227 11.4711 22.5154 11.4722C21.9861 11.4732 21.4568 11.4738 20.9276 11.474C20.6473 11.4741 20.3669 11.4744 20.0866 11.4752C19.8229 11.4758 19.5592 11.476 19.2955 11.4759C19.1985 11.4759 19.1016 11.4761 19.0047 11.4765C18.8726 11.477 18.7406 11.4768 18.6085 11.4766C18.5506 11.477 18.5506 11.477 18.4916 11.4774C18.3076 11.4764 18.1618 11.4746 18.0078 11.3672C17.9062 11.2365 17.9104 11.1661 17.9163 10.9979C17.959 10.8301 17.959 10.8301 18.0319 10.7477C18.2161 10.6512 18.3879 10.6621 18.5931 10.6624C18.6379 10.6618 18.6828 10.6613 18.729 10.6608C18.8798 10.6593 19.0305 10.6589 19.1812 10.6584C19.2892 10.6576 19.3972 10.6567 19.5051 10.6557C19.7991 10.6534 20.093 10.6521 20.387 10.651C20.5711 10.6504 20.7553 10.6496 20.9394 10.6488C21.4507 10.6465 21.9619 10.6446 22.4732 10.6437C22.6059 10.6435 22.7386 10.6433 22.8712 10.643C22.9042 10.643 22.9372 10.6429 22.9712 10.6429C23.5024 10.6419 24.0337 10.6385 24.5649 10.6342C25.1123 10.6298 25.6596 10.6275 26.207 10.6271C26.5136 10.6268 26.82 10.6257 27.1266 10.6223C29.533 10.5973 29.533 10.5973 30.5827 11.1579C30.7564 11.2485 30.935 11.3163 31.1182 11.3855C31.3376 11.4732 31.4472 11.5625 31.582 11.7578C31.649 11.9274 31.6319 11.9985 31.579 12.1759C31.4073 12.4804 31.1061 12.5844 30.7941 12.7059C30.7569 12.7207 30.7198 12.7355 30.6815 12.7507C30.5637 12.7975 30.4457 12.8437 30.3278 12.89C30.248 12.9216 30.1682 12.9532 30.0885 12.9849C29.3497 13.2775 29.3497 13.2775 29.0858 13.278C29.0337 13.2782 28.9817 13.2785 28.928 13.2787C28.8706 13.2787 28.8132 13.2787 28.754 13.2787C28.6932 13.2788 28.6324 13.279 28.5697 13.2792C28.4005 13.2797 28.2314 13.2799 28.0622 13.28C27.8798 13.2802 27.6975 13.2807 27.5152 13.2811C27.0746 13.2821 26.6341 13.2825 26.1936 13.283C25.9861 13.2832 25.7786 13.2835 25.5712 13.2837C24.8816 13.2845 24.1919 13.2852 23.5023 13.2856C23.3233 13.2857 23.1444 13.2858 22.9654 13.2859C22.9209 13.2859 22.8764 13.2859 22.8306 13.286C22.11 13.2864 21.3895 13.2876 20.6689 13.2892C19.9292 13.2908 19.1894 13.2917 18.4497 13.2918C18.0343 13.2919 17.619 13.2924 17.2036 13.2936C16.8498 13.2947 16.4961 13.2951 16.1423 13.2946C15.9619 13.2944 15.7815 13.2945 15.601 13.2954C15.4052 13.2964 15.2094 13.2959 15.0136 13.2953C14.9569 13.2958 14.9001 13.2964 14.8416 13.2969C14.425 13.2936 14.1429 13.199 13.7964 12.9724C13.5574 12.7226 13.3886 12.4036 13.3661 12.0536C13.3784 11.6475 13.493 11.3343 13.7598 11.0254C14.1107 10.7021 14.4789 10.6682 14.9397 10.6672ZM29.043 11.4648C29.043 11.8032 29.043 12.1416 29.043 12.4902C29.2603 12.454 29.4038 12.4222 29.5995 12.3405C29.6471 12.3208 29.6946 12.3012 29.7435 12.2809C29.8167 12.2501 29.8167 12.2501 29.8914 12.2186C29.9413 12.1979 29.9912 12.1771 30.0426 12.1558C30.1652 12.1048 30.2877 12.0535 30.4102 12.0019C30.1969 11.8598 29.9633 11.7751 29.7266 11.6785C29.6772 11.6579 29.6279 11.6374 29.577 11.6163C29.506 11.5872 29.506 11.5872 29.4336 11.5575C29.3686 11.5308 29.3686 11.5308 29.3024 11.5036C29.1863 11.4569 29.1863 11.4569 29.043 11.4648Z" fill="#FEC377"/>
<path d="M24.877 28.0419C24.9097 28.0417 24.9424 28.0414 24.9762 28.0411C25.0858 28.0405 25.1954 28.0412 25.305 28.0419C25.3836 28.0417 25.4622 28.0415 25.5408 28.0411C25.7543 28.0404 25.9677 28.041 26.1812 28.0418C26.4045 28.0425 26.6278 28.0421 26.8511 28.042C27.2261 28.0418 27.6011 28.0425 27.9761 28.0436C28.4098 28.0449 28.8435 28.045 29.2772 28.0444C29.6942 28.0439 30.1112 28.0442 30.5283 28.0449C30.7058 28.0452 30.8834 28.0452 31.0609 28.045C31.27 28.0447 31.479 28.0452 31.6881 28.0463C31.7648 28.0465 31.8416 28.0466 31.9184 28.0463C32.0231 28.046 32.1277 28.0466 32.2324 28.0475C32.3204 28.0477 32.3204 28.0477 32.4101 28.0478C32.5724 28.0681 32.6397 28.0976 32.7539 28.2129C32.8113 28.3887 32.8188 28.4707 32.7417 28.6401C32.6563 28.75 32.6563 28.75 32.5098 28.8477C32.3697 28.8601 32.3697 28.8601 32.1954 28.8604C32.1633 28.8606 32.1313 28.8608 32.0982 28.861C31.9906 28.8615 31.883 28.8613 31.7754 28.8611C31.6983 28.8613 31.6212 28.8615 31.5442 28.8618C31.3346 28.8625 31.1251 28.8625 30.9155 28.8624C30.7407 28.8623 30.5658 28.8626 30.391 28.8628C29.9785 28.8633 29.5659 28.8634 29.1534 28.8631C28.7278 28.8628 28.3021 28.8634 27.8764 28.8644C27.5111 28.8653 27.1458 28.8656 26.7804 28.8654C26.5622 28.8653 26.3439 28.8655 26.1257 28.8661C25.9204 28.8667 25.7151 28.8667 25.5099 28.866C25.4345 28.8659 25.3592 28.866 25.2839 28.8664C25.181 28.8669 25.0782 28.8666 24.9753 28.8659C24.8889 28.8659 24.8889 28.8659 24.8009 28.866C24.6319 28.8457 24.5398 28.8024 24.4043 28.7012C24.3288 28.5502 24.3412 28.428 24.3555 28.2617C24.5067 28.0546 24.6279 28.042 24.877 28.0419Z" fill="#FEC377"/>
<path d="M24.9628 21.8581C24.9949 21.8579 25.0269 21.8577 25.0599 21.8575C25.1675 21.857 25.2752 21.8568 25.3828 21.8566C25.4599 21.8563 25.5369 21.856 25.614 21.8556C25.8673 21.8546 26.1205 21.8541 26.3738 21.8536C26.4609 21.8534 26.5481 21.8532 26.6353 21.853C27.0447 21.8521 27.454 21.8514 27.8634 21.851C28.3362 21.8505 28.809 21.8492 29.2817 21.8472C29.6471 21.8458 30.0124 21.845 30.3777 21.8449C30.596 21.8448 30.8142 21.8443 31.0325 21.8431C31.2378 21.842 31.443 21.8418 31.6483 21.8423C31.7236 21.8423 31.799 21.842 31.8743 21.8413C31.9772 21.8404 32.08 21.8408 32.1829 21.8414C32.2692 21.8413 32.2692 21.8413 32.3573 21.8411C32.5422 21.8704 32.6228 21.929 32.7538 22.0606C32.8152 22.2407 32.8194 22.3176 32.7386 22.4909C32.6562 22.5977 32.6562 22.5977 32.5585 22.6465C32.4538 22.6515 32.3489 22.6533 32.2441 22.6537C32.1951 22.654 32.1951 22.654 32.1452 22.6542C32.0353 22.6548 31.9254 22.655 31.8155 22.6551C31.7369 22.6554 31.6583 22.6558 31.5797 22.6561C31.3658 22.657 31.1519 22.6575 30.9381 22.6579C30.8045 22.6581 30.671 22.6584 30.5374 22.6587C30.1199 22.6597 29.7023 22.6604 29.2848 22.6608C28.8023 22.6612 28.3199 22.6625 27.8374 22.6645C27.4648 22.666 27.0921 22.6667 26.7195 22.6669C26.4968 22.667 26.2741 22.6674 26.0514 22.6686C25.842 22.6698 25.6325 22.67 25.4231 22.6695C25.3461 22.6695 25.2692 22.6698 25.1923 22.6704C25.0874 22.6713 24.9825 22.671 24.8776 22.6703C24.8188 22.6704 24.7601 22.6705 24.6995 22.6707C24.5201 22.6415 24.4621 22.5963 24.3554 22.4512C24.3325 22.2679 24.3295 22.1563 24.4195 21.9934C24.5794 21.8394 24.7522 21.8588 24.9628 21.8581Z" fill="#FEC377"/>
<path d="M24.9279 18.759C24.9603 18.7588 24.9926 18.7585 25.026 18.7582C25.1341 18.7576 25.2422 18.7587 25.3503 18.7598C25.4279 18.7597 25.5056 18.7595 25.5832 18.7592C25.7939 18.7587 26.0045 18.7598 26.2152 18.7611C26.4356 18.7623 26.656 18.7621 26.8765 18.7621C27.2466 18.7624 27.6167 18.7635 27.9868 18.7653C28.4148 18.7673 28.8428 18.7682 29.2708 18.7683C29.7264 18.7685 30.182 18.7694 30.6376 18.7706C30.7689 18.7709 30.9003 18.7711 31.0316 18.7713C31.2379 18.7716 31.4441 18.7724 31.6504 18.7736C31.7262 18.7739 31.8019 18.7741 31.8777 18.7741C31.981 18.7742 32.0843 18.7749 32.1876 18.7757C32.2454 18.7759 32.3032 18.7761 32.3628 18.7764C32.5065 18.7888 32.5879 18.8039 32.705 18.8867C32.7944 19.0888 32.8192 19.1838 32.7416 19.3933C32.6562 19.5215 32.6562 19.5215 32.5585 19.5703C32.4545 19.5754 32.3504 19.5773 32.2463 19.5778C32.2139 19.578 32.1815 19.5783 32.1481 19.5785C32.0389 19.5791 31.9298 19.5794 31.8207 19.5797C31.7427 19.5801 31.6646 19.5805 31.5866 19.5809C31.3299 19.5822 31.0732 19.583 30.8166 19.5837C30.7283 19.5839 30.64 19.5842 30.5517 19.5845C30.1844 19.5855 29.8172 19.5864 29.45 19.587C28.9233 19.5878 28.3967 19.5894 27.8701 19.5922C27.5 19.5941 27.1299 19.595 26.7598 19.5953C26.5386 19.5955 26.3175 19.596 26.0963 19.5976C25.8883 19.5991 25.6803 19.5994 25.4722 19.5988C25.3959 19.5988 25.3195 19.5992 25.2432 19.6001C25.1389 19.6012 25.0347 19.6008 24.9304 19.6C24.8721 19.6002 24.8137 19.6003 24.7536 19.6005C24.5537 19.5613 24.4809 19.4833 24.3554 19.3262C24.3249 19.1797 24.3249 19.1797 24.3554 19.0332C24.5339 18.8101 24.6446 18.7586 24.9279 18.759Z" fill="#FEC377"/>
<path d="M24.8792 24.9658C24.9121 24.9655 24.9451 24.9652 24.979 24.9649C25.0895 24.9643 25.1998 24.965 25.3102 24.9657C25.3894 24.9656 25.4686 24.9653 25.5477 24.9649C25.7627 24.9643 25.9777 24.9648 26.1926 24.9656C26.4175 24.9663 26.6423 24.966 26.8671 24.9658C27.2446 24.9657 27.6221 24.9663 27.9997 24.9675C28.4364 24.9688 28.8731 24.9688 29.3099 24.9683C29.7297 24.9677 30.1496 24.968 30.5694 24.9687C30.7482 24.969 30.927 24.969 31.1059 24.9688C31.3163 24.9685 31.5268 24.969 31.7372 24.9701C31.8145 24.9704 31.8919 24.9704 31.9692 24.9701C32.0746 24.9699 32.1799 24.9705 32.2853 24.9713C32.3443 24.9714 32.4033 24.9715 32.4641 24.9717C32.6074 24.9902 32.6074 24.9902 32.6981 25.0559C32.784 25.1803 32.7967 25.2797 32.8027 25.4297C32.7472 25.5433 32.6969 25.6332 32.6074 25.7227C32.5041 25.7278 32.4005 25.7295 32.297 25.7298C32.2478 25.7301 32.2478 25.7301 32.1976 25.7304C32.0869 25.7309 31.9762 25.7311 31.8654 25.7313C31.7864 25.7316 31.7073 25.7319 31.6282 25.7323C31.4128 25.7331 31.1974 25.7336 30.982 25.734C30.8476 25.7343 30.7131 25.7346 30.5787 25.7349C30.1583 25.7358 29.7379 25.7365 29.3176 25.7369C28.8317 25.7374 28.3459 25.7387 27.86 25.7407C27.4849 25.7421 27.1098 25.7429 26.7347 25.743C26.5105 25.7431 26.2862 25.7436 26.062 25.7448C25.8511 25.7459 25.6402 25.7461 25.4292 25.7456C25.3518 25.7456 25.2743 25.7459 25.1968 25.7466C25.0911 25.7475 24.9855 25.7471 24.8798 25.7465C24.7911 25.7466 24.7911 25.7466 24.7005 25.7468C24.5204 25.7178 24.4626 25.6729 24.3555 25.5273C24.3286 25.3389 24.3194 25.2346 24.4341 25.0787C24.5896 24.9608 24.6851 24.9658 24.8792 24.9658Z" fill="#FEC377"/>
<path d="M15.945 28.0356C15.9933 28.0352 16.0416 28.0349 16.0913 28.0345C16.251 28.0337 16.4107 28.0347 16.5704 28.0357C16.6813 28.0357 16.7922 28.0355 16.9031 28.0353C17.1356 28.0352 17.3681 28.0359 17.6006 28.0373C17.8988 28.0389 18.197 28.0386 18.4951 28.0377C18.7242 28.0372 18.9532 28.0376 19.1823 28.0384C19.2922 28.0386 19.4022 28.0386 19.5121 28.0383C19.6658 28.038 19.8193 28.039 19.9729 28.0404C20.0413 28.0399 20.0413 28.0399 20.111 28.0394C20.4172 28.0439 20.4172 28.0439 20.5753 28.155C20.6766 28.3112 20.6673 28.4215 20.6445 28.6035C20.5586 28.759 20.5225 28.7907 20.3515 28.8477C20.2858 28.8522 20.2198 28.8542 20.1539 28.8545C20.0937 28.8549 20.0937 28.8549 20.0323 28.8554C19.9885 28.8554 19.9447 28.8555 19.8995 28.8555C19.8532 28.8558 19.8069 28.856 19.7592 28.8563C19.6058 28.857 19.4524 28.8573 19.2991 28.8576C19.1926 28.8579 19.0861 28.8581 18.9796 28.8584C18.7562 28.8589 18.5328 28.8592 18.3094 28.8594C18.0231 28.8597 17.7369 28.8608 17.4506 28.8622C17.2306 28.8631 17.0106 28.8634 16.7906 28.8635C16.685 28.8636 16.5795 28.864 16.4739 28.8646C16.3263 28.8655 16.1787 28.8654 16.031 28.8651C15.9874 28.8655 15.9438 28.866 15.8988 28.8664C15.667 28.8649 15.5096 28.8538 15.3222 28.7012C15.2526 28.5619 15.2583 28.4651 15.2734 28.3106C15.434 28.0077 15.6359 28.0317 15.945 28.0356Z" fill="#FEC377"/>
<path d="M15.7641 21.8584C15.8042 21.8581 15.8443 21.8578 15.8857 21.8575C15.9295 21.8575 15.9733 21.8574 16.0185 21.8574C16.0648 21.8571 16.1111 21.8569 16.1588 21.8566C16.3122 21.8559 16.4656 21.8556 16.6189 21.8553C16.7254 21.855 16.8319 21.8548 16.9384 21.8545C17.1618 21.854 17.3852 21.8537 17.6085 21.8535C17.8948 21.8532 18.1811 21.8521 18.4674 21.8507C18.6874 21.8498 18.9074 21.8495 19.1274 21.8494C19.233 21.8493 19.3385 21.8489 19.4441 21.8483C19.5917 21.8474 19.7393 21.8475 19.887 21.8478C19.9306 21.8474 19.9742 21.8469 20.0192 21.8465C20.251 21.848 20.4084 21.8591 20.5958 22.0117C20.6712 22.1627 20.6589 22.2849 20.6446 22.4512C20.5757 22.5583 20.5757 22.5583 20.4493 22.6465C20.2907 22.676 20.1339 22.6737 19.973 22.6725C19.9247 22.673 19.8764 22.6734 19.8267 22.6738C19.667 22.6749 19.5073 22.6746 19.3476 22.6741C19.2367 22.6744 19.1258 22.6747 19.0148 22.6751C18.7824 22.6756 18.5499 22.6753 18.3174 22.6746C18.0192 22.6738 17.721 22.6749 17.4229 22.6767C17.1938 22.6777 16.9648 22.6777 16.7357 22.6773C16.6258 22.6772 16.5158 22.6775 16.4059 22.6783C16.2522 22.6791 16.0987 22.6784 15.9451 22.6773C15.8995 22.6779 15.854 22.6784 15.807 22.679C15.4996 22.6745 15.4996 22.6745 15.3427 22.5318C15.2586 22.3745 15.2473 22.2854 15.2735 22.1094C15.3951 21.8952 15.5273 21.8594 15.7641 21.8584Z" fill="#FEC377"/>
<path d="M15.9896 18.7575C16.0369 18.757 16.0842 18.7566 16.1329 18.7562C16.2889 18.7551 16.4449 18.7558 16.601 18.7566C16.7095 18.7565 16.818 18.7562 16.9266 18.7559C17.154 18.7556 17.3813 18.7561 17.6087 18.7572C17.9002 18.7586 18.1916 18.7578 18.4831 18.7564C18.7072 18.7555 18.9313 18.7558 19.1554 18.7564C19.2628 18.7565 19.3703 18.7563 19.4778 18.7558C19.628 18.7552 19.7781 18.7561 19.9283 18.7575C19.9949 18.7567 19.9949 18.7567 20.0629 18.756C20.2806 18.7596 20.3723 18.7675 20.5501 18.9039C20.6445 19.0332 20.6445 19.0332 20.675 19.1797C20.6328 19.3824 20.5645 19.4444 20.4004 19.5703C20.243 19.606 20.0891 19.6037 19.9283 19.6019C19.8811 19.6023 19.8338 19.6028 19.7851 19.6032C19.629 19.6043 19.4731 19.6036 19.317 19.6027C19.2085 19.6029 19.0999 19.6031 18.9914 19.6034C18.764 19.6038 18.5366 19.6033 18.3092 19.6021C18.0178 19.6007 17.7264 19.6015 17.4349 19.603C17.2108 19.6039 16.9867 19.6036 16.7626 19.603C16.6551 19.6028 16.5477 19.603 16.4402 19.6036C16.29 19.6042 16.1399 19.6033 15.9896 19.6019C15.9231 19.6026 15.9231 19.6026 15.8551 19.6034C15.6374 19.5997 15.5457 19.5919 15.3679 19.4554C15.2734 19.3262 15.2734 19.3262 15.2429 19.1797C15.3287 18.768 15.6364 18.7535 15.9896 18.7575Z" fill="#FEC377"/>
<path d="M13.2868 27.4194C13.3372 27.4184 13.3876 27.4174 13.4396 27.4164C13.7111 27.415 13.9215 27.4149 14.1504 27.5781C14.3282 27.7633 14.3706 27.8795 14.3717 28.1349C14.372 28.2242 14.372 28.2242 14.3724 28.3154C14.3717 28.3772 14.3709 28.4391 14.3701 28.5028C14.3709 28.5644 14.3716 28.6261 14.3724 28.6896C14.37 29.2601 14.37 29.2601 14.1504 29.4824C13.8973 29.6435 13.5913 29.5981 13.302 29.5984C13.2127 29.6002 13.2127 29.6002 13.1216 29.602C12.8753 29.6028 12.6855 29.6012 12.4578 29.5026C12.1768 29.2122 12.1741 28.915 12.179 28.5303C12.1784 28.4858 12.1778 28.4413 12.1772 28.3954C12.1784 28.1182 12.2104 27.9201 12.3438 27.6758C12.6356 27.3985 12.9052 27.4213 13.2868 27.4194ZM12.9785 28.2129C12.9785 28.4062 12.9785 28.5996 12.9785 28.7988C13.1719 28.7988 13.3652 28.7988 13.5645 28.7988C13.5645 28.6055 13.5645 28.4121 13.5645 28.2129C13.3711 28.2129 13.1777 28.2129 12.9785 28.2129Z" fill="#FEC377"/>
<path d="M13.2959 21.2549C13.3845 21.2538 13.3845 21.2538 13.475 21.2526C14.0222 21.255 14.0222 21.255 14.248 21.4746C14.4133 21.7322 14.3657 22.0528 14.367 22.3474C14.3686 22.4093 14.3702 22.4712 14.3719 22.5349C14.3748 23.0434 14.3748 23.0434 14.2375 23.2206C13.9422 23.4584 13.6628 23.4441 13.2989 23.443C13.2489 23.4438 13.1989 23.4446 13.1474 23.4454C12.876 23.4456 12.6738 23.4379 12.4414 23.2813C12.1667 22.9917 12.1871 22.7181 12.185 22.3383C12.184 22.2931 12.183 22.248 12.182 22.2014C12.18 21.8553 12.2071 21.6149 12.4582 21.3571C12.7337 21.237 12.9987 21.2511 13.2959 21.2549ZM12.9785 22.0606C12.9785 22.2539 12.9785 22.4473 12.9785 22.6465C13.1718 22.6465 13.3652 22.6465 13.5644 22.6465C13.5644 22.4531 13.5644 22.2598 13.5644 22.0606C13.3711 22.0606 13.1777 22.0606 12.9785 22.0606Z" fill="#FEC377"/>
<path d="M13.302 24.3341C13.3566 24.3338 13.4113 24.3334 13.4676 24.3331C13.8147 24.3358 14.0086 24.3592 14.2615 24.6138C14.4181 24.8599 14.3777 25.1399 14.3762 25.4236C14.3778 25.4848 14.3794 25.5461 14.381 25.6092C14.3815 26.1119 14.3815 26.1119 14.2065 26.3242C13.959 26.5689 13.6335 26.5164 13.3081 26.5192C13.2261 26.5213 13.2261 26.5213 13.1424 26.5235C12.8159 26.526 12.606 26.5097 12.3437 26.3086C12.1647 26.04 12.1869 25.752 12.1851 25.4388C12.1835 25.3755 12.1835 25.3755 12.182 25.311C12.1804 25.0385 12.194 24.7858 12.3437 24.5508C12.6322 24.3047 12.9361 24.3275 13.302 24.3341ZM12.9785 25.1367C12.9785 25.3301 12.9785 25.5234 12.9785 25.7227C13.1719 25.7227 13.3652 25.7227 13.5644 25.7227C13.5644 25.5293 13.5644 25.3359 13.5644 25.1367C13.3711 25.1367 13.1777 25.1367 12.9785 25.1367Z" fill="#FEC377"/>
<path d="M12.9128 18.1772C12.9748 18.1769 13.0368 18.1767 13.1007 18.1764C13.1651 18.1772 13.2295 18.1779 13.2958 18.1787C13.3924 18.1776 13.3924 18.1776 13.491 18.1764C13.584 18.1768 13.584 18.1768 13.6788 18.1772C13.7636 18.1775 13.7636 18.1775 13.85 18.1779C14.0367 18.2085 14.1154 18.2654 14.248 18.3984C14.4159 18.6415 14.3637 18.964 14.364 19.2468C14.3652 19.3064 14.3663 19.3659 14.3676 19.4273C14.3694 19.975 14.3694 19.975 14.1503 20.2051C13.9201 20.3585 13.6749 20.3228 13.4039 20.3235C13.3058 20.3241 13.2078 20.3265 13.1098 20.329C12.5797 20.3319 12.5797 20.3319 12.4026 20.1976C12.174 19.9026 12.1807 19.615 12.182 19.256C12.1812 19.2113 12.1804 19.1665 12.1796 19.1205C12.1794 18.8419 12.2028 18.6412 12.3437 18.3984C12.5306 18.2146 12.653 18.1782 12.9128 18.1772ZM12.9785 18.9355C12.9785 19.145 12.9785 19.3545 12.9785 19.5703C13.1718 19.5703 13.3652 19.5703 13.5644 19.5703C13.5644 19.3608 13.5644 19.1514 13.5644 18.9355C13.371 18.9355 13.1777 18.9355 12.9785 18.9355Z" fill="#FEC377"/>
<path d="M15.945 24.965C15.9933 24.9646 16.0416 24.9643 16.0913 24.9639C16.251 24.9631 16.4107 24.9636 16.5704 24.9643C16.6813 24.9642 16.7922 24.964 16.9032 24.9637C17.1356 24.9634 17.3681 24.9639 17.6006 24.9648C17.8988 24.9659 18.197 24.9652 18.4952 24.9641C18.7242 24.9634 18.9532 24.9636 19.1823 24.9641C19.2922 24.9642 19.4022 24.9641 19.5121 24.9636C19.6658 24.9631 19.8193 24.9639 19.9729 24.965C20.0185 24.9646 20.064 24.9642 20.111 24.9638C20.4173 24.9678 20.4173 24.9678 20.5751 25.0788C20.6775 25.2363 20.6707 25.3438 20.6445 25.5273C20.5751 25.6341 20.5751 25.6341 20.4492 25.7227C20.2906 25.7519 20.1338 25.7493 19.9729 25.7479C19.9246 25.7483 19.8763 25.7486 19.8266 25.749C19.6669 25.7498 19.5072 25.7493 19.3475 25.7486C19.2366 25.7487 19.1257 25.7489 19.0148 25.7492C18.7823 25.7494 18.5498 25.749 18.3173 25.7481C18.0191 25.747 17.721 25.7476 17.4228 25.7488C17.1937 25.7495 16.9647 25.7493 16.7356 25.7488C16.6257 25.7487 16.5157 25.7488 16.4058 25.7493C16.2522 25.7498 16.0986 25.749 15.945 25.7479C15.8994 25.7483 15.8539 25.7487 15.8069 25.7491C15.5006 25.7451 15.5006 25.7451 15.3428 25.6341C15.2404 25.4766 15.2472 25.3691 15.2734 25.1855C15.4406 24.9284 15.6673 24.9625 15.945 24.965Z" fill="#FEC377"/>
<path d="M31.6905 16.1767C31.7318 16.1768 31.773 16.1768 31.8155 16.1769C31.8607 16.1769 31.9058 16.1769 31.9523 16.1768C32.0228 16.1783 32.0228 16.1783 32.0948 16.1798C32.1653 16.1793 32.1653 16.1793 32.2373 16.1788C32.5825 16.1819 32.5825 16.1819 32.6926 16.267C32.786 16.3898 32.7967 16.4879 32.8028 16.6406C32.7472 16.7543 32.6969 16.8442 32.6075 16.9336C32.439 16.9485 32.2699 16.9472 32.1009 16.9488C32.0534 16.9503 32.006 16.9517 31.9571 16.9531C31.9115 16.9535 31.8659 16.954 31.819 16.9544C31.7771 16.9551 31.7352 16.9558 31.6921 16.9565C31.5821 16.9336 31.5821 16.9336 31.4952 16.8453C31.4082 16.689 31.4168 16.5722 31.4356 16.3965C31.5081 16.267 31.5433 16.2099 31.6905 16.1767Z" fill="#FEC377"/>
<path d="M12.8992 16.1859C12.9466 16.1845 12.9941 16.1831 13.043 16.1816C13.0886 16.1812 13.1341 16.1808 13.1811 16.1804C13.223 16.1797 13.2648 16.179 13.308 16.1782C13.418 16.2012 13.418 16.2012 13.5049 16.2894C13.5919 16.4457 13.5833 16.5625 13.5645 16.7383C13.5047 16.8451 13.5047 16.8451 13.418 16.9336C13.3095 16.9581 13.3095 16.9581 13.1845 16.9578C13.1394 16.9578 13.0942 16.9579 13.0478 16.9579C13.0007 16.9569 12.9537 16.956 12.9053 16.955C12.8583 16.9553 12.8112 16.9556 12.7628 16.956C12.4175 16.9529 12.4175 16.9529 12.3074 16.8678C12.2141 16.745 12.2034 16.6469 12.1973 16.4941C12.3705 16.1398 12.5313 16.1895 12.8992 16.1859Z" fill="#FEC377"/>
</g>
<defs>
<clipPath id="clip0_21_457">
<rect width="25" height="25" fill="white" transform="translate(10 10)"/>
</clipPath>
</defs>
</svg>
