<svg width="46" height="45" viewBox="0 0 46 45" fill="none" xmlns="http://www.w3.org/2000/svg">
<rect x="0.5" width="45" height="45" rx="6" fill="#FFE5DD"/>
<g clip-path="url(#clip0_21_417)">
<path d="M24.5633 10.7299C24.6575 10.7798 24.7524 10.828 24.8477 10.8759C24.9046 10.9051 24.9616 10.9343 25.0203 10.9644C25.071 10.9903 25.1217 11.0162 25.174 11.0429C25.3022 11.1279 25.3466 11.1734 25.3926 11.3184C25.3821 11.6161 25.3821 11.6161 25.2614 11.7548C25.1153 11.8218 25.0155 11.8179 24.8555 11.8066C24.7269 11.7552 24.7269 11.7552 24.5984 11.6836C24.5508 11.6578 24.5033 11.6321 24.4544 11.6055C24.381 11.5646 24.381 11.5646 24.3062 11.5228C23.7759 11.2286 23.2455 10.9505 22.6261 11.107C22.2324 11.2347 21.8812 11.411 21.5199 11.6113C21.4295 11.6608 21.3389 11.7101 21.2484 11.7593C21.1875 11.7925 21.1267 11.8257 21.0658 11.8589C20.7869 12.0113 20.5053 12.1582 20.2229 12.3041C19.8664 12.4889 19.5127 12.6781 19.1609 12.8717C18.7433 13.1015 18.3214 13.3222 17.8975 13.54C17.4279 13.7814 16.9613 14.0273 16.4991 14.2826C16.2775 14.4047 16.055 14.524 15.8297 14.6392C15.7829 14.6632 15.7362 14.6872 15.688 14.712C15.5993 14.7573 15.5103 14.8022 15.4212 14.8467C15.0232 15.0497 15.0232 15.0497 14.7969 15.4199C14.7837 15.5216 14.7837 15.5216 14.7816 15.6305C14.7798 15.6666 14.778 15.7026 14.7761 15.7398C14.806 15.9119 14.872 16.0292 14.9922 16.1523C15.1445 16.2585 15.3063 16.3423 15.4713 16.427C15.5188 16.4521 15.5662 16.4772 15.6151 16.5031C15.7652 16.5823 15.9157 16.6604 16.0664 16.7383C16.1607 16.7875 16.255 16.8367 16.3493 16.8859C16.4893 16.959 16.6294 17.032 16.7697 17.1047C17.0849 17.2684 17.3972 17.4367 17.7083 17.608C18.1561 17.8544 18.609 18.09 19.0636 18.3236C19.4508 18.5227 19.8355 18.7253 20.2168 18.9355C20.6101 19.152 21.0061 19.3631 21.4045 19.5702C21.4662 19.6023 21.5278 19.6345 21.5895 19.6668C22.2579 20.0418 22.2579 20.0418 22.997 20.1807C23.0762 20.1814 23.0762 20.1814 23.157 20.1822C23.6183 20.1174 24.0185 19.8978 24.4191 19.671C24.5091 19.6206 24.5992 19.5704 24.6893 19.5201C24.7327 19.496 24.7761 19.4718 24.8208 19.4469C25.0249 19.336 25.2327 19.2328 25.4414 19.1309C25.3579 18.9534 25.2559 18.8317 25.121 18.6884C24.9543 18.5092 24.7949 18.3271 24.6418 18.136C24.453 17.9018 24.2525 17.6821 24.047 17.4627C23.8568 17.2585 23.6805 17.0456 23.506 16.8277C23.3474 16.6377 23.1788 16.4577 23.0078 16.2788C22.625 15.8735 22.625 15.8735 22.588 15.6091C22.6127 15.4471 22.632 15.3814 22.7559 15.2734C22.9332 15.2242 23.0438 15.1998 23.2136 15.278C23.3754 15.3955 23.4905 15.5314 23.6165 15.6854C23.6682 15.7473 23.72 15.8091 23.7719 15.8708C23.8109 15.9172 23.8109 15.9172 23.8507 15.9646C23.9654 16.0987 24.0851 16.2278 24.2054 16.3568C24.3709 16.5348 24.5293 16.7166 24.6815 16.9061C24.8459 17.1105 25.0182 17.3039 25.1973 17.4951C25.4194 17.7324 25.6293 17.9762 25.833 18.2296C25.9595 18.3866 26.0906 18.5391 26.2227 18.6914C26.7294 18.4406 27.2317 18.1829 27.7302 17.9163C27.8664 17.8436 28.0026 17.771 28.1388 17.6984C28.1735 17.6799 28.2083 17.6614 28.2441 17.6423C28.4988 17.5065 28.754 17.3715 29.0093 17.2369C29.0829 17.198 29.1566 17.1592 29.2302 17.1203C29.3359 17.0645 29.4416 17.0088 29.5474 16.9532C29.7413 16.8511 29.9349 16.7484 30.1279 16.6446C30.1962 16.608 30.2647 16.5718 30.3332 16.5358C30.4405 16.4794 30.5472 16.422 30.6538 16.3644C30.6864 16.3475 30.719 16.3306 30.7526 16.3132C30.9668 16.196 31.0828 16.0788 31.2031 15.8594C31.2474 15.6469 31.2283 15.4693 31.1299 15.2765C31.0936 15.2266 31.0936 15.2266 31.0566 15.1758C31.0566 15.1436 31.0566 15.1113 31.0566 15.0781C31.0211 15.0644 30.9856 15.0507 30.9491 15.0366C30.8222 14.9844 30.7024 14.9268 30.5808 14.8634C30.5143 14.8287 30.5143 14.8287 30.4464 14.7934C30.3991 14.7685 30.3517 14.7436 30.3029 14.718C30.253 14.692 30.2032 14.6659 30.1518 14.639C29.7765 14.442 29.4044 14.2395 29.033 14.0353C28.6768 13.8403 28.317 13.6528 27.9561 13.4668C27.5337 13.249 27.1131 13.0286 26.6957 12.8015C26.652 12.7778 26.6083 12.7542 26.5633 12.7298C25.9568 12.3979 25.9568 12.3979 25.8809 12.2461C25.8545 12.0482 25.8642 11.9757 25.9846 11.8127C26.1534 11.688 26.2126 11.689 26.418 11.709C26.5642 11.7669 26.5642 11.7669 26.7186 11.8486C26.7466 11.8633 26.7747 11.8779 26.8037 11.893C26.8951 11.941 26.9861 11.9897 27.0772 12.0386C27.1412 12.0724 27.2053 12.1061 27.2694 12.1399C27.6814 12.3572 28.0906 12.5797 28.4985 12.8046C28.8678 13.0075 29.2416 13.201 29.6162 13.3936C30.0577 13.6207 30.498 13.8498 30.9346 14.0863C31.0001 14.1215 31.0001 14.1215 31.067 14.1574C31.3613 14.318 31.6111 14.4687 31.7982 14.7546C31.8221 14.7903 31.8459 14.8259 31.8705 14.8626C32.0138 15.1223 32.0466 15.3476 32.0454 15.6427C32.0457 15.7052 32.0459 15.7677 32.0462 15.8321C32.0339 15.9967 32 16.1007 31.9356 16.25C31.9824 16.2485 31.9824 16.2485 32.0301 16.2469C33.1816 16.2141 33.1816 16.2141 33.5957 16.4453C33.6727 16.4861 33.6727 16.4861 33.7513 16.5277C34.1805 16.8806 34.4275 17.2638 34.5234 17.8125C34.5276 17.8918 34.5295 17.9713 34.5294 18.0507C34.5295 18.0976 34.5296 18.1446 34.5297 18.1929C34.5296 18.2441 34.5295 18.2952 34.5293 18.3479C34.5294 18.4299 34.5294 18.4299 34.5294 18.5135C34.5295 18.697 34.5293 18.8804 34.529 19.0639C34.529 19.1952 34.529 19.3266 34.529 19.458C34.529 19.741 34.5289 20.024 34.5286 20.307C34.5282 20.7162 34.5281 21.1253 34.528 21.5345C34.5279 22.1984 34.5276 22.8623 34.5271 23.5261C34.5267 24.171 34.5263 24.8159 34.5261 25.4608C34.5261 25.5204 34.5261 25.5204 34.5261 25.5812C34.526 25.7807 34.526 25.9801 34.5259 26.1795C34.5254 27.8339 34.5245 29.4882 34.5234 31.1426C34.5735 31.1403 34.6235 31.138 34.6751 31.1357C34.7415 31.1339 34.808 31.1321 34.8744 31.1304C34.9073 31.1287 34.9402 31.1271 34.9741 31.1254C35.1509 31.122 35.2482 31.1378 35.3998 31.2316C35.5367 31.3768 35.5315 31.4665 35.5324 31.664C35.5327 31.6957 35.5329 31.7274 35.5331 31.7601C35.5333 31.8273 35.5329 31.8946 35.5318 31.9618C35.5305 32.0623 35.5318 32.1625 35.5334 32.263C35.5353 32.9842 35.3185 33.553 34.8151 34.0778C34.1552 34.7114 33.4231 34.7707 32.5559 34.7686C32.4701 34.7687 32.3843 34.7689 32.2985 34.7692C32.0636 34.7697 31.8287 34.7696 31.5938 34.7693C31.3401 34.7692 31.0864 34.7697 30.8327 34.77C30.336 34.7706 29.8393 34.7707 29.3426 34.7706C28.9388 34.7705 28.5351 34.7706 28.1313 34.7708C28.0451 34.7709 28.0451 34.7709 27.9571 34.7709C27.8403 34.771 27.7235 34.771 27.6067 34.7711C26.5116 34.7716 25.4165 34.7715 24.3215 34.7712C23.32 34.771 22.3186 34.7715 21.3172 34.7724C20.2884 34.7734 19.2597 34.7738 18.231 34.7736C17.6536 34.7735 17.0762 34.7736 16.4989 34.7743C16.0074 34.7749 15.5159 34.775 15.0243 34.7744C14.7737 34.7741 14.523 34.774 14.2724 34.7746C14.0427 34.7752 13.813 34.775 13.5833 34.7743C13.5004 34.7742 13.4176 34.7743 13.3347 34.7747C12.4834 34.7784 11.7803 34.6427 11.1472 34.0383C10.6578 33.5379 10.4648 32.9538 10.4666 32.263C10.4671 32.2303 10.4676 32.1977 10.4682 32.164C10.4695 32.0625 10.4682 31.9612 10.4666 31.8597C10.4668 31.7945 10.4671 31.7293 10.4676 31.664C10.4679 31.606 10.4681 31.548 10.4684 31.4882C10.5 31.3379 10.5 31.3379 10.6002 31.2316C10.7793 31.1209 10.9223 31.1203 11.1256 31.1304C11.1594 31.1313 11.1933 31.1321 11.2281 31.133C11.311 31.1353 11.3938 31.1388 11.4766 31.1426C11.4765 31.1006 11.4765 31.1006 11.4764 31.0577C11.4731 29.397 11.4706 27.7362 11.4691 26.0755C11.4689 25.8759 11.4687 25.6764 11.4685 25.4769C11.4685 25.4371 11.4684 25.3974 11.4684 25.3565C11.4678 24.7138 11.4666 24.0712 11.4653 23.4285C11.4639 22.7688 11.4631 22.109 11.4628 21.4493C11.4626 21.0424 11.462 20.6355 11.4608 20.2286C11.46 19.9494 11.4598 19.6701 11.4599 19.3908C11.46 19.2299 11.4598 19.0689 11.4591 18.9079C11.4584 18.733 11.4586 18.5581 11.459 18.3832C11.4585 18.3328 11.4581 18.2825 11.4577 18.2307C11.4612 17.6491 11.6041 17.1683 12.0064 16.7396C12.3456 16.4214 12.74 16.2426 13.2062 16.2452C13.2812 16.2455 13.2812 16.2455 13.3578 16.2457C13.4097 16.2461 13.4616 16.2465 13.5151 16.2469C13.5678 16.2472 13.6205 16.2474 13.6748 16.2476C13.8047 16.2482 13.9346 16.249 14.0645 16.25C14.0408 16.1947 14.0408 16.1947 14.0167 16.1384C13.8884 15.7974 13.9225 15.3394 14.0492 15.0018C14.3542 14.3678 15.0306 14.0973 15.6325 13.7926C15.7881 13.7139 15.9432 13.6342 16.0983 13.5545C16.1292 13.5387 16.1601 13.5228 16.1919 13.5065C16.4618 13.3675 16.7284 13.223 16.9941 13.0762C17.4358 12.8326 17.8827 12.6002 18.3313 12.3697C18.7184 12.1707 19.1032 11.9681 19.4844 11.7578C20.0772 11.4312 20.6785 11.1213 21.281 10.8129C21.4158 10.7436 21.5501 10.6734 21.6841 10.6025C22.7029 10.0686 23.5734 10.2015 24.5633 10.7299ZM17.9707 18.6914C17.9683 18.8884 17.9665 19.0854 17.9653 19.2824C17.9649 19.3491 17.9642 19.4158 17.9633 19.4825C17.9512 20.4546 18.105 21.2932 18.7886 22.0209C19.6023 22.7947 20.8979 23.0363 21.9746 23.1836C22.0209 23.1901 22.0671 23.1966 22.1148 23.2032C23.3365 23.3424 24.6198 23.1808 25.7832 22.793C25.7832 21.8262 25.7832 20.8594 25.7832 19.8633C25.3007 20.1045 24.8216 20.3453 24.3501 20.6063C23.9206 20.8367 23.495 20.9638 23.0061 20.9589C22.9548 20.9603 22.9548 20.9603 22.9025 20.9618C22.3383 20.9613 21.8289 20.7121 21.3429 20.4492C21.2902 20.4213 21.2374 20.3933 21.1831 20.3645C20.8044 20.163 20.4281 19.9569 20.0522 19.7502C19.6614 19.5361 19.2667 19.3297 18.871 19.1248C18.8399 19.1086 18.8089 19.0925 18.7769 19.0759C18.6883 19.0299 18.5995 18.984 18.5107 18.9382C18.4339 18.8986 18.4339 18.8986 18.3555 18.8581C18.229 18.796 18.1023 18.7416 17.9707 18.6914ZM27.623 18.8516C27.5678 18.8814 27.5125 18.9111 27.4555 18.9417C27.3498 18.9991 27.3498 18.9991 27.2419 19.0576C27.0184 19.1785 26.7948 19.2993 26.5645 19.4238C26.5645 20.4229 26.5645 21.4219 26.5645 22.4512C27.2642 22.0624 27.6919 21.5584 27.9316 20.791C28.0328 20.3231 28.0415 19.8609 28.0354 19.3842C28.0349 19.3165 28.0345 19.2488 28.0341 19.1811C28.0329 19.0179 28.0313 18.8546 28.0293 18.6914C27.8751 18.6914 27.7556 18.7794 27.623 18.8516ZM12.4836 17.3883C12.4611 17.4143 12.4386 17.4403 12.4154 17.4671C12.2324 17.7765 12.2441 18.105 12.2461 18.4536C12.246 18.5078 12.2459 18.562 12.2458 18.6178C12.2457 18.7998 12.2462 18.9817 12.2467 19.1637C12.2468 19.2962 12.2468 19.4287 12.2467 19.5612C12.2466 19.8802 12.2471 20.1992 12.2477 20.5181C12.2484 20.8872 12.2485 21.2563 12.2486 21.6253C12.2491 22.5995 12.2505 23.5736 12.2517 24.5477C12.2537 26.724 12.2557 28.9003 12.2578 31.1426C19.3477 31.1426 26.4375 31.1426 33.7422 31.1426C33.7452 28.9673 33.7482 26.792 33.7513 24.5508C33.7527 23.8635 33.754 23.1762 33.7554 22.4681C33.7559 21.853 33.7559 21.853 33.7562 21.2378C33.7563 20.9634 33.7568 20.6891 33.7577 20.4147C33.7586 20.0983 33.759 19.7818 33.7588 19.4654C33.7587 19.3035 33.7589 19.1417 33.7597 18.9798C33.7604 18.8063 33.7602 18.6329 33.7598 18.4595C33.7602 18.4092 33.7607 18.3588 33.7611 18.307C33.7588 17.9449 33.7076 17.6175 33.4614 17.3334C33.4286 17.2936 33.4286 17.2936 33.3951 17.2531C33.1551 17.0572 32.8804 17.0046 32.5783 16.9878C32.542 16.9857 32.5056 16.9836 32.4681 16.9815C32.3496 16.9761 32.2312 16.9727 32.1126 16.9702C32.0721 16.9693 32.0316 16.9683 31.9898 16.9674C31.0431 16.9565 30.2599 17.3224 29.4941 17.8613C29.478 17.8936 29.4619 17.9258 29.4453 17.959C29.4841 17.9594 29.523 17.9598 29.563 17.9602C29.9287 17.964 30.2944 17.9682 30.6601 17.973C30.8481 17.9755 31.0361 17.9777 31.2241 17.9796C31.4055 17.9814 31.5869 17.9836 31.7684 17.9862C31.8376 17.9871 31.9068 17.9879 31.9761 17.9884C32.073 17.9893 32.1699 17.9907 32.2668 17.9922C32.322 17.9929 32.3772 17.9935 32.4341 17.9942C32.5703 18.0078 32.5703 18.0078 32.7168 18.1055C32.7611 18.2384 32.7718 18.3151 32.7719 18.4517C32.7721 18.4925 32.7722 18.5333 32.7724 18.5754C32.7723 18.6202 32.7722 18.6651 32.7722 18.7113C32.7723 18.7589 32.7724 18.8066 32.7725 18.8557C32.7728 19.016 32.7728 19.1764 32.7727 19.3367C32.7729 19.4514 32.773 19.5661 32.7732 19.6808C32.7737 19.9928 32.7738 20.3048 32.7738 20.6169C32.7738 20.8443 32.774 21.0717 32.7741 21.2991C32.7745 21.9104 32.7747 22.5217 32.7747 23.133C32.7747 23.1851 32.7747 23.1851 32.7747 23.2382C32.7747 23.273 32.7747 23.3077 32.7747 23.3436C32.7747 23.9072 32.7751 24.4708 32.7758 25.0344C32.7765 25.6129 32.7768 26.1914 32.7768 26.7699C32.7768 27.0947 32.7769 27.4196 32.7774 27.7445C32.7779 28.0499 32.7779 28.3553 32.7776 28.6608C32.7775 28.773 32.7776 28.8853 32.7779 28.9976C32.7783 29.1505 32.7781 29.3034 32.7777 29.4563C32.778 29.5011 32.7782 29.5458 32.7785 29.5919C32.7782 29.6329 32.778 29.6738 32.7778 29.716C32.7778 29.7689 32.7778 29.7689 32.7778 29.823C32.7634 29.9396 32.7295 30.0174 32.668 30.1172C32.5424 30.18 32.4531 30.1723 32.3124 30.1724C32.2574 30.1726 32.2023 30.1728 32.1456 30.173C32.0846 30.173 32.0236 30.1729 31.9608 30.1729C31.8642 30.1731 31.8642 30.1731 31.7657 30.1733C31.5864 30.1737 31.4071 30.1738 31.2278 30.1738C31.0346 30.1739 30.8415 30.1743 30.6483 30.1746C30.2257 30.1753 29.8031 30.1756 29.3805 30.1758C29.1168 30.1759 28.8532 30.1761 28.5895 30.1764C27.8599 30.1769 27.1304 30.1775 26.4008 30.1776C26.3541 30.1776 26.3074 30.1776 26.2593 30.1776C26.2125 30.1777 26.1656 30.1777 26.1174 30.1777C26.0225 30.1777 25.9276 30.1777 25.8327 30.1777C25.7621 30.1778 25.7621 30.1778 25.69 30.1778C24.9268 30.178 24.1636 30.1788 23.4004 30.18C22.6175 30.1811 21.8346 30.1817 21.0517 30.1818C20.6118 30.1818 20.172 30.1821 19.7322 30.183C19.3577 30.1837 18.9833 30.184 18.6088 30.1836C18.4176 30.1834 18.2265 30.1835 18.0353 30.1841C17.8605 30.1848 17.6856 30.1847 17.5108 30.1841C17.4172 30.184 17.3236 30.1845 17.2301 30.1852C17.1749 30.1848 17.1197 30.1845 17.0629 30.1842C16.9912 30.1842 16.9912 30.1842 16.918 30.1843C16.7988 30.166 16.7988 30.166 16.7104 30.1021C16.6117 29.9617 16.632 29.8431 16.6523 29.6777C16.751 29.55 16.8094 29.4901 16.9693 29.4578C17.0153 29.4578 17.0614 29.4577 17.1089 29.4576C17.1621 29.4571 17.2154 29.4565 17.2703 29.4559C17.3288 29.4563 17.3874 29.4567 17.4476 29.4571C17.5098 29.4567 17.572 29.4563 17.6361 29.456C17.8088 29.455 17.9815 29.4552 18.1542 29.4556C18.3404 29.4559 18.5265 29.455 18.7127 29.4542C19.0354 29.4531 19.358 29.4527 19.6806 29.4527C20.1471 29.4528 20.6135 29.4518 21.08 29.4506C21.8368 29.4486 22.5936 29.4474 23.3504 29.4468C24.0856 29.4462 24.8208 29.4453 25.556 29.4437C25.6246 29.4436 25.6246 29.4436 25.6947 29.4434C26.0526 29.4427 26.4106 29.4419 26.7685 29.4411C28.5234 29.4373 30.2783 29.4356 32.0332 29.4336C32.0332 25.9048 32.0332 22.376 32.0332 18.7402C30.9697 18.7402 29.9063 18.7402 28.8106 18.7402C28.7944 19.2075 28.7783 19.6748 28.7617 20.1562C28.6721 21.2245 28.3178 22.0335 27.5197 22.7563C27.231 22.9933 26.8981 23.1659 26.5645 23.3301C26.4309 23.9914 26.739 24.4219 27.0842 24.9656C27.3215 25.3421 27.4543 25.677 27.3751 26.1259C27.293 26.4403 27.121 26.6143 26.8574 26.7969C26.491 26.9993 26.0255 26.9925 25.6291 26.8793C25.3528 26.7763 25.1694 26.5947 25.002 26.3574C24.8466 25.958 24.8765 25.6583 25.0345 25.2755C25.1799 24.9654 25.3686 24.6778 25.5497 24.3876C25.7706 24.0295 25.7706 24.0295 25.7832 23.623C25.5572 23.6523 25.3366 23.6927 25.1138 23.7407C23.1019 24.1695 20.5533 24.1092 18.7642 22.97C17.9927 22.4305 17.4936 21.6966 17.3012 20.7704C17.202 20.1005 17.2126 19.4128 17.1895 18.7402C16.126 18.7402 15.0625 18.7402 13.9668 18.7402C13.9668 22.269 13.9668 25.7979 13.9668 29.4336C14.7886 29.4578 14.7886 29.4578 15.627 29.4824C15.8223 29.5801 15.8223 29.5801 15.8589 29.6682C15.8629 29.7016 15.8669 29.7349 15.8711 29.7693C15.8761 29.8024 15.8812 29.8355 15.8864 29.8696C15.8711 29.9707 15.8711 29.9707 15.8041 30.0733C15.6046 30.2175 15.4106 30.1921 15.1705 30.1885C15.1213 30.1885 15.0721 30.1884 15.0213 30.1884C14.9174 30.1881 14.8134 30.1873 14.7095 30.1861C14.5501 30.1843 14.3908 30.1841 14.2314 30.1841C14.1305 30.1837 14.0295 30.1831 13.9285 30.1824C13.8807 30.1823 13.8329 30.1822 13.7837 30.1821C13.7394 30.1815 13.6951 30.1808 13.6494 30.1802C13.6104 30.1798 13.5714 30.1795 13.5313 30.1791C13.4297 30.166 13.4297 30.166 13.2832 30.0684C13.2389 29.9354 13.2282 29.8587 13.2281 29.7221C13.2279 29.6813 13.2278 29.6405 13.2276 29.5984C13.2277 29.5536 13.2278 29.5087 13.2279 29.4625C13.2277 29.4149 13.2276 29.3673 13.2275 29.3182C13.2272 29.1578 13.2272 28.9974 13.2273 28.8371C13.2271 28.7224 13.227 28.6077 13.2268 28.493C13.2264 28.181 13.2262 27.869 13.2262 27.557C13.2262 27.3295 13.226 27.1021 13.2259 26.8747C13.2255 26.2634 13.2253 25.6521 13.2253 25.0408C13.2253 25.0061 13.2253 24.9714 13.2253 24.9356C13.2253 24.9009 13.2253 24.8661 13.2253 24.8303C13.2254 24.2666 13.2249 23.703 13.2242 23.1394C13.2235 22.5609 13.2232 21.9824 13.2232 21.404C13.2232 21.0791 13.2231 20.7542 13.2226 20.4293C13.2221 20.1239 13.2221 19.8185 13.2224 19.5131C13.2225 19.4008 13.2224 19.2885 13.2221 19.1762C13.2217 19.0233 13.2219 18.8704 13.2223 18.7175C13.2221 18.6728 13.2218 18.628 13.2215 18.5819C13.2219 18.5205 13.2219 18.5205 13.2222 18.4578C13.2222 18.4225 13.2222 18.3872 13.2222 18.3509C13.2366 18.2342 13.2705 18.1564 13.332 18.0566C13.4666 17.9894 13.577 17.9999 13.7276 17.9978C13.7902 17.9968 13.8528 17.9958 13.9172 17.9948C13.9857 17.994 14.0543 17.9932 14.1228 17.9924C14.1927 17.9914 14.2627 17.9903 14.3326 17.9893C14.5167 17.9866 14.7009 17.9842 14.885 17.9818C15.0729 17.9794 15.2608 17.9767 15.4486 17.974C15.8173 17.9687 16.186 17.9638 16.5547 17.959C15.9896 17.3734 15.0702 16.9964 14.2692 16.9687C14.1449 16.9671 14.0209 16.968 13.8966 16.9702C13.8566 16.9708 13.8165 16.9713 13.7753 16.9718C13.0556 16.9859 13.0556 16.9859 12.4836 17.3883ZM26.125 24.8926C26.049 25.0074 25.9765 25.1227 25.9053 25.2405C25.8849 25.273 25.8646 25.3054 25.8437 25.3389C25.728 25.5299 25.646 25.6893 25.6367 25.918C25.7393 26.0828 25.7931 26.1491 25.9785 26.2109C26.2229 26.229 26.3683 26.2158 26.5645 26.0645C26.6753 25.929 26.6753 25.929 26.6575 25.7864C26.6011 25.5806 26.5061 25.4203 26.3936 25.2405C26.3732 25.2069 26.3529 25.1733 26.332 25.1386C26.281 25.0555 26.2276 24.9739 26.1738 24.8926C26.1577 24.8926 26.1416 24.8926 26.125 24.8926ZM11.2324 31.9238C11.2324 32.5457 11.2828 33.0147 11.7137 33.4882C12.0842 33.8359 12.4928 33.9805 12.9944 33.981C13.0295 33.9811 13.0645 33.9812 13.1006 33.9813C13.2186 33.9816 13.3366 33.9815 13.4546 33.9815C13.5398 33.9816 13.625 33.9817 13.7103 33.9819C13.9449 33.9823 14.1796 33.9824 14.4143 33.9824C14.6672 33.9825 14.9201 33.9829 15.173 33.9832C15.7262 33.9839 16.2795 33.9842 16.8327 33.9844C17.1781 33.9845 17.5235 33.9847 17.8689 33.9849C18.825 33.9855 19.7811 33.986 20.7372 33.9862C20.8291 33.9862 20.8291 33.9862 20.9227 33.9862C20.9841 33.9862 21.0454 33.9863 21.1087 33.9863C21.233 33.9863 21.3573 33.9863 21.4817 33.9863C21.5434 33.9863 21.605 33.9864 21.6686 33.9864C22.6679 33.9866 23.6672 33.9874 24.6665 33.9886C25.6923 33.9897 26.718 33.9903 27.7437 33.9904C28.3198 33.9904 28.8958 33.9907 29.4718 33.9916C29.9623 33.9923 30.4528 33.9926 30.9433 33.9922C31.1936 33.992 31.4438 33.992 31.6941 33.9927C31.9233 33.9933 32.1525 33.9933 32.3817 33.9927C32.4645 33.9926 32.5473 33.9928 32.6301 33.9932C33.3065 33.9964 33.8057 33.9363 34.3129 33.4573C34.7246 33.0209 34.7676 32.501 34.7676 31.9238C31.8833 31.9238 28.999 31.9238 26.0273 31.9238C25.9629 32.1011 25.8984 32.2783 25.832 32.4609C25.6978 32.6349 25.6978 32.6349 25.5879 32.7539C25.5879 32.7861 25.5879 32.8184 25.5879 32.8516C25.5486 32.8697 25.5486 32.8697 25.5085 32.8882C25.3867 32.9486 25.3867 32.9486 25.2644 33.0438C24.8295 33.3096 24.3772 33.3136 23.8793 33.3122C23.8091 33.3124 23.739 33.3127 23.6688 33.313C23.5225 33.3134 23.3762 33.3133 23.2298 33.3128C23.0439 33.3122 22.858 33.3132 22.672 33.3146C22.5273 33.3155 22.3827 33.3155 22.238 33.3153C22.1695 33.3152 22.101 33.3155 22.0325 33.3161C21.4549 33.3206 20.9413 33.2604 20.5098 32.8516C20.4775 32.8516 20.4453 32.8516 20.4121 32.8516C20.4 32.8254 20.3879 32.7992 20.3755 32.7722C20.3147 32.6501 20.3147 32.6501 20.2199 32.525C20.1191 32.3633 20.1191 32.3633 19.9727 31.9238C17.0884 31.9238 14.2041 31.9238 11.2324 31.9238ZM20.8027 31.9238C20.8953 32.1639 20.8953 32.1639 21.0621 32.3236C21.0901 32.3475 21.1182 32.3713 21.147 32.3959C21.354 32.5374 21.5376 32.571 21.7858 32.5728C21.8451 32.5734 21.9044 32.574 21.9655 32.5747C22.0293 32.5748 22.093 32.5749 22.1587 32.575C22.2253 32.5753 22.2919 32.5756 22.3584 32.576C22.4979 32.5766 22.6373 32.5767 22.7767 32.5767C22.9545 32.5767 23.1323 32.578 23.3101 32.5797C23.4476 32.5808 23.5851 32.581 23.7227 32.5809C23.8198 32.5811 23.917 32.5822 24.0141 32.5832C24.4155 32.5812 24.6966 32.547 25.0065 32.2729C25.0292 32.2443 25.0519 32.2157 25.0752 32.1863C25.0989 32.1574 25.1225 32.1286 25.1469 32.0989C25.2061 32.0232 25.2061 32.0232 25.1973 31.9238C23.7471 31.9238 22.2969 31.9238 20.8027 31.9238Z" fill="#E86B42"/>
<path d="M15.6005 27.7005C15.6961 27.6998 15.6961 27.6998 15.7937 27.6992C15.864 27.6998 15.9342 27.7003 16.0045 27.7009C16.0788 27.7008 16.1531 27.7006 16.2274 27.7003C16.4288 27.6998 16.6303 27.7006 16.8318 27.7016C17.0426 27.7024 17.2535 27.7023 17.4643 27.7022C17.8184 27.7023 18.1724 27.7032 18.5264 27.7045C18.9358 27.706 19.3451 27.7066 19.7545 27.7065C20.1483 27.7064 20.5421 27.7069 20.9359 27.7077C21.1035 27.7081 21.2711 27.7083 21.4387 27.7083C21.636 27.7084 21.8333 27.709 22.0306 27.71C22.103 27.7103 22.1755 27.7104 22.2479 27.7103C22.3467 27.7103 22.4455 27.7109 22.5444 27.7115C22.5997 27.7117 22.655 27.7119 22.712 27.712C22.8519 27.7245 22.9318 27.7467 23.0488 27.8223C23.1505 27.9529 23.1463 28.0233 23.1404 28.1915C23.0977 28.3594 23.0977 28.3594 23.0169 28.4419C22.8669 28.5256 22.7607 28.5244 22.5891 28.5248C22.5578 28.525 22.5265 28.5253 22.4942 28.5256C22.3893 28.5263 22.2845 28.5259 22.1796 28.5256C22.1043 28.5259 22.0291 28.5262 21.9538 28.5266C21.7496 28.5275 21.5453 28.5274 21.341 28.5271C21.1705 28.527 21 28.5273 20.8295 28.5276C20.4274 28.5283 20.0252 28.5282 19.6231 28.5276C19.208 28.5271 18.793 28.5278 18.3779 28.5291C18.0217 28.5302 17.6654 28.5305 17.3092 28.5302C17.0964 28.53 16.8835 28.5301 16.6707 28.531C16.4707 28.5317 16.2706 28.5315 16.0705 28.5306C15.9971 28.5304 15.9236 28.5306 15.8502 28.5311C15.7499 28.5318 15.6498 28.5312 15.5495 28.5303C15.4934 28.5303 15.4373 28.5303 15.3795 28.5303C15.2055 28.5006 15.1483 28.448 15.041 28.3105C15.0134 28.2129 15.0134 28.2129 15.0136 28.1152C15.0125 28.083 15.0114 28.0508 15.0103 28.0176C15.0966 27.7432 15.3461 27.7002 15.6005 27.7005Z" fill="#E86B42"/>
<path d="M15.7395 26.1849C15.8162 26.1843 15.8162 26.1843 15.8945 26.1836C16.0637 26.1825 16.2329 26.1829 16.4021 26.1833C16.5196 26.183 16.6371 26.1827 16.7546 26.1824C17.0008 26.1819 17.2471 26.1821 17.4934 26.1828C17.8093 26.1836 18.1252 26.1825 18.4411 26.1808C18.6837 26.1797 18.9264 26.1798 19.169 26.1802C19.2855 26.1802 19.402 26.1799 19.5185 26.1792C19.6812 26.1783 19.8439 26.179 20.0066 26.1801C20.0549 26.1796 20.1032 26.179 20.153 26.1784C20.4786 26.1829 20.4786 26.1829 20.6373 26.3256C20.7201 26.4839 20.7351 26.5719 20.7051 26.7481C20.5961 26.8871 20.5317 26.936 20.3633 26.9922C20.295 26.9967 20.2266 26.9986 20.1582 26.9987C20.0956 26.999 20.0956 26.999 20.0317 26.9994C19.9632 26.9993 19.9632 26.9993 19.8933 26.9993C19.8451 26.9995 19.7969 26.9996 19.7473 26.9998C19.5875 27.0003 19.4278 27.0004 19.2681 27.0004C19.1572 27.0006 19.0463 27.0007 18.9355 27.0009C18.7029 27.0012 18.4703 27.0013 18.2378 27.0012C17.9396 27.0012 17.6415 27.0019 17.3434 27.0028C17.1143 27.0033 16.8853 27.0034 16.6563 27.0034C16.5463 27.0034 16.4364 27.0036 16.3265 27.004C16.1728 27.0045 16.0191 27.0044 15.8654 27.0041C15.7972 27.0045 15.7972 27.0045 15.7276 27.0049C15.3242 27.0029 15.3242 27.0029 15.1387 26.8945C15.0176 26.7129 15.0184 26.6212 15.041 26.4063C15.2078 26.1415 15.4582 26.183 15.7395 26.1849Z" fill="#E86B42"/>
</g>
<defs>
<clipPath id="clip0_21_417">
<rect width="25" height="25" fill="white" transform="translate(10.5 10)"/>
</clipPath>
</defs>
</svg>
