<svg width="46" height="45" viewBox="0 0 46 45" fill="none" xmlns="http://www.w3.org/2000/svg">
<rect x="0.5" width="45" height="45" rx="6" fill="#FFF0DB"/>
<g clip-path="url(#clip0_21_437)">
<path d="M14.6054 14.9969C14.6452 15.0125 14.685 15.0282 14.726 15.0443C14.8093 15.0772 14.8925 15.1103 14.9756 15.1435C15.1022 15.1941 15.2292 15.2439 15.3561 15.2936C15.4375 15.3259 15.5189 15.3582 15.6003 15.3905C15.6378 15.4052 15.6754 15.42 15.714 15.4351C16.0514 15.5711 16.3393 15.7151 16.5059 16.0547C16.5209 16.2028 16.5178 16.3459 16.5059 16.4941C16.6079 16.5281 16.7099 16.562 16.8121 16.5954C16.8999 16.6252 16.9871 16.6569 17.0734 16.6906C17.4687 16.8388 17.8259 16.8643 18.2454 16.8664C18.3796 16.8688 18.5137 16.8719 18.6478 16.875C18.6813 16.8757 18.7148 16.8764 18.7493 16.8771C19.0723 16.8842 19.3941 16.9011 19.7163 16.9244C19.7681 16.9279 19.8198 16.9315 19.8732 16.9351C20.1616 16.9582 20.4247 17.007 20.7026 17.0864C20.9682 17.1638 20.9682 17.1638 21.2422 17.1777C21.4302 17.0685 21.5509 16.9484 21.6922 16.7863C21.9197 16.5258 22.2724 16.3666 22.6094 16.2988C23.1007 16.2689 23.5724 16.3264 24.0559 16.4087C24.1217 16.4188 24.1875 16.4289 24.2533 16.439C24.3157 16.4494 24.3781 16.4598 24.4424 16.4705C24.4984 16.4797 24.5544 16.4889 24.6121 16.4984C24.7766 16.5487 24.8463 16.6052 24.9532 16.7383C24.9915 16.8736 24.9839 16.9922 24.9532 17.1289C24.8647 17.254 24.8647 17.254 24.709 17.3242C24.4149 17.3405 24.1192 17.2668 23.83 17.219C23.1068 17.0715 23.1068 17.0715 22.4154 17.2496C22.2426 17.3798 22.0959 17.5346 21.9464 17.6904C21.8204 17.8205 21.6881 17.9374 21.5506 18.0549C21.4293 18.1615 21.3117 18.2714 21.194 18.382C20.8784 18.6781 20.557 18.9606 20.2168 19.2285C20.1841 19.2545 20.1513 19.2805 20.1176 19.3073C19.7091 19.6314 19.3037 19.9491 18.8588 20.2222C18.7466 20.3068 18.7042 20.3684 18.6543 20.498C18.896 20.7981 19.2299 20.9118 19.6065 20.9589C20.4932 20.848 21.1994 20.3663 21.8586 19.7945C22.1118 19.5774 22.295 19.5524 22.6203 19.5571C22.9682 19.5909 23.1543 19.818 23.3838 20.055C23.9936 20.6459 24.9554 21.1343 25.8167 21.1324C25.882 21.1303 25.9472 21.1279 26.0125 21.1252C26.0457 21.1238 26.0788 21.1224 26.113 21.121C26.1633 21.1189 26.1633 21.1189 26.2147 21.1167C26.891 21.0884 27.3556 21.1112 27.8788 21.5831C27.9111 21.6136 27.9433 21.6441 27.9766 21.6755C28.1549 21.8372 28.3526 21.9725 28.5481 22.1124C28.6256 22.1694 28.703 22.2264 28.7803 22.2837C28.8178 22.3115 28.8554 22.3394 28.8941 22.3681C29.0378 22.4749 29.181 22.5825 29.324 22.6902C29.4501 22.7852 29.5768 22.8796 29.7034 22.974C29.7814 23.0328 29.8585 23.0928 29.9355 23.1529C29.9782 23.1852 30.0209 23.2175 30.0648 23.2507C30.1003 23.2783 30.1357 23.3059 30.1722 23.3343C30.2753 23.3922 30.2753 23.3922 30.3859 23.3439C30.6225 23.233 30.8374 23.0867 31.0568 22.9455C31.1423 22.8905 31.2281 22.836 31.314 22.7815C31.3678 22.747 31.4216 22.7125 31.4771 22.677C31.5264 22.6454 31.5757 22.6138 31.6265 22.5812C31.7447 22.5102 31.7447 22.5102 31.7891 22.4023C31.7537 22.2788 31.7537 22.2788 31.6949 22.1355C31.6726 22.0783 31.6502 22.0212 31.6273 21.9623C31.6019 21.8984 31.5765 21.8345 31.5511 21.7706C31.5247 21.7037 31.4984 21.6367 31.4722 21.5697C31.3989 21.3831 31.3251 21.1967 31.2513 21.0103C31.1846 20.8418 31.1182 20.6732 31.0518 20.5046C30.7664 19.7799 30.4807 19.0553 30.1898 18.3328C30.1758 18.2981 30.1618 18.2633 30.1474 18.2275C30.0829 18.0672 30.0183 17.907 29.9533 17.7469C29.9311 17.6919 29.909 17.637 29.8861 17.5804C29.8669 17.5329 29.8476 17.4854 29.8278 17.4364C29.7871 17.3242 29.7871 17.3242 29.7871 17.2266C29.7316 17.249 29.6761 17.2714 29.6189 17.2945C29.3831 17.3887 29.1461 17.4793 28.9082 17.5684C28.8501 17.5902 28.7919 17.612 28.732 17.6345C28.0464 17.8617 27.3428 17.7935 26.6408 17.6813C26.5931 17.674 26.5454 17.6668 26.4962 17.6593C26.2231 17.6103 26.0506 17.561 25.8809 17.3242C25.8738 17.1216 25.8997 17.0224 26.0213 16.8603C26.294 16.7294 26.5701 16.8115 26.8596 16.8617C27.7436 17.0121 28.3467 16.8964 29.1815 16.5844C29.2852 16.5478 29.3871 16.5186 29.4942 16.4941C29.4919 16.4658 29.4896 16.4375 29.4873 16.4083C29.4746 16.1324 29.4961 15.9744 29.6895 15.7617C29.9367 15.5816 30.2012 15.4567 30.4856 15.3476C30.5229 15.333 30.5602 15.3184 30.5987 15.3034C30.677 15.2729 30.7553 15.2426 30.8338 15.2125C30.9525 15.1668 31.0709 15.1203 31.1892 15.0736C32.2298 14.6679 32.2298 14.6679 32.6247 14.8187C32.8893 15.0028 33.0132 15.2611 33.124 15.5525C33.1452 15.6061 33.1452 15.6061 33.1669 15.6609C33.2117 15.7747 33.2557 15.8887 33.2997 16.0028C33.329 16.0776 33.3583 16.1524 33.3877 16.2272C33.4314 16.3382 33.4748 16.4493 33.5178 16.5605C33.5864 16.738 33.6565 16.9145 33.7314 17.0894C33.7519 17.1381 33.7519 17.1381 33.7729 17.1878C33.8099 17.2754 33.8477 17.3626 33.8856 17.4498C33.9484 17.6521 33.9519 17.7969 33.9375 18.0078C33.8643 18.1299 33.8643 18.1299 33.7422 18.2031C33.6002 18.228 33.499 18.2195 33.3516 18.2031C33.2165 18.1 33.165 17.9831 33.1033 17.8272C33.0848 17.7807 33.0662 17.7343 33.0471 17.6865C33.0275 17.6364 33.008 17.5864 32.9879 17.5348C32.9675 17.4833 32.9471 17.4318 32.9261 17.3788C32.8831 17.27 32.8403 17.1612 32.7977 17.0523C32.7323 16.8852 32.6662 16.7185 32.6 16.5517C32.5583 16.4461 32.5167 16.3404 32.4752 16.2347C32.4454 16.1597 32.4454 16.1597 32.4151 16.0831C32.3879 16.0134 32.3879 16.0134 32.3602 15.9423C32.3442 15.9015 32.3281 15.8606 32.3116 15.8185C32.2774 15.7129 32.2774 15.7129 32.2774 15.5664C32.068 15.6471 31.8587 15.7278 31.6494 15.8087C31.5784 15.8361 31.5073 15.8636 31.4362 15.8909C31.3335 15.9305 31.2309 15.9702 31.1282 16.0099C31.0969 16.0219 31.0655 16.034 31.0332 16.0464C30.8801 16.1057 30.729 16.1675 30.5792 16.2345C30.4219 16.2988 30.4219 16.2988 30.2754 16.2988C30.289 16.3319 30.3025 16.3649 30.3165 16.3989C30.6389 17.1854 30.9552 17.974 31.2649 18.7657C31.3568 19.0006 31.449 19.2355 31.5412 19.4704C31.6112 19.6488 31.6811 19.8272 31.7511 20.0056C31.7963 20.1209 31.8415 20.2362 31.8867 20.3516C31.9082 20.4063 31.9297 20.461 31.9518 20.5174C32.0706 20.8202 32.1895 21.123 32.3087 21.4256C32.3446 21.5167 32.3804 21.6079 32.4161 21.6991C32.4651 21.824 32.5142 21.9489 32.5635 22.0737C32.5777 22.1102 32.592 22.1467 32.6066 22.1843C32.6659 22.334 32.7247 22.463 32.8145 22.5976C33.4268 22.3559 34.0391 22.1143 34.67 21.8652C34.582 21.572 34.4998 21.3026 34.3861 21.0226C34.3737 20.9917 34.3612 20.9608 34.3484 20.9289C34.3093 20.832 34.2699 20.7352 34.2305 20.6384C34.1325 20.3965 34.0348 20.1544 33.9375 19.9121C33.9123 19.8494 33.9123 19.8494 33.8865 19.7854C33.8048 19.5766 33.7657 19.4461 33.8399 19.2285C33.9449 19.0807 33.999 19.0394 34.1786 19.0088C34.3732 19.0406 34.4326 19.0875 34.5723 19.2285C34.6626 19.3931 34.7305 19.5651 34.7991 19.7397C34.8193 19.79 34.8396 19.8404 34.8604 19.8923C34.903 19.9988 34.9452 20.1056 34.9871 20.2124C35.0509 20.3745 35.1164 20.5358 35.1822 20.6972C35.2234 20.8011 35.2646 20.9051 35.3057 21.0092C35.335 21.0807 35.335 21.0807 35.3648 21.1535C35.4943 21.4903 35.5412 21.7976 35.5 22.1582C35.3246 22.551 34.9063 22.6778 34.5288 22.8241C34.4885 22.8399 34.4481 22.8558 34.4065 22.8721C34.2788 22.9223 34.1509 22.9721 34.023 23.0218C33.9364 23.0558 33.8498 23.0898 33.7632 23.1238C32.8681 23.4747 32.8681 23.4747 32.5215 23.4277C32.4233 23.3635 32.3255 23.2985 32.2285 23.2324C31.9864 23.2942 31.7787 23.4563 31.5724 23.5925C31.5184 23.6278 31.5184 23.6278 31.4632 23.6639C31.2618 23.7956 31.0614 23.9287 30.8614 24.0625C30.8691 24.1045 30.8768 24.1466 30.8848 24.1899C30.9628 24.699 30.9345 25.1373 30.6521 25.576C30.4153 25.8827 30.0719 26.0676 29.6958 26.1489C29.4987 26.1739 29.3017 26.1694 29.1035 26.1621C29.0952 26.194 29.0869 26.2258 29.0784 26.2586C28.9467 26.7334 28.7163 27.0899 28.2784 27.3376C27.9799 27.4712 27.7155 27.4859 27.3946 27.4805C27.3839 27.5218 27.3732 27.563 27.3621 27.6056C27.2296 28.0798 27.0916 28.3989 26.6713 28.6706C26.2611 28.8953 25.901 28.9254 25.4414 28.8476C25.4092 28.8315 25.377 28.8154 25.3438 28.7988C25.3408 28.8819 25.3408 28.8819 25.3377 28.9667C25.2906 29.3365 25.0366 29.6387 24.7489 29.8624C24.3761 30.1125 23.9239 30.1352 23.4883 30.0684C23.0897 29.9373 22.7476 29.6829 22.4141 29.4336C22.3996 29.4634 22.385 29.4933 22.37 29.524C22.2017 29.8535 21.9155 30.0761 21.5726 30.208C21.1495 30.319 20.7607 30.2564 20.3793 30.0478C20.0587 29.8304 19.8817 29.5578 19.7774 29.1894C19.7774 29.125 19.7774 29.0605 19.7774 28.9941C19.723 28.9982 19.6686 29.0022 19.6126 29.0063C19.2399 29.005 18.8978 28.8415 18.6284 28.5886C18.4041 28.3297 18.3365 28.0599 18.3125 27.7246C18.2829 27.7274 18.2534 27.7303 18.2229 27.7332C17.8733 27.752 17.6231 27.6829 17.336 27.4805C17.118 27.2789 16.9406 27.0826 16.8477 26.7969C16.8416 26.6351 16.8416 26.6351 16.8477 26.5039C16.8146 26.5032 16.7815 26.5025 16.7474 26.5018C16.3212 26.48 15.9574 26.3733 15.6575 26.0553C15.3909 25.7054 15.282 25.328 15.334 24.8926C15.3568 24.8055 15.3816 24.719 15.4086 24.6332C15.422 24.5901 15.4354 24.5469 15.4492 24.5025C15.4595 24.4701 15.4699 24.4377 15.4805 24.4043C15.422 24.3673 15.3635 24.3303 15.305 24.2933C15.2482 24.2573 15.2482 24.2573 15.1902 24.2206C15.1065 24.1678 15.0227 24.1151 14.9389 24.0625C14.7332 23.9334 14.5288 23.8032 14.3275 23.6673C14.2928 23.6443 14.2581 23.6214 14.2224 23.5977C14.1571 23.5544 14.0923 23.5104 14.0281 23.4654C13.929 23.3974 13.929 23.3974 13.7715 23.3301C13.6266 23.364 13.6266 23.364 13.4785 23.4277C13.1538 23.4665 12.892 23.395 12.5933 23.2744C12.5526 23.2586 12.5119 23.2428 12.47 23.2265C12.341 23.1763 12.2125 23.125 12.0839 23.0737C11.9975 23.04 11.911 23.0064 11.8246 22.9728C11.7411 22.9401 11.6575 22.9074 11.5741 22.8746C11.5358 22.8596 11.4975 22.8446 11.4581 22.8291C10.6801 22.5184 10.6801 22.5184 10.5 22.1582C10.4455 21.6935 10.564 21.3408 10.7472 20.9192C10.774 20.8552 10.8007 20.7912 10.8273 20.7272C10.884 20.5905 10.9411 20.454 10.9985 20.3176C11.1298 20.0038 11.2537 19.6871 11.3779 19.3705C11.4221 19.2579 11.4665 19.1453 11.511 19.0327C11.6947 18.5675 11.8772 18.1018 12.059 17.6358C12.1317 17.4496 12.2046 17.2634 12.2774 17.0773C12.3374 16.9239 12.3973 16.7705 12.4569 16.617C12.5243 16.444 12.5919 16.2711 12.6595 16.0982C12.6894 16.0211 12.6894 16.0211 12.7199 15.9424C13.0982 14.9786 13.0982 14.9786 13.5121 14.7668C13.8831 14.6968 14.2639 14.8599 14.6054 14.9969ZM13.7227 15.5664C13.7004 15.6234 13.6781 15.6805 13.6552 15.7393C13.262 16.746 12.8683 17.7525 12.4707 18.7575C12.4197 18.8865 12.3687 19.0155 12.3178 19.1445C12.1633 19.5357 12.0082 19.9265 11.8512 20.3166C11.7813 20.4903 11.7118 20.6641 11.6423 20.8379C11.6094 20.9199 11.5763 21.0019 11.5431 21.0838C11.4975 21.1961 11.4525 21.3086 11.4075 21.4212C11.3939 21.4544 11.3803 21.4875 11.3662 21.5217C11.2882 21.7137 11.2882 21.7137 11.3301 21.9141C11.4654 21.9798 11.5973 22.0364 11.7373 22.0903C11.7782 22.1065 11.8191 22.1226 11.8612 22.1393C11.9478 22.1734 12.0344 22.2072 12.1212 22.2407C12.2543 22.2923 12.3871 22.3449 12.5198 22.3976C12.6038 22.4305 12.6878 22.4634 12.7719 22.4962C12.8118 22.512 12.8517 22.5278 12.8929 22.5441C12.9894 22.5811 13.0874 22.6142 13.1856 22.6465C13.3264 22.5761 13.3333 22.4906 13.3883 22.3442C13.4096 22.2882 13.4309 22.2322 13.4529 22.1745C13.4644 22.1438 13.476 22.113 13.4878 22.0814C13.5525 21.9092 13.6184 21.7375 13.6842 21.5658C13.6986 21.5279 13.7131 21.4901 13.728 21.4511C13.8994 21.0032 14.0762 20.5574 14.2531 20.1116C14.3119 19.9633 14.3707 19.8151 14.4294 19.6668C14.618 19.1908 14.8069 18.715 14.9962 18.2394C15.0829 18.0214 15.1695 17.8035 15.2561 17.5855C15.2978 17.4808 15.3394 17.3762 15.3812 17.2715C15.439 17.1265 15.4967 16.9814 15.5543 16.8363C15.5717 16.793 15.589 16.7497 15.6069 16.705C15.6225 16.6656 15.6381 16.6262 15.6542 16.5855C15.6747 16.534 15.6747 16.534 15.6957 16.4814C15.7299 16.396 15.7299 16.396 15.7246 16.2988C15.4632 16.1942 15.2016 16.0899 14.9399 15.9859C14.8509 15.9505 14.7619 15.9149 14.673 15.8793C14.5452 15.8282 14.4173 15.7774 14.2894 15.7266C14.2495 15.7106 14.2097 15.6946 14.1687 15.6781C14.113 15.6561 14.113 15.6561 14.0561 15.6336C14.0235 15.6206 13.9909 15.6076 13.9572 15.5942C13.8613 15.559 13.8613 15.559 13.7227 15.5664ZM16.2129 17.2266C15.8808 18.0337 15.5558 18.8435 15.2367 19.6559C15.2055 19.7355 15.1742 19.8151 15.1429 19.8947C15.1271 19.9349 15.1113 19.9751 15.0951 20.0164C14.9877 20.2891 14.8791 20.5613 14.7697 20.8332C14.6917 21.0271 14.614 21.2211 14.5364 21.4152C14.4986 21.5094 14.4606 21.6036 14.4225 21.6977C14.3694 21.8288 14.3168 21.9602 14.2644 22.0916C14.2483 22.1309 14.2322 22.1702 14.2156 22.2107C14.1247 22.4242 14.1247 22.4242 14.1621 22.6465C14.2362 22.7074 14.2362 22.7074 14.33 22.7594C14.3653 22.7804 14.4005 22.8015 14.4369 22.8231C14.4751 22.8454 14.5134 22.8677 14.5528 22.8906C14.6328 22.9382 14.7128 22.9859 14.7927 23.0337C14.8543 23.0705 14.8543 23.0705 14.9171 23.108C15.1499 23.25 15.3768 23.401 15.6033 23.5527C15.6357 23.574 15.668 23.5953 15.7014 23.6173C15.7295 23.6361 15.7577 23.655 15.7867 23.6744C15.8788 23.7249 15.9639 23.7484 16.0664 23.7695C16.0966 23.7356 16.0966 23.7356 16.1275 23.7009C16.2205 23.5971 16.3143 23.4941 16.4082 23.3911C16.4399 23.3555 16.4716 23.3199 16.5042 23.2831C16.8169 22.9426 17.123 22.7685 17.5893 22.7319C18.0085 22.7594 18.3045 22.8784 18.6097 23.1712C18.8101 23.4072 18.8926 23.6644 18.9473 23.9648C19.0039 23.972 19.0039 23.972 19.0617 23.9793C19.5216 24.0454 19.8611 24.134 20.1558 24.5088C20.3105 24.7389 20.3709 24.9644 20.4121 25.2344C20.4546 25.2397 20.497 25.2451 20.5407 25.2506C21.064 25.3226 21.3579 25.43 21.6878 25.8569C21.7793 26.0156 21.7793 26.0156 21.7999 26.1268C21.825 26.2601 21.8458 26.3446 21.9258 26.4551C22.0953 26.513 22.2602 26.5387 22.4372 26.5659C22.7372 26.628 22.9054 26.7973 23.1129 27.0105C23.3411 27.3654 23.391 27.6991 23.3418 28.1152C23.2731 28.364 23.1949 28.5752 23 28.75C23.0919 29.0257 23.3864 29.1589 23.6348 29.2871C23.8819 29.3452 24.0577 29.3162 24.2879 29.2139C24.4782 29.0326 24.5952 28.8614 24.622 28.5953C24.598 28.3527 24.4938 28.2269 24.3111 28.069C24.1591 27.9453 24.0019 27.8282 23.8443 27.7118C23.6435 27.5562 23.6435 27.5562 23.601 27.4251C23.6101 27.2855 23.6205 27.1656 23.6867 27.041C23.8416 26.9611 23.9502 26.9729 24.1231 26.9922C24.2688 27.0725 24.3923 27.1758 24.5198 27.2821C24.593 27.3404 24.6662 27.3985 24.7395 27.4566C24.7755 27.4855 24.8115 27.5143 24.8486 27.544C24.9965 27.6614 25.1473 27.7738 25.3011 27.8833C25.3485 27.9178 25.396 27.9523 25.4449 27.9878C25.6113 28.0793 25.7408 28.104 25.9297 28.1152C26.2169 28.031 26.3459 27.9104 26.5157 27.6758C26.5907 27.5258 26.5755 27.4022 26.5645 27.2363C26.459 26.9365 26.2572 26.7992 26.0091 26.6199C25.9354 26.5653 25.8618 26.5108 25.7882 26.4562C25.7535 26.4309 25.7189 26.4056 25.6831 26.3795C25.6022 26.3192 25.5236 26.2556 25.4456 26.1915C25.3523 26.1034 25.3523 26.1034 25.2461 26.1133C25.1733 25.8949 25.1733 25.6969 25.2461 25.4785C25.5083 25.4503 25.7169 25.4413 25.9379 25.5985C26.0043 25.652 26.0697 25.7067 26.1342 25.7623C26.2061 25.8204 26.278 25.8785 26.3499 25.9365C26.3856 25.9659 26.4213 25.9954 26.4581 26.0258C26.6213 26.16 26.7871 26.2903 26.9551 26.4184C26.9831 26.4412 27.0112 26.4639 27.04 26.4873C27.2578 26.6532 27.4621 26.7062 27.7364 26.6992C27.9886 26.6167 28.1263 26.4784 28.2735 26.2598C28.3357 26.0459 28.3444 25.8709 28.2428 25.6671C28.0827 25.4496 27.8534 25.2967 27.6387 25.1367C27.6055 25.1119 27.5723 25.087 27.538 25.0615C27.5028 25.0352 27.4676 25.0089 27.4314 24.9818C27.396 24.9554 27.3607 24.929 27.3242 24.9018C27.2538 24.8494 27.1832 24.7972 27.1123 24.7454C27.08 24.7215 27.0476 24.6976 27.0142 24.673C26.9852 24.6518 26.9561 24.6306 26.9262 24.6087C26.8575 24.5508 26.8575 24.5508 26.8086 24.4531C26.7868 24.1535 26.7868 24.1535 26.8575 24.0167C27.0173 23.9318 27.1719 23.9321 27.3457 23.9648C27.4999 24.048 27.6278 24.1568 27.7608 24.27C27.8379 24.3327 27.9151 24.3953 27.9923 24.4579C28.031 24.4897 28.0696 24.5215 28.1094 24.5542C28.2854 24.6981 28.4649 24.8372 28.6458 24.975C28.6916 25.011 28.6916 25.011 28.7384 25.0478C28.9583 25.2155 29.216 25.3923 29.5043 25.374C29.782 25.3235 29.9351 25.1765 30.0954 24.9475C30.1625 24.7399 30.1485 24.5606 30.0801 24.3555C29.8544 24.0169 29.4875 23.783 29.1615 23.5467C29.0794 23.4868 28.9974 23.4268 28.9153 23.3669C28.8737 23.3366 28.832 23.3062 28.7891 23.275C28.6289 23.1579 28.4694 23.0397 28.3101 22.9214C28.2327 22.8642 28.1549 22.8074 28.0768 22.7511C27.8901 22.6163 27.7105 22.4797 27.5382 22.3268C26.9754 21.8472 26.4967 21.8727 25.7797 21.9105C24.7192 21.937 23.6381 21.3143 22.8535 20.6445C22.7946 20.5855 22.7364 20.5256 22.6796 20.4645C22.6207 20.4086 22.6207 20.4086 22.5606 20.3516C22.3608 20.3593 22.2428 20.4961 22.0998 20.6232C21.3962 21.2288 20.4571 21.7737 19.4978 21.7327C19.079 21.6801 18.7131 21.5617 18.3614 21.3281C18.3332 21.3101 18.3051 21.2921 18.2761 21.2736C18.0521 21.1115 17.9518 20.9021 17.8731 20.6445C17.8408 20.3814 17.8874 20.1421 18.0196 19.9121C18.1998 19.7089 18.4023 19.566 18.6269 19.4177C19.1457 19.0675 19.6299 18.6813 20.107 18.2764C20.1507 18.2394 20.1507 18.2394 20.1953 18.2017C20.3207 18.094 20.4175 17.9998 20.5098 17.8613C20.19 17.7443 19.8747 17.7106 19.5363 17.6904C19.4855 17.6873 19.4855 17.6873 19.4337 17.6842C19.1772 17.6699 18.9207 17.6627 18.6639 17.6572C18.5949 17.6556 18.526 17.654 18.4571 17.6524C18.3206 17.6492 18.1841 17.6468 18.0475 17.6449C17.5028 17.6324 17.0269 17.5277 16.5181 17.3395C16.4599 17.3181 16.4018 17.2968 16.3419 17.2748C16.2993 17.2589 16.2568 17.243 16.2129 17.2266ZM17.0987 23.7539C17.0511 23.8054 17.0041 23.8574 16.9576 23.9099C16.9326 23.9377 16.9076 23.9654 16.8819 23.994C16.7079 24.1898 16.5383 24.3891 16.3747 24.5935C16.3352 24.6427 16.2957 24.6919 16.2551 24.7427C16.1515 24.9133 16.1253 25.0361 16.1153 25.2344C16.1761 25.4281 16.2533 25.5364 16.4204 25.6464C16.6084 25.7411 16.7418 25.7341 16.9453 25.6738C17.1264 25.5448 17.2599 25.4024 17.397 25.2283C17.5821 24.9967 17.7758 24.7767 17.9782 24.5601C18.1387 24.3697 18.1914 24.2203 18.1847 23.9664C18.1502 23.783 18.0574 23.7006 17.9219 23.5742C17.5897 23.4002 17.3622 23.507 17.0987 23.7539ZM17.9219 25.7715C17.8918 25.8081 17.8616 25.8447 17.8305 25.8825C17.6831 26.0671 17.5748 26.2087 17.5801 26.4551C17.6615 26.681 17.7619 26.8227 17.9707 26.9434C18.2066 26.9733 18.3791 26.9759 18.5756 26.8249C18.7222 26.6818 18.8476 26.522 18.9742 26.3612C19.0568 26.2574 19.1397 26.1571 19.2271 26.0576C19.2602 26.0195 19.2602 26.0195 19.2939 25.9807C19.3561 25.9095 19.4186 25.8385 19.4812 25.7677C19.595 25.6068 19.6424 25.4761 19.6797 25.2832C19.6218 25.0697 19.5632 24.9674 19.3959 24.8224C18.7501 24.5058 18.2672 25.3366 17.9219 25.7715ZM19.9117 26.4093C19.7283 26.6407 19.5366 26.8599 19.3353 27.0757C19.152 27.2914 19.0673 27.447 19.08 27.7282C19.1012 27.8729 19.1453 27.9556 19.2403 28.0664C19.4413 28.2066 19.5897 28.2268 19.8249 28.2037C19.9752 28.1435 20.0589 28.0379 20.168 27.9199C20.2259 27.8585 20.2259 27.8585 20.2849 27.7957C20.8763 27.2294 20.8763 27.2294 21.1415 26.507C21.1094 26.2971 21.0173 26.1978 20.8516 26.0644C20.4556 25.8665 20.1488 26.1041 19.9117 26.4093ZM21.584 27.4316C21.4891 27.5291 21.4054 27.6219 21.3216 27.7277C21.2877 27.7691 21.2877 27.7691 21.2531 27.8114C21.2068 27.8681 21.1606 27.9251 21.1147 27.9822C21.0493 28.0634 20.9831 28.1438 20.9164 28.2239C20.6014 28.5833 20.6014 28.5833 20.5586 29.043C20.6528 29.2389 20.7292 29.321 20.9157 29.4336C21.1409 29.4947 21.2264 29.4847 21.4375 29.3848C21.7184 29.1575 21.9405 28.8653 22.1642 28.5839C22.2516 28.4767 22.3424 28.3791 22.4385 28.28C22.5734 28.1237 22.6081 27.9819 22.6178 27.7772C22.6017 27.5825 22.5108 27.4795 22.3775 27.3462C22.0724 27.1767 21.8538 27.2377 21.584 27.4316Z" fill="#FEC377"/>
</g>
<defs>
<clipPath id="clip0_21_437">
<rect width="25" height="25" fill="white" transform="translate(10.5 10)"/>
</clipPath>
</defs>
</svg>
