<svg width="46" height="45" viewBox="0 0 46 45" fill="none" xmlns="http://www.w3.org/2000/svg">
<rect x="0.5" width="45" height="45" rx="6" fill="#FFF9F1"/>
<g clip-path="url(#clip0_21_492)">
<path d="M21.291 19.0332C21.3414 19.0805 21.3908 19.1288 21.4375 19.1797C21.5713 19.1159 21.6909 19.0439 21.8129 18.96C22.1448 18.7508 22.539 18.6821 22.9241 18.7664C23.2434 18.8536 23.5071 18.9782 23.7324 19.2285C23.8372 19.1765 23.9414 19.1238 24.045 19.0696C24.0859 19.0486 24.1267 19.0275 24.1688 19.0058C24.2095 18.9845 24.2503 18.9633 24.2922 18.9415C24.673 18.7731 25.0812 18.8072 25.4693 18.9323C25.6326 19.004 25.7611 19.1027 25.8959 19.2184C25.9815 19.2915 25.9815 19.2915 26.125 19.2774C26.2266 19.2273 26.2266 19.2273 26.3325 19.1614C26.7452 18.9264 27.1309 18.8722 27.5898 18.9874C28.0142 19.1298 28.2827 19.3954 28.5082 19.7744C28.6505 20.1112 28.6782 20.4492 28.6736 20.8111C28.6734 20.8735 28.6734 20.8735 28.6732 20.9373C28.6726 21.0686 28.6714 21.1999 28.6702 21.3312C28.6697 21.4209 28.6692 21.5107 28.6688 21.6004C28.6678 21.8189 28.6661 22.0374 28.6641 22.2559C28.6984 22.2554 28.7326 22.255 28.768 22.2546C29.0933 22.2506 29.4186 22.2477 29.744 22.2458C29.9112 22.2447 30.0784 22.2434 30.2456 22.2411C30.4384 22.2386 30.6313 22.2377 30.8241 22.2368C30.8833 22.2358 30.9425 22.2348 31.0035 22.2337C31.5786 22.2336 31.9991 22.37 32.4156 22.7712C32.8166 23.2235 32.8611 23.711 32.828 24.2945C32.7822 24.6647 32.5616 25.0011 32.2773 25.2344C32.2421 25.2676 32.2069 25.3009 32.1705 25.3351C31.7661 25.6137 31.3805 25.6526 30.8991 25.6441C30.8391 25.6438 30.7791 25.6435 30.7173 25.6432C30.5272 25.6422 30.3372 25.6397 30.1472 25.6372C30.0177 25.6362 29.8882 25.6353 29.7587 25.6346C29.4426 25.6324 29.1266 25.6291 28.8106 25.625C28.8032 25.704 28.8032 25.704 28.7957 25.7845C28.7771 25.9831 28.7576 26.1817 28.7378 26.3802C28.7295 26.4655 28.7213 26.5508 28.7134 26.6362C28.6118 27.73 28.3419 28.6847 27.4922 29.4336C26.999 29.8242 26.999 29.8242 26.8086 29.8242C26.8086 30.1143 26.8086 30.4043 26.8086 30.7031C26.9053 30.7354 27.002 30.7676 27.1016 30.8008C27.2015 30.8872 27.2015 30.8872 27.2847 30.987C27.3126 31.0195 27.3406 31.052 27.3694 31.0856C27.5113 31.2886 27.5533 31.4668 27.5552 31.7126C27.5558 31.767 27.5565 31.8215 27.5571 31.8775C27.5572 31.9359 27.5573 31.9943 27.5574 32.0545C27.5577 32.115 27.5581 32.1755 27.5584 32.2378C27.5589 32.3658 27.5591 32.4937 27.5591 32.6216C27.5591 32.7523 27.5598 32.8829 27.5611 33.0136C27.5629 33.2025 27.5634 33.3914 27.5635 33.5804C27.5646 33.6675 27.5646 33.6675 27.5657 33.7564C27.5636 34.1402 27.5184 34.4092 27.2604 34.7082C27.2332 34.73 27.2059 34.7517 27.1779 34.7742C27.1507 34.7967 27.1236 34.8193 27.0957 34.8425C26.831 35.0152 26.5885 35.015 26.2818 35.0147C26.2359 35.0149 26.19 35.0151 26.1427 35.0153C26.0459 35.0156 25.9491 35.0156 25.8523 35.0154C25.704 35.0153 25.5558 35.0164 25.4075 35.0177C25.3134 35.0178 25.2193 35.0178 25.1252 35.0178C25.0586 35.0184 25.0586 35.0184 24.9906 35.0191C24.9288 35.0187 24.9288 35.0187 24.8657 35.0182C24.8294 35.0182 24.7932 35.0183 24.7558 35.0183C24.6323 34.9947 24.5902 34.9517 24.5137 34.8535C24.4588 34.6734 24.4484 34.5943 24.532 34.4232C24.6113 34.3164 24.6113 34.3164 24.6602 34.2676C24.7874 34.261 24.9135 34.2573 25.0409 34.2556C25.1197 34.254 25.1985 34.2523 25.2774 34.2507C25.402 34.2484 25.5266 34.2462 25.6512 34.2443C25.7713 34.2424 25.8913 34.2399 26.0113 34.2373C26.0669 34.2367 26.0669 34.2366 26.1236 34.236C26.4433 34.23 26.4433 34.23 26.7109 34.0723C26.716 33.9949 26.7177 33.9173 26.718 33.8397C26.7183 33.7902 26.7187 33.7406 26.719 33.6896C26.719 33.6357 26.7191 33.5818 26.7191 33.5262C26.7193 33.4712 26.7195 33.4163 26.7196 33.3596C26.7199 33.2431 26.72 33.1266 26.72 33.01C26.7201 32.8312 26.721 32.6523 26.7219 32.4734C26.7221 32.3605 26.7221 32.2476 26.7222 32.1346C26.7227 32.0539 26.7227 32.0539 26.7233 31.9715C26.7231 31.9218 26.723 31.8722 26.7228 31.821C26.7229 31.7551 26.7229 31.7551 26.723 31.688C26.7209 31.5717 26.7209 31.5717 26.6133 31.4844C26.4609 31.4319 26.3173 31.4293 26.157 31.429C26.1041 31.4288 26.0512 31.4286 25.9967 31.4284C25.9388 31.4284 25.881 31.4284 25.8215 31.4285C25.7604 31.4283 25.6993 31.4281 25.6364 31.428C25.469 31.4276 25.3017 31.4274 25.1343 31.4274C25.0297 31.4274 24.9251 31.4273 24.8205 31.4271C24.4555 31.4267 24.0905 31.4265 23.7255 31.4265C23.3854 31.4265 23.0453 31.426 22.7052 31.4253C22.4131 31.4246 22.1209 31.4244 21.8288 31.4244C21.6543 31.4244 21.4799 31.4243 21.3055 31.4237C21.111 31.4232 20.9165 31.4234 20.722 31.4237C20.6354 31.4233 20.6354 31.4233 20.5471 31.4229C20.4675 31.4232 20.4675 31.4232 20.3863 31.4235C20.3403 31.4235 20.2944 31.4234 20.247 31.4234C20.1059 31.4368 20.0016 31.47 19.875 31.5332C19.816 31.6513 19.8194 31.7274 19.8183 31.8593C19.8178 31.9067 19.8174 31.9541 19.8169 32.003C19.8167 32.0543 19.8165 32.1057 19.8163 32.1586C19.816 32.2113 19.8157 32.2639 19.8154 32.3181C19.815 32.4295 19.8146 32.541 19.8144 32.6524C19.814 32.8232 19.8125 32.994 19.8109 33.1649C19.8106 33.273 19.8103 33.3811 19.8102 33.4892C19.8092 33.5661 19.8092 33.5661 19.8083 33.6446C19.8085 33.7159 19.8085 33.7159 19.8088 33.7887C19.8086 33.8306 19.8084 33.8725 19.8082 33.9157C19.8303 34.0484 19.8665 34.0895 19.9727 34.1699C20.1352 34.2241 20.2572 34.2252 20.4285 34.2257C20.4924 34.226 20.5563 34.2264 20.6221 34.2267C20.6562 34.2268 20.6903 34.2269 20.7255 34.227C20.8324 34.2274 20.9393 34.2281 21.0463 34.229C21.3503 34.2316 21.6542 34.2339 21.9582 34.2347C22.1443 34.2352 22.3303 34.2366 22.5163 34.2387C22.5871 34.2393 22.658 34.2395 22.7288 34.2394C22.8279 34.2393 22.927 34.2405 23.0261 34.2417C23.0825 34.242 23.1389 34.2423 23.197 34.2426C23.3733 34.273 23.4313 34.3207 23.5371 34.4629C23.564 34.6509 23.5729 34.7555 23.4594 34.9115C23.3002 35.0314 23.1969 35.0248 22.9986 35.0253C22.9474 35.0258 22.9474 35.0258 22.8951 35.0263C22.7823 35.0272 22.6695 35.0266 22.5567 35.026C22.478 35.0261 22.3993 35.0263 22.3206 35.0265C22.1556 35.0268 21.9906 35.0264 21.8256 35.0255C21.6149 35.0244 21.4043 35.025 21.1936 35.0262C21.0309 35.0269 20.8683 35.0267 20.7057 35.0261C20.6281 35.026 20.5504 35.0262 20.4728 35.0266C20.0184 35.0287 19.6531 35.03 19.2879 34.7212C19.2553 34.6809 19.2553 34.6809 19.2219 34.6399C19.1994 34.6133 19.1769 34.5868 19.1536 34.5594C18.9613 34.2494 18.9804 33.9219 18.9797 33.5693C18.9792 33.4821 18.9792 33.4821 18.9787 33.3931C18.9782 33.2703 18.978 33.1474 18.978 33.0246C18.9778 32.8375 18.976 32.6504 18.9742 32.4633C18.9739 32.3437 18.9737 32.2241 18.9736 32.1045C18.9729 32.0489 18.9722 31.9934 18.9715 31.9361C18.9736 31.5543 19.0302 31.2401 19.2784 30.9397C19.3061 30.918 19.3338 30.8963 19.3623 30.874C19.39 30.8514 19.4177 30.8287 19.4462 30.8054C19.5332 30.752 19.5332 30.752 19.7285 30.7031C19.7285 30.397 19.7285 30.0908 19.7285 29.7754C19.5835 29.7432 19.4385 29.711 19.2891 29.6777C18.3587 29.2424 17.7389 28.3504 17.3724 27.4233C17.1599 26.8181 17.1296 26.2589 17.1406 25.625C17.0813 25.63 17.022 25.6349 16.9608 25.64C16.1854 25.6838 15.5652 25.4738 14.8488 25.1978C14.7383 25.1569 14.6279 25.1162 14.5174 25.0757C14.4117 25.0364 14.306 24.997 14.2004 24.9574C14.1518 24.9392 14.1031 24.921 14.053 24.9022C13.6893 24.7619 13.3586 24.6305 13.1855 24.2578C13.1493 23.9916 13.1394 23.7219 13.2618 23.4766C13.6157 23.0411 14.3326 22.8791 14.8396 22.6862C14.9196 22.6556 14.9196 22.6556 15.0012 22.6244C15.7563 22.3398 16.4354 22.1549 17.2449 22.2184C17.564 22.2513 17.564 22.2513 17.8363 22.1146C17.9274 21.9995 17.9274 21.9995 17.996 21.8778C18.1825 21.5937 18.5388 21.5099 18.8496 21.4258C18.8481 21.3631 18.8481 21.3631 18.8465 21.2991C18.8432 21.1416 18.8407 20.9842 18.8389 20.8268C18.8379 20.7591 18.8366 20.6913 18.8349 20.6236C18.8207 20.0468 18.8853 19.5981 19.2931 19.1677C19.8658 18.644 20.644 18.601 21.291 19.0332ZM19.85 19.7397C19.6816 19.9366 19.6246 20.049 19.6261 20.3031C19.6262 20.3465 19.6263 20.3899 19.6265 20.4346C19.6269 20.4898 19.6274 20.545 19.6278 20.6018C19.6288 20.7771 19.6298 20.9523 19.6309 21.1328C20.1143 20.9717 20.5977 20.8106 21.0957 20.6445C21.1146 20.077 21.1146 20.077 20.818 19.6771C20.4971 19.4652 20.1448 19.4533 19.85 19.7397ZM22.0021 19.8419C21.8516 20.0766 21.8664 20.293 21.8647 20.5621C21.8637 20.6033 21.8627 20.6444 21.8617 20.6868C21.8601 20.9446 21.8981 21.0983 22.0234 21.3281C22.0802 21.7413 21.998 22.1313 21.8947 22.5288C21.8731 22.7313 21.9148 22.8189 22.0234 22.9883C22.2371 23.1908 22.4051 23.2813 22.7009 23.2813C22.9353 23.2444 23.0913 23.1158 23.2441 22.9395C23.3394 22.7825 23.3545 22.6626 23.356 22.4801C23.3566 22.4273 23.3572 22.3745 23.3579 22.3201C23.358 22.2633 23.3581 22.2065 23.3582 22.1479C23.3585 22.0893 23.3589 22.0306 23.3592 21.9702C23.3597 21.8462 23.3599 21.7222 23.3599 21.5981C23.3601 21.4085 23.3619 21.219 23.3637 21.0294C23.364 20.9089 23.3642 20.7884 23.3643 20.6678C23.365 20.6112 23.3657 20.5546 23.3664 20.4962C23.3642 20.1028 23.3113 19.935 23.0366 19.6527C22.6486 19.4146 22.2994 19.5293 22.0021 19.8419ZM24.2756 19.9091C24.1373 20.1085 24.1171 20.252 24.1152 20.4911C24.1147 20.538 24.1142 20.585 24.1138 20.6333C24.1136 20.6837 24.1133 20.7341 24.1131 20.7861C24.1129 20.8382 24.1126 20.8903 24.1123 20.9441C24.1118 21.0543 24.1115 21.1645 24.1113 21.2748C24.1108 21.4431 24.1093 21.6115 24.1078 21.7798C24.1075 21.887 24.1072 21.9942 24.107 22.1014C24.1064 22.1516 24.1058 22.2018 24.1052 22.2535C24.1063 22.6015 24.1534 22.8151 24.3977 23.0768C24.5829 23.218 24.7721 23.2519 25.002 23.2324C25.2423 23.1638 25.4079 23.0566 25.5458 22.8435C25.6382 22.6255 25.6155 22.3819 25.6138 22.1491C25.614 22.0916 25.6142 22.0342 25.6144 21.9751C25.6145 21.8539 25.6142 21.7328 25.6134 21.6116C25.6123 21.4264 25.6133 21.2413 25.6146 21.0562C25.6145 20.9383 25.6142 20.8204 25.6138 20.7025C25.6142 20.6473 25.6146 20.592 25.615 20.5351C25.6114 20.2319 25.5984 20.0439 25.3926 19.8145C25.2369 19.6987 25.0677 19.6304 24.8768 19.5978C24.6334 19.6415 24.4395 19.722 24.2756 19.9091ZM26.4943 20.0586C26.395 20.2492 26.3632 20.4008 26.3613 20.6144C26.3608 20.6563 26.3603 20.6982 26.3599 20.7413C26.3596 20.7862 26.3594 20.8312 26.3592 20.8774C26.3589 20.924 26.3587 20.9706 26.3584 21.0186C26.3579 21.1172 26.3576 21.2157 26.3574 21.3143C26.3569 21.4644 26.3554 21.6145 26.3539 21.7646C26.3536 21.8605 26.3533 21.9565 26.3531 22.0524C26.3525 22.097 26.3519 22.1416 26.3513 22.1876C26.3525 22.5286 26.4059 22.7607 26.6316 23.028C26.8297 23.1931 26.9359 23.2346 27.1962 23.2263C27.4499 23.1852 27.6243 23.0754 27.776 22.8662C27.8611 22.687 27.8889 22.5325 27.8907 22.3349C27.8912 22.293 27.8916 22.2511 27.8921 22.2079C27.8924 22.1405 27.8924 22.1405 27.8927 22.0718C27.8932 22.0019 27.8932 22.0019 27.8936 21.9306C27.894 21.8321 27.8944 21.7335 27.8945 21.635C27.895 21.4848 27.8965 21.3347 27.8981 21.1846C27.8984 21.0887 27.8987 20.9928 27.8988 20.8969C27.8994 20.8523 27.9 20.8077 27.9007 20.7617C27.8995 20.4207 27.846 20.1885 27.6204 19.9213C27.4616 19.7889 27.3379 19.7314 27.1351 19.6985C26.8642 19.7363 26.6662 19.847 26.4943 20.0586ZM20.8675 21.4878C20.8225 21.5038 20.7775 21.5198 20.7312 21.5363C20.6829 21.5543 20.6347 21.5724 20.5849 21.591C20.51 21.6181 20.51 21.6181 20.4335 21.6458C20.3277 21.6843 20.2221 21.7232 20.1166 21.7623C19.9556 21.8221 19.7942 21.8806 19.6328 21.9389C19.53 21.9764 19.4273 22.0141 19.3245 22.0518C19.2765 22.0692 19.2284 22.0867 19.1789 22.1047C18.7323 22.2619 18.7323 22.2619 18.4231 22.6018C18.3393 22.8322 18.297 23.0728 18.2526 23.3133C18.2432 23.3631 18.2337 23.4129 18.224 23.4642C18.2042 23.5694 18.1846 23.6746 18.1652 23.7799C18.1358 23.9387 18.1056 24.0973 18.0752 24.2559C17.831 25.552 17.7593 26.7654 18.5078 27.9199C19.0584 28.7014 19.6407 29.0228 20.5586 29.1895C20.6897 29.2046 20.8183 29.2162 20.9502 29.2202C21.0783 29.2442 21.1463 29.2981 21.2422 29.3848C21.2975 29.5348 21.2968 29.6094 21.2513 29.7632C21.1934 29.8731 21.1934 29.8731 21.0957 29.9219C20.9962 29.9331 20.8965 29.9419 20.7966 29.9494C20.6546 29.9599 20.6546 29.9599 20.5098 29.9707C20.5098 30.1963 20.5098 30.4219 20.5098 30.6543C22.3306 30.6543 24.1514 30.6543 26.0273 30.6543C26.0273 30.4771 26.0273 30.2998 26.0273 30.1172C25.9352 30.1096 25.9352 30.1096 25.8412 30.1019C25.7211 30.086 25.6453 30.0732 25.5391 30.0134C25.4611 29.8673 25.4758 29.7421 25.4902 29.5801C25.6153 29.3925 25.7417 29.3788 25.948 29.3237C26.7066 29.1027 27.2132 28.7136 27.6122 28.0332C27.809 27.6096 27.8696 27.1823 27.9164 26.7206C27.9227 26.6636 27.929 26.6066 27.9356 26.5479C27.9689 26.2351 27.9805 25.9423 27.9805 25.625C26.208 25.625 24.4355 25.625 22.6094 25.625C22.6738 25.7056 22.7383 25.7861 22.8047 25.8692C22.832 26.0639 22.8333 26.1652 22.7284 26.333C22.6094 26.4063 22.6094 26.4063 22.4507 26.4154C22.2406 26.3489 22.1432 26.2601 21.9855 26.1118C21.4184 25.6095 20.7091 25.3814 19.9883 25.2018C19.7491 25.1353 19.5921 25.0484 19.4403 24.848C19.3225 24.624 19.3114 24.3923 19.3598 24.1466C19.4339 23.9168 19.5284 23.813 19.7285 23.6719C19.8382 23.6157 19.9492 23.5619 20.0612 23.5101C20.6272 23.2357 20.9535 22.8773 21.1842 22.2894C21.2702 22.0223 21.2965 21.805 21.291 21.5235C21.1257 21.419 21.0492 21.4216 20.8675 21.4878ZM16.7012 23.0371C16.7012 23.6333 16.7012 24.2295 16.7012 24.8438C16.8623 24.8438 17.0234 24.8438 17.1895 24.8438C17.26 24.6439 17.3115 24.449 17.3501 24.2407C17.3661 24.1542 17.3661 24.1542 17.3825 24.0659C17.3933 24.0064 17.4041 23.9469 17.4153 23.8855C17.4265 23.8256 17.4377 23.7657 17.4492 23.7039C17.511 23.3727 17.511 23.3727 17.5313 23.0371C17.2573 23.0371 16.9834 23.0371 16.7012 23.0371ZM28.3417 23.2727C28.3226 23.3158 28.3034 23.3589 28.2836 23.4033C28.1674 23.6438 27.9555 23.7667 27.7159 23.8685C27.2663 24.0198 26.8555 24.0044 26.418 23.8184C26.2648 23.7291 26.1205 23.6314 25.9785 23.5254C25.9447 23.5546 25.9447 23.5546 25.9102 23.5843C25.5716 23.8594 25.2119 23.9961 24.7721 23.979C24.4327 23.9362 24.1506 23.8285 23.8789 23.6231C23.8306 23.5908 23.7822 23.5586 23.7324 23.5254C23.7014 23.5546 23.7014 23.5546 23.6697 23.5843C23.3305 23.8907 22.9877 24.0327 22.5234 24.024C22.1217 23.9861 21.8402 23.8271 21.5352 23.5742C21.4868 23.542 21.4385 23.5098 21.3887 23.4766C21.3631 23.5032 21.3374 23.5298 21.311 23.5573C20.9421 23.9164 20.5292 24.1303 20.0703 24.3555C20.2148 24.5156 20.363 24.552 20.5678 24.5996C20.9288 24.6874 20.9288 24.6874 21.1054 24.7727C21.4383 24.898 21.8091 24.8628 22.1596 24.8604C22.2429 24.8604 22.3262 24.8604 22.4095 24.8605C22.6347 24.8605 22.86 24.8596 23.0852 24.8586C23.3209 24.8577 23.5566 24.8576 23.7923 24.8574C24.2383 24.857 24.6843 24.8558 25.1302 24.8543C25.6381 24.8527 26.146 24.8519 26.6539 24.8511C27.6983 24.8496 28.7427 24.8469 29.7871 24.8438C29.7871 24.2476 29.7871 23.6514 29.7871 23.0371C29.5837 23.0271 29.3803 23.017 29.1707 23.0066C29.107 23.0022 29.0434 22.9977 28.9779 22.9931C28.6667 22.9857 28.5058 22.9912 28.3417 23.2727ZM30.5684 23.0371C30.5684 23.6333 30.5684 24.2295 30.5684 24.8438C31.2609 24.8995 31.2609 24.8995 31.7807 24.6237C31.9953 24.3795 32.0955 24.1421 32.0759 23.8132C32.0275 23.5523 31.8932 23.3539 31.6914 23.1836C31.3293 22.9753 31.3293 22.9753 30.5684 23.0371ZM15.0774 23.4676C14.9881 23.5 14.8988 23.5322 14.8094 23.5641C14.6809 23.61 14.5527 23.6566 14.4246 23.7034C14.3844 23.7176 14.3442 23.7318 14.3028 23.7464C14.2054 23.7824 14.1102 23.8243 14.0156 23.8672C13.9995 23.9155 13.9834 23.9639 13.9668 24.0137C14.2371 24.1111 14.5074 24.2085 14.7777 24.3057C14.8698 24.3389 14.9618 24.372 15.0538 24.4052C15.1858 24.4528 15.3178 24.5003 15.4498 24.5477C15.4912 24.5627 15.5326 24.5776 15.5752 24.5931C15.7437 24.6651 15.7437 24.6651 15.9199 24.6973C15.9199 24.1978 15.9199 23.6983 15.9199 23.1836C15.6626 23.1836 15.3201 23.3792 15.0774 23.4676Z" fill="#FF7648"/>
<path d="M23.7477 9.98475C23.7928 9.98292 23.8379 9.9811 23.8844 9.97922C24.0779 10.0078 24.1695 10.0677 24.3183 10.1953C24.4122 10.3309 24.4842 10.4745 24.5564 10.6226C24.577 10.6633 24.5976 10.7041 24.6188 10.7461C24.6612 10.8301 24.7032 10.9142 24.7449 10.9986C24.804 11.1177 24.8642 11.2361 24.9249 11.3544C24.9608 11.4248 24.9966 11.4952 25.0325 11.5656C25.0576 11.6148 25.0576 11.6148 25.0832 11.665C25.1972 11.8929 25.1972 11.8929 25.1972 12.002C25.2317 12.0045 25.2661 12.007 25.3016 12.0095C25.6901 12.0396 26.0749 12.0846 26.4607 12.1393C26.5185 12.1467 26.5762 12.1542 26.6358 12.1619C27.022 12.2169 27.2419 12.2768 27.5105 12.5665C27.6241 12.8068 27.6366 13.0105 27.5898 13.2715C27.401 13.7076 26.8691 14.0752 26.5106 14.3753C26.466 14.4149 26.4213 14.4545 26.3752 14.4952C26.315 14.5459 26.315 14.5459 26.2535 14.5977C26.1251 14.821 26.1818 15.0266 26.2226 15.2734C26.2303 15.3202 26.2379 15.3669 26.2458 15.415C26.2786 15.6054 26.3145 15.7951 26.3509 15.9849C26.4989 16.7917 26.4989 16.7917 26.2715 17.1289C26.0354 17.342 25.8752 17.4039 25.5601 17.4011C25.2001 17.3408 24.8859 17.1297 24.5716 16.9519C24.4637 16.891 24.3556 16.8306 24.2467 16.7713C24.1794 16.7346 24.1126 16.697 24.0463 16.6585C23.8881 16.5722 23.8048 16.5382 23.6256 16.5743C23.5803 16.5962 23.535 16.6181 23.4883 16.6406C23.4515 16.6578 23.4147 16.675 23.3768 16.6927C23.325 16.7203 23.325 16.7203 23.2722 16.7484C23.2332 16.769 23.1943 16.7896 23.1542 16.8109C23.1144 16.8322 23.0746 16.8536 23.0336 16.8756C22.9943 16.8964 22.9551 16.9172 22.9146 16.9387C22.6771 17.0648 22.6771 17.0648 22.4437 17.1982C22.1325 17.3815 21.897 17.4287 21.5351 17.3731C21.3152 17.2689 21.1941 17.1563 21.0957 16.9336C21.035 16.6625 21.0693 16.4693 21.1542 16.2113C21.3969 15.4438 21.3969 15.4438 21.2886 14.6758C21.015 14.2489 20.6009 13.911 20.1996 13.608C20.0297 13.4783 19.9292 13.3832 19.875 13.1738C19.8468 12.9253 19.8927 12.7555 19.9942 12.5339C20.2139 12.2669 20.5218 12.2099 20.8462 12.1681C20.9067 12.1593 20.9067 12.1593 20.9685 12.1503C21.0963 12.1317 21.2241 12.114 21.352 12.0966C21.4806 12.0789 21.6092 12.061 21.7377 12.0423C21.8173 12.0308 21.897 12.0198 21.9768 12.0094C22.178 11.9873 22.178 11.9873 22.3401 11.8787C22.414 11.8066 22.414 11.8066 22.6063 11.7853C22.7497 11.7916 22.8013 11.8046 22.9267 11.8829C23.0282 12.0477 23.0234 12.1532 23 12.3438C22.91 12.5522 22.8119 12.637 22.6094 12.7344C22.4249 12.7798 22.2386 12.8092 22.0509 12.8381C21.9726 12.8507 21.9726 12.8507 21.8928 12.8636C21.5136 12.9227 21.1377 12.965 20.7539 12.9785C20.9635 13.2308 21.1878 13.4666 21.4192 13.6987C21.4595 13.7394 21.4595 13.7394 21.5006 13.7808C21.6182 13.898 21.7342 14.0069 21.8647 14.1102C22.0336 14.247 22.1123 14.3806 22.1699 14.5899C22.1836 14.8048 22.1535 15.0126 22.1211 15.2246C22.114 15.2711 22.1069 15.3177 22.0995 15.3656C21.9503 16.3228 21.9503 16.3228 21.8769 16.543C21.9232 16.5178 21.9694 16.4927 22.0171 16.4668C22.1904 16.3729 22.3643 16.2804 22.5385 16.1883C22.6136 16.1484 22.6884 16.1082 22.763 16.0675C23.5887 15.6186 23.5887 15.6186 23.9765 15.7129C24.1089 15.7555 24.2249 15.8124 24.3458 15.8807C24.3782 15.898 24.4105 15.9152 24.4438 15.9329C24.5127 15.9696 24.5813 16.0068 24.6497 16.0444C24.7634 16.1066 24.8778 16.1671 24.9926 16.2273C25.1915 16.3317 25.3898 16.4371 25.5879 16.543C25.5805 16.5017 25.5731 16.4604 25.5655 16.4178C25.5378 16.2617 25.5105 16.1055 25.4836 15.9493C25.4719 15.8822 25.4601 15.8152 25.448 15.7482C25.252 14.6537 25.252 14.6537 25.4271 14.3454C25.5393 14.1988 25.6567 14.0705 25.788 13.9408C25.8112 13.9177 25.8344 13.8946 25.8583 13.8708C25.9317 13.798 26.0055 13.7255 26.0792 13.653C26.1289 13.6038 26.1785 13.5546 26.2281 13.5054C26.319 13.4153 26.41 13.3254 26.5011 13.2356C26.5877 13.1502 26.674 13.0646 26.7597 12.9785C26.7223 12.9767 26.6848 12.9749 26.6463 12.973C26.2772 12.9511 25.9116 12.9138 25.5451 12.8656C25.5022 12.8605 25.4593 12.8553 25.4151 12.85C25.1111 12.808 24.804 12.7528 24.5934 12.5113C24.5265 12.4095 24.471 12.306 24.416 12.1973C24.3905 12.1479 24.365 12.0985 24.3387 12.0476C24.2531 11.8794 24.1695 11.7105 24.0864 11.5411C24.0298 11.4262 23.9731 11.3113 23.9163 11.1965C23.8915 11.146 23.8667 11.0956 23.8412 11.0436C23.7913 10.9329 23.7913 10.9329 23.7324 10.8789C23.7159 10.9065 23.6994 10.9342 23.6824 10.9626C23.6607 10.9985 23.6389 11.0343 23.6164 11.0712C23.5949 11.1069 23.5734 11.1426 23.5512 11.1793C23.4883 11.2695 23.4883 11.2695 23.3906 11.3184C23.1927 11.3448 23.1202 11.3351 22.9573 11.2146C22.8329 11.0463 22.8338 10.9859 22.8535 10.7813C22.9107 10.642 22.9107 10.642 22.9878 10.5066C23.0252 10.4392 23.0252 10.4392 23.0633 10.3704C23.2515 10.0847 23.4076 9.99369 23.7477 9.98475Z" fill="#FF7648"/>
</g>
<defs>
<clipPath id="clip0_21_492">
<rect width="25" height="25" fill="white" transform="translate(10.5 10)"/>
</clipPath>
</defs>
</svg>
